<?xml version="1.0" standalone="no"?>
<!DOCTYPE svg PUBLIC "-//W3C//DTD SVG 20010904//EN"
 "http://www.w3.org/TR/2001/REC-SVG-20010904/DTD/svg10.dtd">
<svg version="1.0" xmlns="http://www.w3.org/2000/svg"
 width="153.000000pt" height="153.000000pt" viewBox="0 0 153.000000 153.000000"
 preserveAspectRatio="xMidYMid meet">
<metadata>
Created by potrace 1.11, written by Peter Selinger 2001-2013
</metadata>
<g transform="translate(0.000000,153.000000) scale(0.100000,-0.100000)"
fill="#000000" stroke="none">
<path d="M599 1490 c-7 -5 -21 -7 -31 -5 -10 2 -18 0 -18 -4 0 -5 -12 -12 -26
-15 -28 -7 -116 -46 -124 -55 -3 -4 -25 -20 -50 -36 -49 -33 -100 -78 -100
-89 0 -3 -11 -24 -25 -45 -43 -64 -50 -125 -29 -246 8 -49 17 -103 19 -120 3
-16 8 -43 13 -60 12 -44 4 -71 -23 -83 -53 -24 -41 -111 28 -202 23 -30 49
-61 57 -70 18 -17 104 -60 122 -60 14 0 48 -39 48 -57 0 -7 4 -13 10 -13 5 0
9 -3 8 -7 -2 -5 8 -26 21 -48 14 -22 24 -43 23 -47 -1 -5 5 -8 14 -8 8 0 12
-4 9 -10 -6 -9 8 -14 20 -7 2 1 12 -8 20 -20 9 -13 21 -23 26 -23 5 0 19 -9
31 -20 12 -11 28 -20 35 -20 7 0 28 -9 47 -19 18 -11 44 -21 57 -23 13 -2 27
-6 30 -11 3 -4 24 -8 47 -10 23 -1 42 -5 42 -8 0 -4 35 -6 78 -5 148 4 236 55
272 160 21 57 35 88 56 116 6 8 15 29 19 45 5 17 10 37 12 45 8 30 9 106 2
135 -4 17 -10 52 -14 78 -3 26 -17 78 -30 115 -19 52 -24 87 -24 156 0 81 -2
90 -23 105 -13 9 -26 15 -30 14 -8 -3 -20 30 -16 43 10 41 -63 192 -124 256
-10 10 -18 22 -18 27 0 5 -24 24 -52 42 -143 87 -208 111 -314 114 -45 1 -88
-1 -95 -5z m637 -592 c-1 -13 2 -26 7 -29 5 -3 2 -9 -6 -12 -11 -4 -15 0 -12
13 2 11 -1 22 -6 25 -5 4 -7 11 -4 16 11 17 22 9 21 -13z"/>
</g>
</svg>
