<?xml version="1.0" standalone="no"?>
<!DOCTYPE svg PUBLIC "-//W3C//DTD SVG 1.1//EN" "http://www.w3.org/Graphics/SVG/1.1/DTD/svg11.dtd" >
<svg>
<metadata>
Created by FontForge 20110222 at Mon Mar  7 03:50:53 2011
 By www-data
1.01 Carnival Open Shadow (c)1993     By Richard William Mueller
</metadata>
<defs>
<font id="CarnivalMFOpenShadow" horiz-adv-x="1283" >
  <font-face 
    font-family="Carnival Rimmed"
    font-weight="400"
    font-stretch="normal"
    units-per-em="2048"
    panose-1="0 0 4 0 0 0 0 0 0 0"
    ascent="1638"
    descent="-410"
    cap-height="1556"
    bbox="16 -369 2501 2044"
    underline-thickness="41"
    underline-position="-252"
    unicode-range="U+0020-2026"
  />
    <missing-glyph />
    <glyph glyph-name="space" unicode=" " horiz-adv-x="614" 
 />
    <glyph glyph-name="exclam" unicode="!" horiz-adv-x="568" 
d="M181 759q-5 30 -16.5 76t-27.5 98q-38 125 -49 173q-23 98 -23 193q0 96 45 183q56 106 156 106t153 -96q41 -76 41 -185q0 -107 -45 -245l-89 -235q-53 -140 -66 -241h-49q-4 37 -11.5 80.5t-19.5 95.5zM218 463q-41 -29 -70 -69q-32 -46 -32 -74v-22t4 -31q3 -26 7 -37
q6 -35 66.5 -114.5t88.5 -88.5q13 -4 31 -6t47 -2q53 0 104 41t51 104t-53 151q-39 65 -91 126l-3 27v63q0 49 48 168l91 211q47 111 47 233q0 124 -70 270q-84 179 -170 179q-85 0 -110 -12t-53 -37q-57 -54 -75.5 -103t-18.5 -148q0 -101 29 -230q12 -54 64 -238
q39 -140 58 -238q10 -53 10 -123zM264 192q-47 0 -80 32q-32 34 -32 79q0 44 33 78t77 34q45 0 79 -34t34 -78t-33.5 -77.5t-77.5 -33.5zM394 303q0 -52 -39 -91t-93 -39q-53 0 -91 39t-38 91q0 53 40 92t90 39q53 0 92 -40t39 -91zM443 1307q0 100 -37 173q-47 91 -124 91
t-131.5 -52.5t-68.5 -117.5l-6 -49l-2 -79q0 -49 17.5 -143.5t41.5 -179.5l63 -219q8 -34 15 -67t11 -61h23q11 99 64 236l89 227q45 132 45 241zM264 1628q-113 0 -181 -120q-54 -99 -54 -215q0 -119 38 -259l76 -290q39 -146 39 -264q-47 -41 -72.5 -93t-25.5 -110
q0 -62 68.5 -165t120.5 -121l34 -6l71 -2q51 0 112 52t61 127t-52 160l-93 133l-2 65q0 53 48 172l91 215q47 114 47 210q0 51 -8 101t-27 110q-40 131 -107 207q-80 93 -184 93zM120 932l-49 175q-23 100 -23 195q0 99 50 193q60 114 184 114q122 0 215 -185
q74 -151 74 -278q0 -65 -11 -122.5t-36 -115.5q-45 -112 -91 -212q-48 -117 -48 -169l1 -64l1 -15l89 -124q56 -79 56 -154t-58 -123q-54 -45 -112 -45q-60 0 -84 8q-48 15 -111.5 113t-63.5 156q0 59 28 106q17 29 70 86q0 75 -10.5 148.5t-26.5 139.5q-14 75 -44 173z" />
    <glyph glyph-name="quotedbl" unicode="&#x22;" horiz-adv-x="748" 
d="M666 1492q0 50 -32 88q-30 39 -87 39q-54 0 -86 -59q-24 -45 -24 -111q0 -64 21 -148q55 -217 58 -242l18 -11l-2 19l-5 4q-6 6 -44.5 190t-38.5 221q0 40 26 78q30 45 77 45t79 -36q21 -24 40 -77zM553 1602q-51 0 -79 -55q-10 -20 -15 -44.5t-5 -55.5q0 -57 21 -143
l57 -237l21 -7q23 0 38 21q3 6 31 181.5t28 216.5q0 40 -21 78q-26 45 -76 45zM534 1048l2 -28l4 -7q12 -3 32 -5q18 0 33 5l3 6l84 337q0 21 -1 31t-7.5 42t-17.5 63q0 -42 -4 -86t-13 -88q-40 -200 -40 -239q-14 -20 -25 -29q-11 -7 -33 -7zM337 1493q0 49 -32 87
q-30 39 -85 39q-53 0 -86 -60q-25 -48 -25 -111t21 -147q55 -215 58 -241q3 -6 18 -12l-1 20q-4 1 -8 8l-80 391q0 55 25 93q29 45 77 45t78 -36q20 -23 40 -76zM225 1602q-51 0 -79 -55q-20 -42 -20 -101q0 -58 21 -142l58 -236q13 -8 29 -8t30 21l5 43l4 26l31 158l13 85
q5 40 5 81q0 44 -21 83q-26 45 -76 45zM206 1048l2 -28l4 -6q8 -5 17 -6h20q13 0 28 5l3 6l84 337q0 24 -1.5 35.5t-6.5 33.5q-8 39 -19 68l2 -27q0 -68 -29 -193q-14 -68 -21 -113.5t-7 -80.5q-13 -20 -25 -29q-12 -7 -34 -7zM516 1059q-9 6 -49 192t-40 229q0 48 31 92
q35 50 101 50q65 0 113 -99q37 -82 37 -152q0 -72 -39 -182t-44 -150q0 -17 -5.5 -28t-15.5 -16q-7 -2 -15.5 -3t-27.5 -1q-31 0 -40 16zM188 1060q-9 6 -48.5 189.5t-39.5 231.5q0 46 31.5 93.5t99.5 47.5q67 0 114 -99q36 -78 36 -148q0 -68 -24 -143q-57 -174 -60 -204
q0 -29 -26 -35l-39 -2q-29 0 -38 16zM224 1638q-67 0 -105 -66q-29 -52 -29 -113q0 -29 3 -59.5t11 -71t27 -99.5q15 -51 24 -101l17 -110q3 -25 24 -36q23 -10 50 -10q29 0 47 9.5t23 36.5l84 339q0 92 -42 178q-52 103 -134 103zM552 1638q-70 0 -105 -65
q-29 -52 -29 -114q0 -30 3 -60.5t11.5 -69t26.5 -100.5q15 -54 24 -102l17 -109q3 -24 26 -37q18 -9 47 -9t47.5 9.5t23.5 36.5l84 339q0 92 -42 178q-52 103 -134 103z" />
    <glyph glyph-name="numbersign" unicode="#" horiz-adv-x="1257" 
d="M1225 971v55l3 -1l8 21l5 15l1 -64l1 -54q-57 33 -132 48q-32 6 -73 9t-78 3l-27 -194l-17 -2q0 16 3.5 40t10.5 67l15 106q93 0 159.5 -12t120.5 -37zM1225 1026q-28 8 -83 21q-36 9 -73 17q-45 8 -85 13.5t-73 5.5l-36 -280l41 4l-2 -17l-30 -3q-19 0 -29 -2l41 316
q62 0 156 -17q80 -13 158 -36l8 -2l6 18zM1224 1064q0 14 -2 29.5t-4.5 35.5t-11.5 43l34 54l-13 -36l-14 -29l11 -33l5 -33q0 -16 -5 -31zM1240 1226l3 18q0 13 -5 24l16 5q0 -25 -14 -47zM1112 1236l-135 -21l2 11l133 19q69 11 126 24q-13 -4 -47 -13.5t-79 -19.5z
M979 1226l-69 -10q6 71 31 166l41 163q-28 -6 -58 -26l-52 -36q-9 1 -35 16q-18 10 -48 10l-6 17h10l37 -18l32 -19l60 37q36 20 63 25l13 -11l-29 -113q-27 -114 -39 -191l53 8zM983 1244q20 84 21 89q10 40 17 64q5 23 11 45t14 46q-7 15 -28 34l-20 18l4 19l35 -32
q20 -22 27 -38q-37 -121 -63 -242zM783 1529l-16 -3l3 -12l-10 31l14 2q10 0 46 -15.5t42 -22.5l61 37q33 16 66 23l3 -2q-31 -9 -64 -28l-59 -37l-33 15q-18 9 -31 9zM797 1478l-8 31zM797 1478l3 -15zM800 1463q5 -28 8 -52t7 -64t4 -93v-52l-139 -6l-106 -5l1 6
q12 0 52 2t69 2l116 6l1 53l1 34v11q0 43 -4 78q0 19 -2 34.5t-8 45.5zM575 1197l-47 -1h-23l73 347q-24 -3 -57 -24q-20 -13 -30 -20q-14 -11 -20 -16l-49 19q-18 7 -35 7l-5 17h8l37 -17l36 -18l58 35q36 20 61 25l12 -9l-37 -167l-31 -163l52 1zM578 1213l30 138
q18 81 36 136l-21 30l-29 25l5 18q22 -18 36 -32.5t27 -38.5l-39 -137q-9 -37 -15.5 -68.5t-12.5 -69.5zM390 1526l-8 3l-17 -3l-6 19l14 2q10 0 29 -8q4 -2 18.5 -8.5t41.5 -20.5l45 26q47 27 79 33l5 -4q-40 -10 -66 -24q-16 -8 -58 -39l-37 17q-19 7 -40 7zM393 1488
l4 -21l-8 23l-5 19zM397 1467l12 -63q6 -33 6 -56l-1 -26q0 68 -17 145zM414 1322v-34q0 -20 2 -32v-57q-43 5 -78 13l-69 19l67 -16l75 -12zM269 1231l-41 14l-44 18l-4 -19q0 -11 7.5 -36.5t8.5 -40.5q-8 -9 -18.5 -23t-20.5 -30l-31 -57l171 28q30 5 58 8.5t46 3.5
l-5 -45l-3 -37l-17 -2l3 26l4 39q-15 0 -28 -1.5t-68 -10.5l-159 -26l-5 10q5 17 15 37q7 15 14 26q16 31 39 62q0 26 -11 54l-11 44q45 -22 100 -42zM169 1275q-6 -23 -6 -31l2 -19l3 -17l-15 47l-2 23q0 16 5 24q53 -32 115 -54l-38 13l-60 26zM128 1040l20 -37
q7 -12 11 -17.5t12 -12.5q85 19 205 40l-2 -18q-49 -6 -105 -18l-103 -22q-9 7 -23 25l-32 57zM393 1015l7 1l-32 -244q-74 8 -138 28l59 -14l70 -11l19 120zM230 800l-29 8l-32 12q6 0 10 -1t20 -7zM121 847q2 -18 5 -25l-8 -1q-2 -6 -2 -17q0 -9 1 -14l-9 29l-4 29
q0 14 7 25q73 -45 155 -66l-75 13q-35 7 -70 27zM126 822h8l-1 -26zM133 796l6 -20zM139 776l5 -16l4 -21l-31 -44l-29 -44l27 49l28 47q0 16 -4 29zM88 651l-10 -22l-4 -2q2 6 4.5 10t9.5 14zM78 629l127 22l134 17l-14 -87l-18 -2l12 70l-124 -16q-39 -5 -63.5 -9
t-48.5 -11l-6 10zM83 613l23 -40q16 -27 25 -34q26 11 68 22q41 9 108 18l-3 -17q-35 0 -94 -13l-91 -22q-3 3 -11.5 14.5t-17.5 24.5l-25 43zM325 581l13 1q-17 -106 -44 -211t-59 -192l50 200q22 99 40 202zM235 179q11 -12 20 -12q11 0 29 5l-28 -11l-24 -3l-4 2z
M228 160l4 -2l14 -5l15 -3l14 2l16 4l-31 -11l-30 -4q-14 0 -24 7l13 35l-5 -16zM284 172l21 12l22 15l21 -15l20 -12q-13 4 -19 7.5t-18 12.5l-24 -10zM368 172q17 -6 33 -6q18 0 36 5l-13 129l-3 91q0 18 2.5 61.5t2.5 60.5q0 36 5.5 86t7.5 70l170 5l140 1l-12 -73h-16
l9 55q-26 0 -78 -1t-78 -1l-119 -3l-13 -151l-4 -113q0 -50 6 -119l12 -111l-37 -7q-27 8 -51 21zM419 151l41 -9l43 -2q-13 37 -23 92q-3 26 -5 50t-2 49q0 53 10 149l13 119l114 3h103h8l-3 -17q-34 0 -102.5 -1t-103.5 -1l-18 -152l-4 -109q0 -34 1 -50.5t7 -49.5
q10 -53 29 -96q-18 -3 -61 -3q-41 0 -103 33q20 -6 39 -6q11 0 17 1zM737 602h7q-7 -48 -15 -89.5t-20 -90.5q-21 -88 -45 -166q9 30 21 80q9 38 20 87q6 29 20 111zM664 256l-13 -40l-13 -40q7 -5 20 -8l23 2q-18 -8 -46 -11l-5 2l17 44zM630 161q12 -4 18 -7l18 -4
q10 0 23 5l-28 -11l-29 -3q-14 0 -24 7l38 108l-30 -89zM681 170q12 5 22.5 11.5t25.5 17.5l40 -26q-16 6 -35 19l-26 -12zM769 173q19 -5 37 -7q18 0 34 5l-19 161q0 34 2.5 93t2.5 73q0 39 8 106q2 18 8 69q80 0 177 -14.5t150 -41.5l9 35l2 22l5 -29l3 -23l-9 -26
q-73 28 -155 43q-36 6 -81.5 11t-85.5 5l-15 -171l-4 -128q0 -60 7 -105l15 -92l-25 -6l-13 -2q-24 6 -53 22zM822 151q17 -5 37.5 -8t44.5 -3q-11 24 -19 69q-6 44 -6 103q0 65 7 148l7 132q96 0 166.5 -15t122.5 -47l6 50v42q9 24 9 50l7 -38l3 -36q0 -17 -6 -53l-8 -42
q-58 39 -127.5 55.5t-155.5 16.5q-4 -40 -6.5 -78t-2.5 -76l-5 -112q0 -44 6 -96.5t28 -86.5q-18 -3 -62 -3q-23 0 -48 8t-58 27q8 -4 19.5 -6t22.5 -2q12 0 18 1zM1180 674l-10 38l-8 32l22 41q8 18 11 45l1 -17q0 -12 -9 -36l-21 -44l10 -30zM1195 830l-1 9l-45 -9l-43 -9
l89 26l1 -10zM1106 821q-84 -22 -192 -36v5q42 5 87.5 12t104.5 19zM363 156q-15 5 -33 16l-19 -8l-20 -8q9 4 15 7.5t21 14.5l20 -13zM219 183q29 86 51 188l34 191h13q-15 -97 -39 -190.5t-59 -188.5zM65 609l-19 -5l-3 6l28 46l-7 -15l-5 -21zM46 604l22 -37
q30 -50 47 -61q86 22 179 35l-27 -128q-18 -81 -40 -155.5t-44 -114.5q18 -21 45 -21t54 10.5t46 22.5q36 -22 79 -38q44 -13 71 -13h28q17 3 25 4t18 2.5t22 5.5l-25 14q-10 23 -16.5 44t-11.5 48.5t-7 50.5t-2 50q0 48 9 135l11 106q33 0 90.5 1t81.5 1q-19 -113 -46 -217
q-36 -147 -70 -206l17 -13q13 -8 33 -8q22 0 48 10q28 9 47 23q78 -51 137 -51q60 0 97 10q-33 39 -43 101q-6 36 -6 98q0 20 2 61t2 63l10 119q76 0 148 -22q69 -18 127 -62q4 13 8.5 32.5t9 43.5t4.5 55q0 20 -1 30t-6 32l-18 73q6 10 13 24q4 9 9 23.5t7 26.5t2 29
q0 28 -15 52q-58 -22 -128 -40q-33 -7 -49 -10q-40 -8 -84 -16l11 85l10 72q85 0 157 -20q70 -16 133 -60l-21 262q19 26 31.5 54t12.5 47q0 20 -5 31q-3 13 -11 23q-54 -24 -123 -42q-19 -5 -54.5 -11.5t-72.5 -11.5l21 84l38 150q-10 32 -41 57l-48 43q-66 -18 -132 -58
l-46 22q-23 12 -44 12q-22 0 -36 -11q26 -69 36 -145q5 -34 8 -75.5t3 -84.5v-13l-63 -3l-102 -4q22 112 28 132q17 74 37 128q-17 36 -45 59q-37 30 -47 41q-30 -8 -64.5 -24t-65.5 -35l-44 23q-26 12 -47 12q-20 0 -35 -11q23 -62 35 -143q4 -33 7 -76.5t3 -82.5v-13
q-63 9 -121 35q-39 15 -111 54q-9 -13 -12.5 -23t-3.5 -24q0 -24 10 -52t13 -45l-51 -88q-8 -15 -12.5 -27.5t-7.5 -23.5l42 -75q15 -24 37 -37l73 17l121 21l-12 -80l-9 -80q-33 5 -62.5 12t-60.5 20q-56 22 -110 57l-13 -28l-5 -28q0 -12 6 -33l16 -55q-35 -54 -54 -94
q-12 -29 -12 -42q0 -8 2 -11l-4 -8zM71 656l33 56q20 36 20 53q5 -9 6 -21q-6 -8 -29 -42q-16 -24 -30 -46zM124 765l-5 13q0 8 -2 12zM266 807l79 -13q2 21 5 40.5t6 34.5l18 126h6l-16 -109l-11 -95l-47 7zM111 1037l-17 -3l20 38q-6 -9 -9 -23zM114 1072l36 63
q11 20 16.5 35t5.5 25l6 -22q-15 -18 -35 -49zM172 1195l-4 13zM271 1248l63 -15l61 -11l1 60l1 37l1 -40l1 -24v-36q-14 2 -30 4.5t-34 6.5q-33 7 -64 18zM397 1319l-6 73q-3 33 -9 62l11 -56l5 -50zM382 1454l-9 31l-13 41h5q3 -9 8 -31.5zM591 1565l10 2l-2 -7zM595 1214
l101 4q43 0 100 5q0 36 -0.5 74t-1.5 79q0 21 -2.5 38t-7.5 44q5 -28 8 -52t6 -49l4 -104v-35q-26 0 -51.5 -0.5t-51.5 -0.5q-46 0 -104 -8v5zM784 1458l-5 21zM779 1479l-9 35zM992 1567l14 4l-4 -12zM1001 1247l109 16l107 19q-53 -17 -113 -31q-52 -11 -105 -16z
M1217 1282l49 16l5 -27q0 -11 -5 -26l-10 -27l4 22q0 11 -4 24l-5 25zM1256 1218l-10 -26l-14 -31l10 -32l4 -33q0 -17 -5 -35q0 22 -1.5 36t-5 34.5t-9.5 37.5l16 25zM933 809q28 3 38 4.5t44 8t55.5 10t27.5 5.5l-83 -19l-82 -14v5zM1098 837q53 12 109 33l4 -17l2 -15
l-1 -5l-4 26l-55 -12zM1212 833l2 -21q0 -11 -9 -35l-20 -45q12 -27 12 -60l-9 35l-8 34q15 21 23.5 44.5t8.5 47.5zM762 158q-11 4 -29 15l-44 -18q23 10 40 23l16 -11zM646 256q5 18 20 77q12 47 21 87l31 165h6q-19 -105 -34 -166q-11 -49 -21 -86.5t-23 -76.5zM787 1085
q-32 0 -88 -1t-80 -1l-114 -3l-15 -118l-20 -176l39 1q9 30 17 89q15 137 19 150q28 3 55 5t56 2q17 0 58.5 -1t66.5 -1zM509 787l-5 -17l129 3l129 6l19 126l17 126h-17l-2 -17h8q0 -34 -20 -139l-13 -84q-22 -3 -56.5 -6t-64.5 -3h-107l1 5h-18zM527 787l119 4l102 5
l16 108l15 110l-45 1l-69 1l-62 -1q-8 0 -18 -0.5t-26 -4.5l-11 -93q-9 -79 -21 -130zM768 776l-80 -9l-149 -2h-36l1 5h-53q17 165 39 327l172 5l143 1l-4 -43l-3 -29l9 -1l-17 -127q-9 -74 -22 -127zM737 808l-94 -5l-92 -2l13 98q6 64 12 94l50 3l50 1l46 -1l44 -1
l-10 -70z" />
    <glyph glyph-name="dollar" unicode="$" horiz-adv-x="1291" 
d="M535 1660q0 -6 7 -23l8 -17v8v25l68 5q32 0 47 -5q18 -3 48 -15l-19 -59q-3 -14 -6 -31.5t-3 -29.5l54 -21l55 -22l27 93l-39 46l-42 44l-44 2h-41h-120zM550 1620l4 -25q3 -19 5 -21q0 17 -2 23zM559 1574l-6 -25l-4 -14l-45 -6q-32 -3 -43 -8q39 7 59.5 10t48.5 3
q0 8 -5 21zM461 1521q-125 -24 -208.5 -131.5t-83.5 -213.5t28 -177l-20 81q-6 36 -6 120q0 83 81.5 185.5t208.5 135.5zM197 999q15 -49 34 -92t43 -79q51 -77 128 -134q31 -22 117 -67l142 -74q73 -36 87.5 -51.5t23 -34t11.5 -46.5q0 52 -21.5 98t-49.5 65
q-36 24 -193 114q-123 71 -190 127q-93 80 -132 174zM783 421q-6 -55 -49 -90.5t-106 -35.5q-60 0 -116 24q33 -36 93 -36t113 25q66 32 66 95zM512 319l-5 6l-2 7q-16 67 -37 114q-12 28 -27 53t-35 49q21 -36 21 -78q0 -43 -14 -75q40 -50 99 -76zM406 548
q-19 33 -54.5 55t-86.5 22q-50 0 -90 -40t-40 -78q0 -17 1 -32t4 -26l12 -36l-5 35l-2 58q0 40 30 75.5t87 35.5q56 0 83 -14.5t61 -54.5zM152 413q1 -8 2.5 -14.5t5.5 -15.5l12 -34l6 5l-14 29zM172 349l-31 -36l-26 -41q13 23 26 36.5t35 31.5zM115 272l-14 -31
q-8 -22 -8 -41t43 -78l35 -46q21 18 53 27q34 8 81 8q52 0 120 -29q56 -24 122 -67l12 46l9 45l-125 51q-166 65 -201 65h-27t-28 -4l-43 -10l-24 16q-8 8 -10 24q0 16 5 24zM547 15l-4 -10l1 -8l-10 -54l-3 -47v-16q3 17 6 31.5t8 34.5l16 60zM561 6l-6 -42l-7 -58v-26
q0 -12 2 -18l101 1q59 0 68 6q0 22 -2.5 66.5t-2.5 58.5q0 31 -1 48t-6 58l4 8q77 0 145 30.5t130 92.5q120 122 120 305t-164 298l-306 147q-164 78 -164 177q0 97 62 140q53 36 131 36t129.5 -44.5t51.5 -91.5q0 -45 -9 -74.5t-17 -41.5l5 1l-8 -8q0 -30 49 -49
q38 -15 84 -15t75.5 33.5t29.5 77.5q0 46 -18.5 109t-18.5 98l24 42l30 53l-36 2q-17 0 -53 -12l-67 -23q-57 35 -117 62.5t-131 52.5l-1 7q0 27 6 54l18 61l-34 9l-32 3l-35 -1q-19 0 -23 -2q0 -22 9.5 -54.5t9.5 -46.5l-3 -18q-23 0 -32 -1t-66 -10
q-128 -18 -213.5 -120.5t-85.5 -239.5q0 -136 90 -244q66 -78 210 -165l235 -139q30 -20 55 -72t25 -106q0 -52 -48.5 -97.5t-120.5 -45.5t-134 29t-104 86q16 38 16 82t-38.5 88.5t-94.5 44.5q-55 0 -90 -35t-35 -74q0 -36 18 -83l29 -65l-20 -20l-2 -2l-13 -15l-8 -8
l-19 -30q-8 -14 -10 -25q0 -9 4 -13.5t7 -7t8 -4.5l38 10l51 3q31 0 126 -35q73 -26 132 -52l35 -12l54 -22l3 -3q0 -16 -10 -55q-4 -19 -8 -34.5t-6 -19.5zM531 -120l-3 -25q0 -12 5 -22.5t15 -20.5l-8 33h-7zM548 -188q15 -54 66 -69q28 -7 99 -7h65l5 17h-18l-58 -1
l-85 -3l-28 23zM711 -247h54l4 18q0 31 -29 48.5t-59 17.5h-61h-24.5t-34.5 -4q9 -57 55 -73q25 -7 95 -7zM783 -247h4l-2 9zM785 -238l2 7q-3 18 -12 35zM774 -192l-17 76q-4 21 -6 40t-2 41l144 25q129 33 210 147q76 109 76 272t-108 310q27 -48 39.5 -101.5t12.5 -158.5
q0 -109 -122 -235q-63 -65 -132 -99t-147 -34l10 -122l4 -113l-23 -7q25 -5 38.5 -14t22.5 -27zM1071 719q-24 45 -58 79q-31 34 -76 61l71 -67q42 -42 63 -73zM937 859l-3 3l13 3q-84 40 -164 69q37 -15 42 -17q17 -7 37 -18q48 -22 75 -40zM947 865l26 -12l19 4l-14 14z
M978 871q72 12 114 44q54 39 54 85q0 44 -15 96t-15 85q0 35 17 73.5t43 67.5q-10 20 -28 44l-57 63q-4 -9 -8.5 -19t-14.5 -26l-33 -56q0 -29 18 -94q9 -33 14 -60t5 -53q0 -50 -34 -88.5t-93 -38.5t-105 26zM1091 1429l4 10l-15 2zM1080 1441l-6 6l-23 -4zM1051 1443
q-18 0 -44 -5.5t-45 -13.5zM962 1424l-48 -12l5 -3zM914 1412l-58 33q-19 11 -29 15.5t-33 14.5q14 -7 19 -9q19 -9 40 -21q31 -16 55 -35zM800 1070q0 -16 14 -30l26 -20l-21 25zM992 857l25 -25l-44 21l-3 -1q112 -105 167 -210q59 -115 59 -259q0 -143 -80 -257
q-84 -120 -219 -153l-131 -22q0 -42 10 -85l30 -130h-28h-102q-37 0 -60 -4q-69 55 -81 70q-24 27 -24 52q0 23 12 71l19 73l-120 65q-70 31 -134 31q-66 0 -119 -35h-7l-53 72q-33 47 -33 77q0 29 27 75t53 62q-6 12 -10 25.5t-9 36.5t-7 44t-2 51q0 51 35 91.5t122 40.5
q86 0 158 -103q50 -76 79 -196l2 -5q27 -30 80 -30t101 21q62 27 62 67q0 41 -8 62q-6 22 -21 37q-13 15 -72 45l-40 20q-150 75 -163 83q-78 44 -134 98q-64 62 -104 149q-31 67 -51 137.5t-20 181.5q0 56 27 111t83 112q105 105 266 126l7 1q6 15 6 28q0 12 -12 40t-12 43
t13 15l171 -1h22.5t22.5 -2l47 -48q13 -14 24.5 -28.5t18.5 -24.5l-12 -44l-12 -45q24 -9 48 -24q27 -15 49 -32l84 20l84 17l67 -68q35 -39 50 -79q-26 -26 -46 -67q-17 -39 -17 -71q0 -30 15 -82t15 -100q0 -47 -53 -90q-42 -35 -118 -51zM783 934q-49 19 -82.5 34
t-57.5 28q-45 24 -77 48q40 -36 103 -66q13 -6 45 -18q65 -25 69 -26zM566 1044l-17 16q0 26 10 45.5t32 33.5l29 15l32 16q55 0 85 -4.5t48 -15.5q27 -16 24 -48l13 32q3 10 5 25t2 37q0 42 -48 81.5t-117 39.5q-70 0 -118 -32q-57 -36 -57 -91q0 -29 4 -48.5t16 -39.5
q19 -33 57 -62zM809 1102l-3 -11zM808 1092l-4 -12l15 14zM804 1080l-4 -5v-4zM713 -151q-8 2 -18.5 3t-34.5 1l-68 -1q-13 0 -21 -0.5t-30 -3.5l-1 -3l33 1l80 -2q37 0 60 5zM587 1073q0 16 18 32l56 29l73 -3q38 0 40 -18q0 -17 -4 -26.5t-6 -24.5q0 -8 57 -76l36 -42
l-143 53q-84 33 -127 76zM936 889l-87 94q-66 75 -66 88l10 33q0 32 -46 44q-24 6 -65 6q-39 0 -80 -27q-35 -25 -35 -61q57 -56 175 -103zM1086 1486l-87 -17q-28 -6 -52.5 -12t-32.5 -8l-49 30l-29 16l13 41q8 26 8 42l-2 3q-17 27 -47 57l-49 52q-6 6 -52 6h-51
q-156 0 -156 -25t10 -51l14 -39l-2 -13q-161 -16 -274 -134.5t-113 -232.5q0 -116 22 -192q18 -65 51 -136q42 -91 106 -153q53 -51 137 -100l166 -85l55 -28q43 -23 53.5 -34.5t16.5 -29.5t6 -52q0 -32 -57 -56q-22 -8 -41.5 -12t-43.5 -4q-44 0 -66 22q-12 77 -61 165
t-111 126q-19 12 -45 16.5t-79 4.5t-94 -46t-41 -120q0 -73 24 -136q-27 -22 -51.5 -65.5t-24.5 -78.5q0 -34 37 -87l57 -80h23q50 35 111 35q60 0 128 -27q26 -11 52.5 -25.5t57.5 -34.5l-31 -138q0 -31 45 -78q31 -31 74 -61q18 6 108 6h108l-42 219l117 18
q143 42 228 159t85 260q0 71 -13 136.5t-40 122.5q-51 115 -152 209q77 19 121 60q51 47 51 96q0 48 -15 100t-15 82q0 31 19 72.5t48 61.5l-26 50q-15 28 -32 45l-30 28q-34 33 -45 50z" />
    <glyph glyph-name="percent" unicode="%" horiz-adv-x="1653" 
d="M1504 424q0 -127 -81.5 -209.5t-212.5 -82.5q-130 0 -221 82.5t-91 214.5q0 133 82.5 225t189.5 92q108 0 191.5 -55.5t120.5 -134.5q10 -21 16 -60t6 -72zM1194 746q-134 0 -219 -83.5t-85 -228.5t115 -273q119 -134 238 -134t178 45q43 33 96 118l25 150q0 53 -18 112
q-13 42 -42 104q-45 93 -115 141.5t-173 48.5zM1011 1476q7 -2 13.5 -5t22.5 -12q40 -20 57 -20t28 6t15 17q8 -4 21 -17q16 -13 36 -13q21 0 77.5 12.5t74.5 12.5l38 -3q-104 -91 -192 -188t-163 -208q-80 -117 -149 -224q-90 -143 -156 -271q-78 -150 -99 -243
q6 -24 16 -39q12 -21 25 -22q13 0 26 4l23 5l20 -4l5 -4l12 -23l1 -8q0 -50 -52 -83q-44 -27 -91 -27t-90 26q-29 16 -71 54q-28 -17 -60.5 -27t-81.5 -10q-47 0 -85 32t-38 73q0 46 5 69q6 4 14 3q3 -9 12 -18l-14 1q-14 -5 -14 -40t41 -69q20 -17 40.5 -25.5t42.5 -8.5
q44 0 77 11.5t63 29.5q40 -35 70 -55q46 -29 93 -29q49 0 75 20t47 74q0 10 -4 15q-9 6 -14 6l-19 -3l-8 -4l-26 -2q-17 0 -37 27q-12 18 -21 51q19 89 99 244q64 123 160 277q79 127 149 227q53 77 105 141q39 48 102 112l123 121l-35 3q-11 0 -17 -1t-24 -7
q-46 -14 -62 -16q-13 0 -28 8l-20 8l-17 6l-20 -13q-6 -3 -20 -3q-12 0 -42 12l-44 17q0 -101 -15.5 -158.5t-42.5 -114.5q-45 -94 -183 -308q-149 -230 -276 -389q-153 -191 -191 -191q-39 0 -54 5l55 -2q42 0 205 205q128 161 283 415q63 104 108 185t71 138q31 76 31 136
q0 63 -6 99zM264 300q-11 2 -22 8t-17 13l18 -12zM213 339l-8 18l-4 6l13 12q6 -5 13 -22l9 -18q-8 5 -23 4zM200 362l-1 -26q-19 -13 -19 -34t7 -39l16 -36q32 -73 69 -113q50 -52 98 -52q49 0 82 17l56 32l74 -56q45 -30 87 -30t94 29q58 32 58 62t-33 81l-26 40
q0 14 -12 23q-13 36 -13 61l2 5q44 104 89 198t95 183q108 195 229 349q134 171 291 306l4 4q8 0 23 9q-3 11 -21 35l-25 33l-30 11l-41 5l-35 3q-16 0 -51.5 -12t-51.5 -12q-15 0 -20 8l-25 9q-12 3 -15 4.5l-7 3.5l-16 -13q-9 -6 -18 -6t-66 21l-39 14q0 -122 -15 -179
q-9 -32 -17.5 -55t-23.5 -55q-46 -96 -181 -303q-153 -236 -271 -385q-151 -190 -184 -190t-48 4q74 -7 239 195q125 158 283 415q129 211 179 322q8 17 13 34.5t9 39t6 41t2 46.5q0 50 -11 90l4 1l115 -44q12 0 24.5 6.5t20.5 16.5q5 -1 22 -18q12 -12 30 -12t74.5 12.5
t76.5 12.5q11 0 22 -1t21 -4q18 -3 36 -12l22 -28q30 -41 30 -54q0 -12 -16 -17.5t-18 -8.5q-153 -124 -289 -301q-121 -157 -228 -352q-90 -164 -181 -377l-1 -4q0 -36 42 -99t42 -100q0 -36 -64 -75q-56 -33 -102 -33q-44 0 -91 30l-75 52q-28 -19 -55 -30
q-35 -15 -91 -15q-54 0 -118.5 77.5t-64.5 130.5q0 56 5 74t18 35zM422 1504q-129 0 -221.5 -86.5t-92.5 -232.5q0 -147 110 -270q114 -128 258 -128t222 97q73 91 73 225t-102 262q-109 133 -247 133zM726 1188q0 -130 -86 -216.5t-212 -86.5q-127 0 -220 83
q-98 86 -98 215q0 130 89.5 222.5t218.5 92.5t218.5 -94t89.5 -216zM236 335l12 -8l21 -11q-21 3 -33 19zM1198 638q-58 0 -82 -77q-13 -47 -13 -112q0 -70 20 -120q26 -69 54 -69q30 0 45 7l-14 7l-10 8l-17 77q-4 23 -6 44t-2 47q0 48 11 77q17 47 67 47q6 -3 13.5 -9
t13.5 -14q-11 36 -28 57q-23 30 -52 30zM1222 267l17 -4l9 2q32 29 46 84q3 16 5 36.5t2 47.5v13q0 42 -3 64.5t-20 40.5l10 -41l4 -55q0 -36 -10 -90q-15 -84 -42 -84zM1240 281q30 29 39 77q5 28 5 59v25v26q-2 11 -2 16q0 15 -1 23t-3.5 15t-16.5 21q-12 14 -32 14
q-19 0 -32 -47q-3 -14 -5 -31.5t-2 -42.5q0 -37 1.5 -51t6.5 -39q12 -66 39 -66zM416 1393q-50 0 -78 -62q-21 -47 -21 -111q0 -62 21 -122q29 -80 63 -80q33 0 47 6q-33 9 -46 71q-8 38 -8 78q0 21 1 40t5.5 45.5t14.5 47.5l22 19q7 0 11 2l12 1q9 0 20 -7.5t21 -22.5
q-5 21 -11 34.5t-18 28.5q-24 32 -56 32zM448 1024l16 -3q8 0 16 4q21 21 33 64q4 17 6 33t2 39q0 45 -4 78q0 18 -3.5 31t-12.5 28l7 -42l3 -54q0 -33 -6.5 -76t-21.5 -78l-3 -3l-9 -5l-12 -10zM471 1040q16 18 25 53q8 37 8 90t-11.5 90.5t-37.5 37.5q-11 0 -18 -7l-8 -8
l-10 -43q-8 -38 -8 -89q0 -26 3 -47.5t11 -41.5q14 -37 41 -37zM1248 265q-8 -8 -23 -15t-50 -7q-32 0 -65 73q-24 56 -24 132q0 37 4 69t13 58q27 80 87 80t93 -69q26 -55 26 -115q0 -64 -11 -115q-15 -82 -50 -91zM497 1036l-35 -24q-17 -11 -62 -11q-43 0 -77 85
q-23 60 -23 132q0 74 26 126q32 66 90 66q56 0 89 -72q11 -25 17 -53.5t6 -58.5q0 -45 -1.5 -61.5t-6.5 -41.5q-3 -25 -8 -44t-15 -43zM467 1057q-9 0 -13 7q-15 20 -21 60l-3 79q0 41 16 82l8 7q20 0 28 -57q3 -24 3 -75q0 -47 -18 -103zM1239 299l-9 4q-21 71 -21 127
t7 79.5t24 28.5q20 -15 24 -42l1 -46q0 -38 -6 -90.5t-20 -60.5zM709 1188q0 118 -85.5 208.5t-204.5 90.5t-206.5 -81.5t-87.5 -205.5t86 -211t211 -87t206 81t81 205zM1487 424q0 136 -80 220.5t-210 84.5q-129 0 -209.5 -78t-80.5 -207q0 -128 87.5 -211.5t213.5 -83.5
t202.5 77.5t76.5 197.5zM425 1534q-150 0 -250.5 -104.5t-100.5 -262.5t128 -287t280 -129t242 108q83 101 83 251t-112 284q-117 140 -270 140zM788 1102q0 -134 -78 -230q-83 -102 -228 -102q-144 0 -266.5 124t-122.5 275q0 150 94.5 248t238.5 98t256 -136
q106 -130 106 -277zM1506 1375q0 19 -33 64l-25 33l-32 10q-31 11 -55 11q-26 0 -78.5 -12.5t-69.5 -12.5q-16 0 -32.5 15.5t-36.5 15.5q-7 -10 -16.5 -16.5t-22.5 -6.5q-12 0 -53.5 20.5t-52.5 22.5l-19 -1l-17 -1q8 -28 12.5 -56t5 -39.5t0.5 -23.5q0 -20 -1 -31t-6.5 -45
t-20.5 -67q-43 -100 -173 -311q-148 -241 -275 -407q-156 -203 -204 -203q-47 0 -59 25q-15 33 -28 40q-56 -44 -56 -127q0 -82 68 -162q72 -84 132 -84q61 0 88.5 11t58.5 30q37 -31 76 -53q48 -25 97 -25q52 0 112 38q67 43 67 86q0 46 -40.5 106.5t-43.5 94.5
q50 119 106 233q-17 -56 -17 -170t125.5 -250t243.5 -136q117 0 174.5 29.5t102.5 91.5l24 35l21 33l12 78l9 45q4 24 4 109q0 92 -110 227q-116 143 -234 143q-117 0 -185 -32t-112 -91q111 205 232 363q137 180 295 311q18 5 30 15.5t12 26.5zM1559 340q0 -26 -12.5 -76
t-12.5 -79q-26 -43 -51.5 -74.5t-52.5 -51.5q-66 -49 -188 -49q-121 0 -241 130t-120 279t87.5 246.5t231.5 97.5t255 -138q104 -130 104 -285z" />
    <glyph glyph-name="ampersand" unicode="&#x26;" horiz-adv-x="1649" 
d="M1363 41q66 0 113 41t47 106v9l-71 120q-1 15 -9 28t-22 19l-16 23l-20 -10l-16 -10q-58 0 -79 60q-13 41 -13 111q0 72 12 95q18 32 98 42q31 -17 48 -37q16 -16 32 -51q40 10 59 53q13 33 13 85q0 54 -28 101q-12 20 -30.5 40.5t-43.5 40.5q-24 42 -77 60
q-40 14 -93 14q-52 0 -129 -27l-123 -46l38 86q42 96 42 175q0 80 -68 176q-50 70 -149 151q-52 43 -116 64t-172 21q-106 0 -205 -88t-99 -192q0 -101 26.5 -163.5t75.5 -115.5q-134 -93 -203 -185q-83 -115 -83 -298q0 -182 157 -357q161 -180 319 -180q160 0 227 44
l137 92l137 -104q17 3 83 45q29 18 53 24l67 -43q36 -19 81 -19zM1452 317l1 -12q0 -67 -40 -105t-98 -38q-59 0 -121 28l-104 52l-82 -53q-26 -17 -57 -25q-44 59 -94 115q-59 -79 -145.5 -120.5t-232.5 -41.5q-144 0 -260 131q-109 124 -109 293t79 288q66 99 199 193
q-46 69 -66 119q-24 62 -24 163q0 100 98 188t236 88q140 0 248 -89q114 -93 114 -204q0 -110 -23 -172q-26 -72 -77 -114l120 -92v-1l13 -9q42 20 66.5 31t54.5 22q73 26 121 26q49 0 93 -22q17 -8 37 -21t38 -28q10 -17 16 -39.5t6 -42.5l-3 -33l-10 -31l-28 -3
q-15 0 -30 11q-31 22 -57 22q-25 0 -79 -19q-24 -8 -44 -17t-43 -23q0 -10 9.5 -31t12.5 -36l21 -169q18 -96 75 -146l30 -4h24q17 0 29 3.5t26 17.5q21 0 29 -3zM672 1114l-25 9l-21 10q-2 5 -4 22q0 15 26.5 37.5t50.5 22.5t33 -32q-12 -24 -27 -39q-12 -15 -33 -30z
M732 1183q12 21 18.5 43t6.5 53q0 35 -26 55q-12 10 -29.5 15t-44.5 5q-47 0 -83 -27q-34 -28 -34 -68t27 -76q23 -29 59 -50q5 -9 15 -17q8 -4 14.5 -4.5t13.5 -0.5q19 0 43 22t20 50zM800 553q0 -81 -39 -141q-45 -68 -99 -68q-55 0 -75 16.5t-20 86.5q0 68 39 155
q33 72 114 159q39 -30 61 -94q19 -57 19 -114zM657 855l-86 -90q-41 -47 -61 -91q-11 -25 -17 -57.5t-6 -70.5q0 -73 25.5 -122.5t91.5 -75.5l20 -9q9 -3 54 -3t91 73q39 63 39 138q0 76 -12.5 111t-52.5 85l-30 44q-31 49 -56 68zM772 558q0 -72 -29 -123q-35 -63 -75 -63
q-38 0 -51.5 12.5t-13.5 61.5q0 48 30 126.5t90 140.5q26 -23 40 -72q9 -35 9 -83zM791 557q0 62 -14 105t-55 76q-138 -135 -138 -243q0 -107 18.5 -124.5t65.5 -17.5q48 0 89 68q34 59 34 136zM662 1147l-4 3q3 7 12 15.5t19 13.5q9 0 9 -10q-17 -16 -36 -22zM715 1161
l2 21q0 16 -27 16l-8 -1q-16 -8 -27.5 -18.5t-15.5 -23.5l1 -12q3 -9 18 -15q15 0 32 10.5t25 22.5zM817 553q0 -87 -44 -152q-50 -74 -135 -74q-83 0 -130 72q-38 61 -38 143q0 83 25 140q19 44 66 97l92 97q58 -22 113 -140q51 -108 51 -183zM676 1096q-59 14 -104 56
q-49 46 -49 100t39.5 86.5t94.5 32.5t86 -25t31 -77q0 -53 -27.5 -98.5t-70.5 -74.5zM415 1019l-27 -19l-65 -44q-93 -70 -147 -165q-57 -101 -57 -251q0 -149 108 -275q113 -131 255 -131q141 0 226.5 42.5t151.5 119.5h5l46 -56l47 -57q20 0 66 34.5t66 42.5l38 -18
l63 -33q16 -7 29.5 -11.5t30.5 -9.5q33 -9 109 -9t76 74q0 73 -8.5 85t-28.5 12q-12 -12 -30 -18l-33 -4h-11h-10q-7 2 -11 2l-28 3q-67 55 -82 151l-25 185l-22 62l6 14q43 25 97.5 44t83.5 19q31 0 51 -17q20 -15 32 -16l17 1l8 43q0 78 -53 115q-44 30 -107 30
q-60 0 -113 -18l-144 -67l-75 58l-75 57v14q53 40 80 110q22 61 22 167q0 107 -108 197q-100 82 -239 82q-137 0 -232 -83.5t-95 -185.5q0 -104 28.5 -163.5t83.5 -112.5zM1217 59l4 -7q62 -47 143 -47q82 0 138.5 51.5t56.5 105.5t-58 148q-54 87 -80 113l-8 3
q-13 0 -27.5 -6.5t-26.5 -16.5q-28 4 -40 53q-6 27 -6 64v69q4 43 67 49q24 -14 39 -40l24 -51q72 10 104 56q28 42 28 96q0 57 -8 88q-7 33 -24 57q-41 62 -120.5 116t-134.5 54t-111 -15q-37 -9 -95 -31q14 34 22 57t17.5 59.5t9.5 136.5q0 102 -167 251
q-162 144 -325 144t-270 -98t-107 -238t76 -249q-122 -89 -191 -202q-73 -123 -73 -311q0 -186 167 -369t304 -183q140 0 184 10q48 9 80 26l66 48l66 45l68 -56q51 -42 68 -42q18 0 48 17l85 50l6 -4zM1411 407l21 -33l39 -56l69 -115q0 -86 -51.5 -132.5t-123.5 -46.5
q-73 0 -130 41q-3 8 -22 20q-17 -3 -62 -33t-75 -36q-19 10 -53 36l-82 66l-5 -4l-93 -66q-49 -32 -94.5 -47.5t-189.5 -15.5t-307 179q-159 174 -159 357q0 184 74 305q66 110 190 195l8 5q-84 108 -84 246t105 234q102 91 254 91q153 0 312.5 -142t159.5 -248t-22 -168
q-15 -44 -44 -103q24 9 38 13.5t82.5 25t120.5 20.5q53 0 131 -53q69 -47 110 -109q15 -23 21 -52q3 -14 5 -33t2 -43q0 -46 -20 -83q-24 -45 -80 -54q-9 26 -30 54q-24 35 -48 35q-22 0 -46 -10t-33 -31l-2 -6l-1 -20l-1 -34l-1 -52q0 -35 10 -66q17 -54 60 -54l3 2l23 12z
" />
    <glyph glyph-name="quotesingle" unicode="'" horiz-adv-x="390" 
d="M337 1493q0 49 -32 87q-30 39 -85 39q-53 0 -86 -60q-25 -48 -25 -111t21 -147q55 -215 58 -241q3 -6 18 -12l-1 20q-4 1 -8 8l-80 391q0 55 25 93q29 45 77 45t78 -36q20 -23 40 -76zM225 1602q-51 0 -79 -55q-20 -42 -20 -101q0 -58 21 -142l58 -236q13 -8 29 -8t30 21
l5 43l4 26l31 158l13 85q5 40 5 81q0 44 -21 83q-26 45 -76 45zM206 1048l2 -28l4 -6q8 -5 17 -6h20q13 0 28 5l3 6l84 337q0 24 -1.5 35.5t-6.5 33.5q-8 39 -19 68l2 -27q0 -68 -29 -193q-14 -68 -21 -113.5t-7 -80.5q-13 -20 -25 -29q-12 -7 -34 -7zM188 1060
q-9 6 -48.5 189.5t-39.5 231.5q0 46 31.5 93.5t99.5 47.5q67 0 114 -99q36 -78 36 -148q0 -68 -24 -143q-57 -174 -60 -204q0 -29 -26 -35l-39 -2q-29 0 -38 16zM224 1638q-67 0 -105 -66q-29 -52 -29 -113q0 -29 3 -59.5t11 -71t27 -99.5q15 -51 24 -101l17 -110
q3 -25 24 -36q23 -10 50 -10q29 0 47 9.5t23 36.5l84 339q0 92 -42 178q-52 103 -134 103z" />
    <glyph glyph-name="parenleft" unicode="(" horiz-adv-x="926" 
d="M678 1666q-84 0 -174 -54q-77 -46 -140 -121q-83 -98 -136 -241q-44 -119 -63.5 -260t-19.5 -303q0 -80 7 -156t22 -147q33 -162 104 -296q29 -53 60 -102.5t62 -90.5q81 -105 166 -160q102 -66 192 -66q89 0 137 64q42 57 42 130q0 72 -47 171.5t-106 130.5l-20 9
q-13 5 -21 5l-13 -2l-5 -2h-22t-20 -2l-46 -7q-63 128 -99.5 279.5t-36.5 278.5q0 136 11 219q15 118 52 208q44 106 118 159q19 -26 41 -65l36 -68l29 -13l47 -4q31 0 72 57q32 46 41 103q-43 126 -53 148q-36 89 -83 137q-58 61 -134 61zM662 1665q90 0 151 -58t61 -134
t-34 -120q-38 -50 -90 -50q-51 0 -66 34l-29 69l-25 4q-15 0 -41 -16q-19 -11 -38 -33q-84 -90 -129 -280q-36 -153 -36 -287t22 -272q27 -174 76 -291q60 -145 144 -180l33 -1q29 0 35 54.5t29 70.5q67 0 115 -59q44 -53 44 -131q0 -79 -58.5 -142.5t-125.5 -63.5
q-66 0 -110.5 15.5t-82.5 41.5q-137 92 -223 246q-71 131 -106 313q-27 147 -27 354t42 381q51 215 171 360q53 67 134 117q93 58 164 58zM867 -6q0 52 -36 108q-39 60 -87 60l-8 -1l-5 -3q-14 -14 -20 -71q0 -54 -81 -54l-7 1q-83 25 -149 179q-51 123 -81 304
q-24 147 -24 280q0 68 9 139.5t29 151.5q45 189 132 284q20 22 43 38q28 17 50 17q14 0 20 -1t15 -7q6 -9 12 -24t11 -27q15 -48 61 -48q44 0 77 45q29 40 29 109t-56 122q-28 26 -58 39t-64 13q-66 0 -104 -19q-162 -75 -261 -237q-83 -134 -122 -337q-30 -158 -30 -345
q0 -185 30 -331q34 -169 108 -295q83 -141 216 -234q37 -24 79 -39t103 -15q62 0 115.5 58t53.5 140zM677 1702q-46 0 -96.5 -16.5t-92.5 -42.5q-142 -84 -233 -245q-77 -138 -112 -328q-14 -80 -21 -159.5t-7 -174.5q0 -182 25 -328q29 -173 92 -307q54 -117 129 -216
q87 -114 185 -178q115 -74 216 -74q102 0 159 75q26 35 39 71t13 77t-11 84t-36 98q-46 101 -102 142q-24 18 -43.5 22.5t-31.5 6.5t-26 2l-39 -1q-13 0 -26 -4q-58 132 -90 264q-15 66 -23 127t-8 116q0 119 11.5 216.5t39.5 184.5q33 102 85 145l50 -95q28 -40 93 -40
t119 69q49 64 49 132q-41 133 -98 234q-45 82 -85 108q-24 17 -57 26t-67 9zM965 1322q-6 -62 -45 -118q-44 -61 -81 -61q-35 0 -53 5t-27 9.5l-13 6.5q-8 18 -18 37.5t-23 40.5l-27 44q-63 -46 -103 -151q-31 -84 -44 -190.5t-13 -227.5q0 -118 36 -262q30 -118 93 -270
q21 3 37 5t31 2q29 0 54 -7t44 -20q52 -39 96.5 -136.5t44.5 -171.5t-47 -137q-51 -68 -147 -68q-97 0 -207 73q-96 63 -180 174q-70 93 -124 209q-61 134 -91 305q-24 143 -24 319q0 179 28 331q33 186 109 323q87 158 226 240q37 22 89 41q53 16 111 16q61 0 124 -63
q48 -48 88 -143q11 -26 56 -155z" />
    <glyph glyph-name="parenright" unicode=")" horiz-adv-x="961" 
d="M395 1228q0 18 5.5 28.5t19.5 24.5q24 -6 38 -13l21 -13q57 -119 89 -276q27 -138 27 -284q0 -72 -7 -145t-22 -148q-33 -177 -94 -270l-39 -53q-27 -32 -44 -32q-18 0 -36 5q-9 23 -23 42t-30 32l-27 13q-18 7 -45 7q-29 0 -74.5 -48.5t-45.5 -104.5q0 -55 27 -109
q21 -43 75 -98q28 -28 89 -70q72 -49 129 -49t138 48q68 41 129 118q47 61 96 151q72 134 106 299q30 144 30 371t-111 499q-120 294 -330 450q-42 30 -81 48q-48 21 -114 21q-65 0 -127 -66t-62 -124q0 -57 9 -86.5t28 -55.5q33 -50 83 -103q66 -71 91 -71q26 0 39 5l26 10
q17 10 20 20zM479 1255q-30 63 -51 90q-39 54 -88 54q-47 0 -56 -65q-6 -64 -54 -64q-45 0 -85 70q-33 60 -33 134q0 73 54 133t111 60q58 0 87.5 -6.5t52.5 -18.5q161 -84 260 -248q84 -141 123 -340q15 -81 23 -168t8 -180q0 -189 -32 -340q-36 -182 -113 -316
q-86 -155 -217 -236q-32 -21 -74.5 -31t-102.5 -10q-62 0 -118 58t-56 133t30 123q35 55 69 55q16 0 30 -1t25 -4q21 -3 28 -11l-1 -13v-26q0 -13 12.5 -35.5t28.5 -22.5q13 0 19 1.5t16 6.5l26 14q74 41 125 169q39 104 60 251q15 111 15 298t-88 417l-19 46q-6 13 -15 23z
M814 690q0 197 -30 358q-36 194 -120 335q-96 160 -255 244q-7 4 -20 8.5t-35 9.5t-75 5q-51 0 -105.5 -57.5t-54.5 -123.5q0 -67 35 -121q40 -61 73 -61t40.5 64.5t63.5 64.5q54 0 90 -36q21 -21 47 -67q74 -134 111 -302q33 -150 33 -307q0 -154 -30 -307
q-34 -176 -96 -274q-41 -60 -78 -88q-32 -23 -66 -23q-33 0 -48 37q-6 15 -8.5 30t-2.5 37l-21 6q-11 3 -35 3t-63 -39.5t-39 -106.5q0 -66 51 -127.5t135 -61.5q43 0 79 9t70 29q125 77 212 232q75 135 111 313q15 77 23 155t8 162zM430 1209l3 2l-2 19l1 10q14 -4 26 -18
q5 -7 22 -49q43 -112 64 -232t21 -245q0 -126 -25 -273q-28 -174 -76 -254l-36 -53q-27 -33 -50 -33q-22 43 -57 71t-95 28t-105 -70q-39 -60 -39 -155q0 -97 101 -195q83 -82 204 -130q102 0 189 48q76 42 141 124q52 64 106 163q73 137 109 308q15 75 23 136.5t8 112.5
q0 35 -1 89.5t-1 73.5q0 67 -8 110q-40 249 -147 462q-120 240 -299 373q-50 36 -92 54q-53 22 -129 22q-74 0 -142 -73t-68 -145q0 -71 15 -114.5t38 -77.5q46 -66 85 -105q63 -63 106 -63q41 0 78 21t37 55zM416 1202q0 -21 -31.5 -37t-67.5 -16q-34 0 -95 62
q-38 40 -78 98q-49 70 -49 158q0 87 62 154.5t132 67.5t121 -22q44 -18 86 -50q174 -129 294 -369q102 -207 144 -454q2 -18 5 -51.5t3 -57.5l2 -159q0 -100 -33 -258t-105 -292q-46 -87 -99 -153q-64 -81 -134 -123q-82 -50 -173 -50h-8q-99 24 -193 124q-98 104 -98 187
q0 84 35 138q41 64 100 64q60 0 93 -45l36 -51q6 -3 24 -3t51 37q13 16 41 59q49 83 79 259q24 144 24 242q0 99 -15 219q-9 80 -21 140t-29 111q-40 125 -94 131q-11 -8 -14 -26q0 -19 5 -34z" />
    <glyph glyph-name="asterisk" unicode="*" horiz-adv-x="818" 
d="M403 855q26 20 53 70q19 37 35 83l57 -13q30 -7 42 -9q32 -7 43 -7q18 0 29 4l1 4q0 30 -54 116q-18 30 -39 57l26 49q18 35 20 50q0 13 -22 54l-30 54l-7 2q-17 14 -36 14q-20 0 -43 -4l-35 -5q-2 7 -10.5 26.5t-18.5 37.5q-37 68 -88 68l-2 -2q-33 -12 -51 -62
q-6 -17 -18 -83q-26 15 -59 23q-17 4 -28 5.5t-22 1.5q-21 0 -30 -2.5t-14 -5.5l-4 -14l-1 -27q0 -22 52 -74q29 -29 40 -47q-39 -30 -57.5 -60.5t-24.5 -80.5l4 -1q5 -25 26 -56q15 -24 38 -50l29 -1q22 0 42 10q9 4 21 13.5t19 15.5q11 -36 33 -54q22 -36 37 -56
q23 -32 47 -44zM557 1369l11 -14q0 -42 -30 -78q-15 -18 -58 -53q54 -59 65 -74q28 -44 28 -93l-24 -3l-30 -2q-19 0 -49 11t-57 28l-22 -86q-16 -51 -51 -62l-21 12q-4 7 -11 19t-9 14l-12 21q-13 37 -19 86l-47 -21q-30 -10 -46 -10l-32 3l-32 10l-1 22q0 17 45 71l38 43
l-4 6q-9 10 -21 27t-30 47q-32 58 -32 77l1 8q3 3 22 3t61 -13q36 -10 63 -22q23 68 42 111t31 47q44 -14 60 -65l16 -94l39 16q35 15 46 15l31 -2q7 0 13.5 -0.5t25.5 -4.5zM404 1117q33 -21 64 -34.5t50 -13.5h14h12q8 2 12 2q0 38 -39 88q-15 19 -64 68q39 24 64 52
q34 37 34 57q0 21 -11.5 24.5t-28.5 5.5q-13 0 -61 -19q-23 -8 -32.5 -12t-29.5 -14q-7 64 -15 95q-15 63 -47 70q-30 -21 -43 -70l-15 -85q-31 20 -64 31q-35 10 -58 10q-26 0 -30 -4l-2 -24q0 -16 40 -63l62 -65q-39 -23 -62.5 -52t-27.5 -74q20 -9 43 -9q21 0 59 15
q24 9 53 25q6 -57 15 -89q15 -56 45 -71q22 3 40 69zM699 988q0 30 -34 91q-17 32 -52 83l25 50q14 28 14 46q0 19 -25.5 71.5t-40.5 70.5q-19 5 -59 10h-32t-28 1q-23 55 -54 89q-39 42 -75 42q-35 0 -58.5 -38t-48.5 -111l-53 17q-13 3 -27 5t-27 2q-23 0 -38.5 -11.5
t-15.5 -39.5q0 -13 7 -32.5t22 -44.5l49 -74q-36 -40 -49 -59q-25 -38 -25 -68t30 -84t53 -66l18 -3l41 -1q26 0 61 22q31 -51 54 -82q44 -56 71 -56t68 62q29 44 46 87l54 -13q52 -11 74 -11q24 0 39.5 12.5t15.5 32.5zM680 987q0 -12 -10 -18.5t-29 -6.5q-17 0 -67 12
q-17 4 -37.5 8t-33.5 6q-12 -27 -20.5 -45.5t-22.5 -41.5q-37 -64 -55 -64t-50 39t-73 108q-36 -31 -85 -31l-21 1l-10 1q-27 31 -47 62q-26 41 -26 74q0 32 42 79q28 30 36 44l-51 77q-31 54 -31 74q0 21 9 27t29 6q21 0 57 -10q19 -5 32.5 -9.5t25.5 -10.5q16 56 45 112
q23 43 52 43q28 0 69 -45q35 -40 46 -87l38 2q32 0 83 -10l35 -62q21 -42 23 -60q0 -17 -11 -39q-5 -12 -13.5 -28t-18.5 -33q24 -27 54 -83q36 -65 36 -91z" />
    <glyph glyph-name="plus" unicode="+" horiz-adv-x="1145" 
d="M966 816l-61 108h-9l-139 2v161l-105 79h-16l-207 2v-242h-253v-207l1 -16l79 -105h173v-151l2 -9l108 -61l218 -2v223h211zM896 924v-205h-260v-272h-205v151l-2 121h-252v205h254v242h205v-240h121zM619 736h260v173h-260v242h-173v-242h-253v-173h253v-272h173v272z
M1002 826l-76 134h-133v145l-129 97h-269v-242h-254v-269l97 -129h157v-145l134 -76l264 -2v223h211zM983 821l2 -240h-211v-223l-240 2l-120 68v153h-167l-87 117v243h254v242h243l117 -87v-155h141z" />
    <glyph glyph-name="comma" unicode="," horiz-adv-x="519" 
d="M89 -98q106 -16 182 -16q85 0 126 14q57 18 95 71q17 25 29 56q5 14 8 42.5t3 72.5q0 86 -69 196q-78 125 -180 125q-101 0 -152.5 -51.5t-51.5 -120.5q0 -67 40 -107q30 -29 104 -53q0 -31 -10.5 -61.5t-32.5 -65.5q-34 -52 -91 -102zM468 221q0 -114 -76 -208
q-82 -100 -142 -100h-40h-31q-10 2 -14 2l-41 2l51 77q50 77 57 140q-68 12 -108.5 52t-40.5 112q0 71 54.5 115t138.5 44q85 0 141 -74q51 -66 51 -162zM100 292q0 -65 44 -102q38 -32 106 -42q0 -45 -34 -112q-24 -48 -60 -102h29l11 -4q107 0 183 94q72 89 72 190
q0 103 -53 165q-56 67 -134 67q-76 0 -120 -46t-44 -108zM269 493q-93 0 -158 -53q-68 -57 -68 -138q0 -79 37 -128q38 -46 105 -69q-6 -54 -59 -116q-43 -52 -97 -90v-23q22 -6 53 -11.5t78.5 -10t95.5 -4.5h12q45 0 77 4q20 0 34.5 2.5t29.5 7.5q64 19 111.5 86.5
t47.5 154.5q0 88 -49 198q-54 122 -136 167q-24 14 -50.5 18t-40.5 4.5t-23 0.5zM50 -109q63 50 102 100q53 66 53 127l-7 3q-67 24 -100 62q-36 42 -36 118t63 127q28 22 57 34t59 12q28 0 49.5 -1t35.5 -4q28 -3 48 -16q79 -42 129 -161q46 -109 46 -189q0 -82 -42.5 -141
t-102.5 -79q-18 -5 -63 -10l-108 -4q-69 0 -183 22z" />
    <glyph glyph-name="hyphen" unicode="-" horiz-adv-x="858" 
d="M124 1020l1 -9l-16 6q2 -14 41 -120q3 -8 9.5 -31t6.5 -36q0 -9 -7 -38.5t-22 -75.5l-23 -74q19 -29 24 -37q9 -14 26 -35q8 -10 22.5 -30.5t30.5 -39.5q95 58 172 85q30 10 63 16t64 6q65 0 157 -44q76 -36 155 -98q0 45 -48 165l-36 86l70 165l-42 71l-43 67l-14 -8
q-78 -39 -137 -56t-141 -17q-84 0 -165 20t-148 62zM125 1011q89 -38 146 -54q77 -20 154 -20q78 0 155 18.5t135 55.5q0 -30 -4.5 -50.5t-13.5 -41.5t-47 -79q34 -56 34 -91l-1 -58l-1 -33q-80 30 -156.5 48t-148.5 18q-75 0 -128 -14q-40 -9 -117 -42l10 38l9 37
q0 17 2 24q0 10 3 15q4 20 6 24l14 43q-20 34 -32.5 76.5t-18.5 85.5zM696 982q-60 -29 -123.5 -45t-135.5 -16q-35 0 -74 4t-80 13q-84 18 -149 50q1 -8 36 -91q3 -6 8 -23.5t5 -31.5q0 -20 -1.5 -30.5t-6 -33.5t-7.5 -39.5t-10 -41.5q50 23 103.5 33.5t118.5 10.5
q67 0 138.5 -14.5t146.5 -43.5l1 17l1 33q0 22 -11 53t-26 53q11 22 16 30q11 15 16 23q26 41 34 90zM864 470q0 33 -19 90q-9 28 -24.5 68t-37.5 90q5 20 41 84q27 50 27 73q0 22 -51.5 101t-64.5 93q-56 -50 -145 -75q-75 -21 -166 -21q-93 0 -161 23.5t-152 75.5
q-18 1 -22 -9l-2 -40q0 -30 12.5 -79t37.5 -98l-63 -210l136 -183q53 38 142.5 78t160.5 40t176 -57q75 -42 165 -117q4 15 7 34.5t3 38.5zM106 1052q86 -54 156.5 -76t158.5 -22q94 0 165 20q85 23 146 68q25 -32 52 -77l48 -80q-3 -31 -33.5 -84t-36.5 -84q14 -14 49 -117
q16 -49 25 -79.5t9 -41.5l-1 -29q0 -12 -2 -18q-86 70 -161 108q-98 50 -171 50q-71 0 -161 -39q-61 -28 -136 -73q-25 30 -61 80l-57 81l63 208q-24 47 -38 101t-14 104z" />
    <glyph glyph-name="period" unicode="." horiz-adv-x="527" 
d="M264 469q-71 0 -120 -46t-49 -126q0 -81 80 -168.5t152 -87.5t129 45t57 125q0 78 -74 168t-175 90zM431 301q0 -69 -50.5 -118t-118.5 -49t-117 50.5t-49 119.5t51.5 116.5t118.5 47.5t116 -52t49 -115zM414 301q0 60 -46 105.5t-105 45.5q-60 0 -105 -45t-45 -106
t44 -105.5t105 -44.5q60 0 106 45t46 105zM269 504q-91 0 -150.5 -54.5t-59.5 -152.5q0 -96 90.5 -194t178.5 -98t154.5 56t66.5 150q0 92 -81 191q-84 102 -199 102zM530 186q0 -63 -63 -114q-59 -48 -139 -48q-79 0 -164.5 93.5t-85.5 181.5q0 86 55 136t149 50
q95 0 174 -98q74 -91 74 -201z" />
    <glyph glyph-name="slash" unicode="/" horiz-adv-x="1276" 
d="M517 -233q0 89 15 166t49 158q100 244 203 452q111 227 240 436q141 230 284 405q-3 18 -8 34t-15 36l-33 65l-136 -189q-76 -109 -123 -195l-189 -346q-129 -240 -218 -430q-110 -236 -135 -358l-11 -69l-8 -82q-12 4 -23 8q-16 7 -31 15q-30 15 -48 30
q39 -45 86.5 -80.5t100.5 -55.5zM1252 1519l2 2l-3 1zM1251 1522l-3 6q-28 7 -44 7l-59 2q-19 0 -42 -1t-50 -4q-39 50 -68 80q-27 30 -40 36l-2 -36q54 -19 71 -41q37 -46 46 -54l66 9l51 4l41 -3zM943 1612l-3 -37zM940 1575q0 -33 -6 -66q-7 -29 -10 -44q-6 -33 -8 -42
q-7 -34 -18 -69l30 117q12 54 12 104zM898 1354q-43 -134 -109 -270q-50 -104 -138 -256l-148 -251l-145 -250q-30 -49 -91 -128l-96 -126q76 88 154 200q65 95 137 212l127 217l119 211q58 109 106 214q53 122 84 227zM171 73l-62 -68q15 -18 43 -27q12 -3 28 -6t30 -3
q-28 5 -43 14.5t-34 34.5zM210 -31l30 -4l38 -3q20 -33 52 -59q-17 19 -28.5 34t-25.5 37l-37 -4zM1224 1508q-16 3 -23 4t-24 1q-23 0 -68 -6l-54 -8q-15 9 -43 50q-21 29 -54 40q0 -143 -79 -344q-31 -78 -73.5 -165.5t-104.5 -197.5l-184 -314l-73 -124l-72 -125
q-14 -23 -33 -50.5t-47 -63.5q-114 -151 -138 -187q18 -24 61 -34q27 -5 72 -5q24 -38 56 -64q27 -21 74 -41l6 58q5 40 12 72q15 68 49.5 162t87.5 208q38 81 59 124q34 69 71 140q18 34 84 157l192 348q23 44 51 90t65 98q60 88 130 177zM1273 1558q-18 14 -96 14
q-75 0 -108 -3l-69 82q-40 38 -91 43q0 -202 -70 -408q-57 -165 -156 -349q-124 -226 -179.5 -320.5t-106.5 -173.5q-54 -85 -101 -150q-118 -167 -233 -283q19 -50 84 -68q20 -5 60.5 -6t51.5 -1q52 -73 124 -132q87 -71 159 -81l15 13l-4 31v59q0 41 16 111.5t45 140.5
q101 246 205 453q114 227 241 434q136 219 284 407l2 18q0 14 -28.5 83.5t-44.5 85.5zM536 -257q-74 21 -153 83.5t-115 129.5l-23 -3l-39 -2q-27 0 -64 12.5t-55 43.5q104 102 225 276q49 70 103.5 155.5t106.5 173.5q66 111 178 316q101 186 159 360q35 106 52 202t17 183
q38 -8 87 -71q29 -37 45 -52l46 2l50 2l51 -3q20 -2 30.5 -3.5t22.5 -4.5l39 -80q18 -43 28 -84q-148 -183 -286 -405q-61 -99 -121.5 -208.5t-118.5 -227.5q-102 -208 -204 -454q-35 -84 -52 -167q-12 -62 -12 -120q0 -27 3 -54z" />
    <glyph glyph-name="zero" unicode="0" horiz-adv-x="1289" 
d="M600 1549q-166 0 -290 -118q-105 -102 -165 -276q-53 -157 -53 -344t76 -373q81 -199 227 -314q163 -128 360 -128q198 0 336 125q132 120 168 297q5 27 8.5 55t5.5 45q0 9 2 72t2 117q0 140 -86 340t-251 345q-79 70 -157 110q-94 47 -183 47zM1181 807q0 -191 -44 -322
q-54 -167 -182 -262q-59 -43 -135 -71q-72 -24 -258 -24q-182 0 -334 207q-131 181 -131 415q0 121 11 214.5t36 174.5q54 178 154 279q118 121 238 121t189.5 -24t135.5 -67q162 -104 245 -276q75 -158 75 -365zM825 654v-13v-11q0 -42 -4 -73q0 -18 -3.5 -38.5t-9.5 -40.5
q-16 -55 -50 -102q-44 -63 -95 -63t-79 55q-21 42 -21 109q0 257 9 406t29 199q39 98 114 98q74 0 97 -147q4 -28 7 -91t3 -119l3 -87v-82zM645 1307q-9 0 -19 -3t-12 -4t-7 -5q-81 -48 -121 -175q-15 -52 -24.5 -114t-9.5 -134v-222q0 -110 40 -212q51 -130 136 -130
q84 0 134 63q38 51 54 142q5 29 8 60t3 58q0 17 -1 54t-1 58l-3 80q0 68 -1.5 110.5t-4.5 67.5q0 63 -12 113t-32 94q-44 99 -127 99zM674 348q-45 0 -63 46q-12 30 -12 83q0 476 30 571.5t87 95.5q68 0 68 -206l4 -137l3 -143q0 -79 -8 -122q-11 -65 -43 -121l-28 -41
q-21 -26 -38 -26zM810 664q0 23 -2 84t-2 73l-9 191q-18 151 -93 151q-72 0 -105 -151q-9 -44 -14 -97t-5 -115q0 -403 29 -441q23 -30 56 -30t58 28l34 49q33 62 45 125q4 23 6 53.5t2 79.5zM842 655q0 -92 -12 -157q-17 -94 -59 -144q-51 -63 -145 -63q-92 0 -148 135
q-43 108 -43 221v231q0 74 9.5 137t26.5 116q41 129 128 178q22 14 86 14q63 0 114 -142q19 -54 31 -129t12 -162v-235zM1164 807q0 173 -55 314q-60 151 -180 259q-77 68 -152 106q-94 46 -216 46q-123 0 -242 -116q-103 -100 -160 -270q-50 -152 -50 -381q0 -231 127 -412
q146 -208 328 -208q185 0 252 23.5t129 68.5q124 93 178 256q41 128 41 314zM582 1575q-178 0 -304 -125q-106 -105 -166 -293q-51 -162 -51 -359q0 -198 80 -389q84 -202 239 -320q170 -129 377 -129q208 0 357 134q142 127 181 317q2 14 5.5 34.5t8.5 68.5q0 8 2 78t2 132
q0 157 -109 382q-114 238 -323 372q-72 47 -147 72t-152 25zM1294 621q0 -112 -18 -207q-36 -181 -175 -306q-144 -129 -345 -129q-200 0 -366 127q-148 114 -232 314q-78 188 -78 379q0 193 49 349q57 182 160 286q120 122 245 122q124 0 195 -23.5t141 -69.5
q203 -131 317 -366q53 -109 80 -228.5t27 -247.5z" />
    <glyph glyph-name="one" unicode="1" horiz-adv-x="918" 
d="M706 552q0 33 3 74t11 104q14 121 14 202q0 44 -11 93t-36 112q-41 104 -111 207q26 -61 40 -137t14 -145q0 -73 -15.5 -212t-15.5 -215q0 -37 4 -76t13 -78q18 -77 54 -127q16 -23 53 -32l108 -2q0 -46 -11.5 -83.5t-33.5 -65.5q-47 -58 -119 -58q-70 0 -116 21t-74 58
q-25 -42 -71.5 -65.5t-108.5 -23.5q-61 0 -114 34q-61 40 -61 83q0 42 8.5 62.5t24.5 46.5q-10 -13 -17.5 -25.5t-15.5 -30.5q-13 -33 -13 -89q0 -58 87 -118q41 -27 77.5 -40t77.5 -13q77 0 114.5 22.5t75.5 73.5q50 -42 99 -68q55 -26 123 -26q67 0 110 53q38 49 38 140
q0 92 -84 130q-94 42 -106 74q-8 28 -13 63zM576 1344q-18 43 -44 77q-30 40 -64 60l56 -67zM468 1481l-10 11l-6 -2zM452 1490l-5 2l-18 -12zM429 1480q-21 -8 -55 -16l-47 -5h-19q-15 3 -23 4l-37 6l59 -14l42 -3q22 0 41.5 7t38.5 21zM248 1469l-45 9zM203 1478l-59 12
l-49 5l7 -12l51 -1q34 0 50 -4zM102 1483h-9q103 -165 158 -358q23 -87 36 -175.5t13 -167.5q0 -171 -8 -254q-12 -142 -43 -199q29 23 45 130q8 56 12 124.5t4 164.5q0 183 -53 381.5t-155 353.5zM249 329q-13 -9 -30 -11q-16 0 -27 5q6 -13 12.5 -18.5t13.5 -5.5
q6 0 16 10t15 20zM192 323l-9 18l-10 15l-18 -27l10 11q6 -5 11 -8t16 -9zM173 356l1 -1q14 -12 23 -17q9 -3 39 -3t48 178q9 90 9 259q0 167 -57 370q-60 212 -174 370l15 1q41 0 121 -18.5t119 -18.5q41 0 75 10q36 9 69 27q82 -92 141 -178q67 -99 106 -205
q21 -59 32 -108t11 -92q0 -45 -3 -91.5t-11 -109.5q-14 -121 -14 -174q0 -58 3.5 -88t10 -50.5t106.5 -66.5q85 -39 85 -141q0 -100 -43 -153q-47 -58 -118 -58t-125 25q-35 16 -98 61q-67 -88 -172 -88t-188 58q-92 63 -92 132t23 111q18 36 51 69zM813 303h-46h-25
q-12 2 -15 2q-47 6 -71 39q-37 50 -58 140q-16 75 -16 142q0 75 10 168q21 204 21 298t-34 197q-42 129 -130 183q-17 -14 -47 -26q-13 -5 -27.5 -8t-30.5 -3q-27 0 -104.5 15.5t-115.5 15.5q98 -176 145.5 -352.5t47.5 -318.5q0 -72 -1 -117t-2 -84q0 -62 -6 -107.5
t-20 -98.5q-26 -106 -57 -106q-29 0 -43 15l-16 27q-21 -30 -27 -48t-6 -56q0 -37 57 -72q48 -28 108 -28q61 0 107 28.5t64 82.5q18 -46 66.5 -73.5t114.5 -27.5q64 0 110.5 47t46.5 126zM742 551q0 50 9 136t14 155t5 121q0 103 -93 283q-40 77 -91 147.5t-115 137.5l-6 5
q-57 -26 -86 -34q-15 -3 -29 -5t-33 -2q-32 0 -116 18q-40 9 -70 14t-48 5q-37 0 -56 -4q121 -156 187 -377q60 -204 60 -389q0 -188 -15.5 -298t-36.5 -110q-19 0 -34 15q-9 9 -18 28q-42 -40 -68 -82q-30 -50 -30 -128q0 -76 99 -147q89 -63 169 -63t126.5 20t80.5 60
q49 -37 101.5 -57.5t124.5 -20.5q71 0 122.5 62.5t51.5 156.5t-55 142l-136 83q-9 26 -12 58z" />
    <glyph glyph-name="two" unicode="2" horiz-adv-x="1213" 
d="M1191 3l2 31q0 15 -24 72l-36 76q30 36 46 71q8 19 12 44t4 62q0 70 -73 153q-60 66 -160 115q205 149 205 378q0 230 -173 387q-168 153 -314 153q-144 0 -212 -28q-21 -9 -56 -28t-78 -46q-48 33 -77 47q-39 18 -88 18l7 -25l-4 -17l2 -20q26 -31 26 -65q0 -16 -4 -41
t-13 -56q-17 -65 -17 -125t88.5 -160t162.5 -100q73 0 73 62q0 31 -1 54.5t-2 45.5q0 39 44 74t80 35t57 -18t21 -72q0 -53 -156 -188q-222 -191 -289 -273q-155 -191 -155 -337q0 -145 38 -195l55 -64q22 3 56.5 27.5t50.5 25.5l18 -8l-4 4q85 -44 127 -60q77 -30 135 -30
t136 18l156 36q78 18 130 18q50 0 110 -21zM1083 1147q0 -212 -173 -351q-38 -32 -338 -195q-195 -108 -231 -231q58 45 133.5 67t160.5 22l21 -1h20q31 -19 65 -19q15 0 30 3l27 -9q18 161 118 161q98 0 138.5 -39.5t40.5 -83.5q0 -43 -21 -83t-59 -66q35 -26 55.5 -63.5
t20.5 -62.5l-1 -41l-1 -25q-28 12 -51.5 20.5t-40.5 12.5q-47 12 -102 12q-26 0 -61.5 -4t-76.5 -13l-165 -34q-83 -17 -149 -17q-36 0 -64.5 5t-60.5 18q-66 26 -106 74l-35 -41q-25 -23 -43 -23t-26.5 8.5t-14.5 25.5q0 165 59 295q49 113 152 216q71 72 222 192
q48 39 82 76q39 44 65 89l16 31q7 19 7 49q0 32 -30 89q-33 63 -65 63q-31 0 -72 -19q-104 -48 -119 -51l-5 -11l11 -50q3 -14 4 -21t1 -22q0 -21 -25 -37q-20 -12 -64 -12t-102 37q-64 41 -64 86q0 26 4 49.5t16 59.5q20 65 20 93q0 30 -15 69l-15 38q8 21 33 21
q24 0 66 -24q30 -18 57 -39l2 2l8 -6q47 44 123 75t198 31q121 0 265 -108q155 -117 155 -288zM676 458l-37 20l69 42q36 20 74 29q12 -6 21 -17.5t9 -23.5q0 -14 -5 -24l-7 -19v4l-19 -25l-10 -2q-41 11 -95 16zM738 475q-9 0 -26 6l31 18l32 11l1 -4l-6 -15l-4 -13z
M795 506q0 9 -4 14l-12 11q-21 -3 -54 -20.5t-52 -31.5l32 -16q10 -3 26 -5q13 0 28 4l24 7l8 20zM983 323q95 45 95 115q0 71 -35.5 105t-91.5 34q-55 0 -97 -46q-18 -21 -29.5 -52.5t-11.5 -68.5q-42 17 -74 22.5t-58.5 7.5t-67.5 2q-72 0 -153 -27.5t-145 -88.5
q0 38 16 74t47 74q46 56 125 104q13 8 71 41l48 28l122 67l122 66q93 69 146.5 163.5t53.5 227.5t-147 249q-138 108 -259 108t-190 -27.5t-126 -84.5l-66 43q-50 29 -65 28l-11 -2q-11 -9 -13 -21q0 -12 14 -37.5t14 -51.5q0 -25 -17.5 -84t-17.5 -102q0 -45 56 -85
q51 -36 91 -36t57.5 9t17.5 26q0 13 -1 20.5t-8 31t-7 39.5q0 18 14 26q20 3 120 51q43 20 80 20t77 -68q34 -62 34 -129q0 -69 -157 -205q-232 -201 -293 -274q-157 -192 -157 -309q0 -58 1 -91.5t5 -45.5t21 -12t54 44l25 31q37 -53 103 -83q61 -25 127 -25q33 0 71 4
t79 13l165 34q85 17 157 17q75 0 159 -37v14l1 33q0 25 -25 60q-23 35 -66 61zM287 39l135 -60q77 -33 139 -33t140 18l156 36q78 18 127 18q51 0 133 -29t97 -29l8 24q3 12 5 22t2 23q0 26 -20 75l-33 73q24 33 39.5 73t15.5 105q0 66 -57.5 150t-142.5 128q81 65 129 180
q21 53 32 121.5t11 154.5q0 170 -187 333q-181 157 -327 157q-74 0 -130 -7t-95 -22q-33 -12 -65.5 -28t-64.5 -37q-39 29 -72 42q-40 17 -65 17h-21t-21 -2q-17 0 -27 -7q2 -13 5 -23.5t13 -38t17 -54.5t7 -42q0 -29 -20.5 -100.5t-20.5 -135.5q0 -66 118 -183
q96 -96 176 -96q18 0 31 4q-134 -109 -212 -196q-92 -104 -137 -221q-48 -126 -48 -225t41 -158q33 -48 69 -81q34 0 66 21zM517 916q5 13 7 30t2 37l-3 76q0 23 33 50q34 25 54 25q21 0 32 -6.5t11 -34.5q0 -25 -30.5 -68.5t-105.5 -108.5zM1210 25l-3 -46
q-76 32 -125.5 45t-98.5 13q-48 0 -126 -18l-156 -36q-77 -18 -138 -18t-141 31q-55 20 -133 63q-7 0 -61 -36q-22 -15 -53 -19l-62 74q-37 49 -37 198q0 151 155 351q74 97 286 267q155 125 155 179t-16 67t-39 13t-39 -8t-35 -23q-40 -30 -40 -75l5 -74q0 -41 -19 -66
t-80 -25q-60 0 -160.5 101.5t-100.5 159.5q0 63 20.5 130.5t20.5 97.5q0 17 -2 31t-9 32l-29 88l18 3h30q22 0 64 -19t72 -44q61 43 131 69q39 15 91.5 22t128.5 7q143 0 319 -153q181 -158 181 -326t-47 -274q-51 -116 -142 -177q93 -46 151 -121q66 -84 66 -153
q0 -68 -15 -104q-7 -16 -18 -34.5t-26 -37.5l36 -76q21 -51 21 -79z" />
    <glyph glyph-name="three" unicode="3" horiz-adv-x="1185" 
d="M195 1504l20 -27q19 -27 19 -59q0 -31 -30 -104t-30 -133q0 -58 79 -150l132 -144l12 -16l12 -15l-35 -68l-35 -64l46 -59l46 -58q32 29 73.5 44t87.5 15q44 0 75.5 -26.5t31.5 -90.5q0 -65 -35 -141q-44 -98 -98 -98q-51 0 -92 75q-59 113 -80 138q-60 75 -132 75
q-71 0 -111 -35.5t-40 -86.5t20 -94q14 -33 44 -73l-6 -11l-11 -15q-20 -23 -38 -59q-5 -12 -14 -38q-5 -15 -9 -28l47 -65l49 -64l56 29q62 28 94 28q36 0 69 -17l55 -29q66 -33 141 -51q37 -9 84.5 -14t108.5 -5q120 0 243 108q128 113 128 248q0 70 -11 126t-36 106
q-42 83 -122 168q59 70 93 133q45 83 45 220q0 139 -155 301.5t-289 162.5q-136 0 -205 -22t-116 -59q-75 26 -149 44l-13 3l-1 -3zM214 1506q16 2 77.5 -18.5t87.5 -33.5q52 41 109.5 61t177.5 20q121 0 249 -98q140 -107 140 -244q0 -134 -54 -229q-50 -87 -137 -153
q97 -64 150 -133q65 -88 65 -211t-125.5 -244.5t-230.5 -121.5q-107 0 -185 23l-155 46q-37 11 -68 17t-54 6h-36t-43 -4q-35 -3 -57 -10q0 57 18 84l34 43l-2 3l5 10q-31 28 -47 65q-14 37 -14 122q0 86 94 86q95 0 142 -34t47 -79q0 -44 -11 -73q-3 -11 -10 -26
q-3 -6 -13 -25q19 -30 62 -43q30 -9 100 -9q69 0 125 74q52 69 52 162t-51 161q-56 73 -119 73q-64 0 -100 -10q-19 -5 -35 -11q-10 -3 -32 -12l4 35q1 14 6 25l10 20l13 22l6 13l3 4q-27 30 -36 52l-17 63l66 -28q19 -6 34 -9.5t35 -6.5q111 -3 162 56t51 141t-40 138
q-44 61 -106 61q-63 0 -108 -28t-45 -62q0 -31 12 -63.5t12 -55.5q0 -22 -30 -37q-23 -10 -71 -10t-97 37q-53 41 -53 91q0 51 28.5 114.5t28.5 89.5q0 24 -9 56zM701 1104q0 -70 -57 -123t-127 -53l-23 2q0 17 -2 33.5t-7.5 44t-8.5 54t-3 44.5q0 38 37 70.5t85 32.5
t77 -27.5t29 -77.5zM1062 492q0 98 -72 188q-57 69 -157 130q95 66 147 151q58 95 58 223t-132 239q-126 103 -273 103t-252 -93q-27 18 -64.5 30.5t-76.5 20.5l8 -36q3 -12 3 -36q0 -22 -26.5 -92.5t-26.5 -117.5q0 -45 48 -83q43 -32 84 -32q43 0 64 8t21 27
q0 17 -12 48.5t-12 69.5q0 37 53 72q48 31 117 31t119 -66q44 -61 44 -151q0 -91 -54.5 -153t-120.5 -62q-63 0 -99 9t-66 25q5 -28 16 -48q6 -10 13 -19t18 -20l-25 -42q-9 -16 -14 -50q54 24 131 24q78 0 135.5 -64t57.5 -166q0 -101 -48 -181q-56 -93 -135 -93
q-78 0 -116 13q-47 16 -68 55q18 35 24 52q12 30 12 70q0 39 -39.5 72t-94.5 33q-53 0 -88 -32q-35 -30 -35 -99q0 -66 70 -124q-7 -28 -18 -42q-38 -49 -38 -83q28 7 46 7l71 2q27 0 56 -5t71 -18l154 -46q80 -23 180 -23q103 0 222.5 116t119.5 258zM665 1105
q0 -50 -41.5 -93t-93.5 -48l-21 132q0 33 26 55t77 22q53 0 53 -68zM684 1104q0 41 -24.5 64.5t-65.5 23.5q-40 0 -72 -26.5t-32 -58.5q0 -16 3 -40t11 -64l7 -58q72 0 122.5 48t50.5 111zM1051 728q27 34 47.5 66t39.5 70t29 94.5t10 134.5q0 150 -166.5 314t-315.5 164
q-146 0 -210 -17t-114 -52q-30 12 -51 19t-42.5 12t-33 7t-22.5 2q-22 0 -33 -2q-8 0 -10.5 -0.5t-5.5 -2.5q-19 -6 -20 -22q0 -15 24 -48q25 -31 25 -56t-32 -96t-32 -121q0 -53 41 -120q30 -51 92 -119l97 -102l-72 -132q66 -81 132 -168q62 77 133 77t90.5 -24t19.5 -73
q0 -47 -33 -113q-38 -74 -72 -74q-32 0 -68 73q-46 93 -86 136q-70 73 -199 73q-130 0 -130 -124q0 -123 49 -196q-57 -68 -75 -157l61 -85q37 -52 67 -81l81 41q53 24 79 24t57 -16l48 -26q72 -35 149 -54q40 -10 89.5 -15t118.5 -5q129 0 263 119q138 123 138 264
q0 142 -43 240q-39 89 -114 171zM1189 356q0 -170 -133 -290q-128 -113 -252 -113q-126 0 -201.5 19t-143.5 53l-53 29q-30 15 -60 15q-28 0 -79 -22l-78 -39q-14 18 -22 28q-40 51 -49 63l-40 55q12 46 29.5 81t48.5 72q-24 28 -39 74.5t-15 136.5q0 91 119 91
q120 0 184 -73q28 -31 80 -136q37 -73 79 -73q43 0 88 79q38 68 38 126q0 57 -24 87t-98 30q-72 0 -139 -67l-110 140l37 67l35 67l-77 82l-74 83q-35 40 -59 87t-24 90q0 47 32 115.5t32 89.5q0 22 -18.5 61t-30.5 45q0 6 11 10t35 4q15 0 32.5 -3t50 -12.5t73.5 -26.5
q40 32 110 51.5t210 19.5q145 0 304.5 -158t159.5 -305q0 -145 -43 -230q-17 -34 -39.5 -67.5t-49.5 -64.5q72 -67 117.5 -169t45.5 -202z" />
    <glyph glyph-name="four" unicode="4" horiz-adv-x="1262" 
d="M1133 351q-8 -4 -15 -6t-17 -2l-18 8l-18 6l16 57q12 30 38 43q28 -6 49 -25.5t37 -49.5q29 4 43 33q9 18 9 61t-40 99l-65 91q-5 8 -9.5 16.5t-14.5 21.5l-32 35l-6 7l-8 11q18 136 21 157q9 69 23 159q0 74 -37 158q-31 72 -89 151q-23 33 -46.5 62t-57.5 64l-4 -2
l-89 -20q-18 -3 -27 -4t-27 -1q-25 0 -65 13l-65 19l-2 -3l-44 -144q-21 -69 -51 -121q-35 -58 -102 -116l-182 -146q-93 -85 -124 -193l-14 -56q-5 -27 -5 -66q0 -42 49 -124q33 -57 90 -123q10 2 160 58q56 21 102 21q45 0 75 -12q15 -6 30.5 -15.5t33.5 -25.5
q0 -28 -13.5 -53.5t-37.5 -48.5q-31 -30 -99 -62v-11l-3 -3l4 -23q12 -67 94.5 -155.5t133.5 -88.5q52 0 89 13.5t103 58.5l98 -48q51 -24 97 -24q45 0 86.5 35.5t56.5 87.5l-49 110l-52 113l-7 -3zM1160 612q0 -41 -42 -65l-30 8q-14 3 -42 3q-27 0 -46 -43
q-12 -29 -12 -81t14 -77q18 -35 49 -35q29 0 43.5 4.5t23.5 8.5t18 10l20 -34q10 -22 10 -66q0 -45 -50 -83q-21 -16 -48 -25t-59 -9q-64 0 -113 20.5t-78 56.5q-28 -36 -77.5 -56.5t-109.5 -20.5t-103 37t-43 107l106 78q54 47 54 88q0 44 -8 65q-6 23 -15 37
q-28 48 -87 66q-39 11 -105 11q-68 0 -116.5 -15.5t-92.5 -50.5q-59 32 -85 78.5t-26 121.5t85 179q69 83 155 141l83 49q72 52 121 179q17 47 63 211l81 -25q38 -8 88 -8q52 0 106 29q67 -61 97 -134t30 -155q0 -81 -15 -174l-41 -267q35 0 61.5 -7t52.5 -22q45 -24 75 -81
l6 -26zM332 771l100 18h15.5t26.5 -4l46 -7q-13 6 -22 15q-7 11 -7 27q0 17 54 66t86 43v35v25q-2 16 -2 23q0 33 -6 66q-32 -43 -96 -104l-104 -97q-58 -57 -91 -106zM520 778l49 -17q14 -3 25 -5t22 -2q20 0 32 19v21v76v12q0 35 -2 43l-15 4v-17l7 -45l4 -42
q0 -19 -3 -31l-7 -15v-20l-71 13zM632 779l-1 107v26l-15 3l-6 -1q-21 -11 -60.5 -48.5t-41.5 -52.5l6 -12q3 -1 13 -6q25 -11 34 -14q30 -8 48 -10q15 0 23 8zM648 773v-34l-112 22q-60 11 -90 11q-35 0 -71 -11q-35 -8 -53 -10q-13 0 -16 6q0 17 52 72q57 62 131 127
q42 39 75 78q40 47 64 86q17 -31 17 -91l2 -91q0 -27 9 -81l3 -33l-3 -28q-3 -16 -8 -23zM615 895l7 -42l1 -22l-1 -26q0 -12 -8 -15l-83 22l-2 2q9 18 39 44zM819 238q18 -43 75 -70q49 -23 109 -23q59 0 102.5 31.5t43.5 71.5t-4 52l-9 25q-37 -20 -81 -20q-42 0 -66 40
q-18 30 -18 99t28 103q23 28 49 28q29 0 44 -5l25 -5q26 17 26 72q0 53 -63 92q-26 15 -58 23t-77 8l57 444q0 84 -27 156.5t-83 126.5q-27 -14 -57 -20.5t-63 -6.5q-26 0 -38 1.5t-37.5 6.5t-40.5 9t-30 11l-43 -142q-21 -70 -50 -116q-36 -57 -102 -114l-194 -160
q-110 -107 -110 -191t19.5 -122t72.5 -72q36 33 92 48t134 15q80 0 126 -23q40 -19 65 -62q2 -4 8 -18t9 -24q9 -26 9 -69q0 -42 -51 -90l-109 -76q0 -68 40 -99q37 -28 94 -28t109 24.5t74 68.5zM1108 380q5 24 17 38q16 -6 30 -26l13 -17q14 -18 18 -30q59 0 85 38
q22 33 22 96q0 64 -93 187l-81 101l28 154q15 87 15 150q0 60 -15 110q-27 82 -103 200q-81 125 -143 166l-150 -30q-24 0 -56 11q-65 21 -83 23q-15 0 -20 -2q-10 -24 -41 -140q-24 -96 -49 -145q-36 -74 -90 -115l-39 -24l-40 -22q-103 -55 -188.5 -179.5t-85.5 -214.5
q0 -87 55 -187q50 -92 104 -138q37 0 131 40t133 40q45 0 70 -8q28 -6 46 -23q-6 -46 -79 -93t-73 -100q0 -51 99.5 -162.5t165.5 -111.5q64 0 107 17t91 49l93 -44q24 -10 49.5 -16t51.5 -6q50 0 114 51t64 91q0 41 -56 147q-20 40 -38 72.5t-35 59.5l-2 4q-13 0 -24 -4
l-16 -7h-2zM1274 469q0 -45 -18 -73t-60 -32l-31 46q-20 24 -43 29q-16 -9 -24 -29q-4 -10 -6 -16.5t-7 -25.5l23 -8q11 3 16 5l16 7q33 -51 66 -120l56 -125q-15 -59 -62.5 -100.5t-100.5 -41.5q-52 0 -126 36l-66 34q-21 -25 -81.5 -47.5t-116.5 -22.5q-57 0 -150 106
q-46 53 -70 98t-24 84q69 48 110.5 83.5t41.5 83.5q-24 24 -52 33.5t-77 9.5q-48 0 -133.5 -37t-127.5 -43q-30 35 -56 70q-22 30 -42 62q-51 86 -51 172t84 209q78 114 180 170l81 48q49 35 88 111q30 57 57 147l39 139q25 0 69 -17q9 -3 32.5 -9.5t38.5 -6.5q11 0 24.5 1
t33 4.5t44.5 9.5q30 9 47 13q95 -84 166 -206q81 -138 81 -215q0 -40 -3 -75t-11 -75q-29 -156 -29 -176t45 -76q58 -71 84 -112q45 -72 45 -122z" />
    <glyph glyph-name="five" unicode="5" horiz-adv-x="1145" 
d="M731 1062v43q94 41 144 97t86 155l10 29q4 14 4.5 22t0.5 12q0 18 -39 60q-21 22 -58 52l-5 -2l-120 -43q-83 -26 -129 -26q-24 0 -62 9t-92 28q-106 38 -153 38q-49 0 -115 -25t-69 -57l10 -15q2 -10 7.5 -27t23 -64t17.5 -88t-26.5 -142.5t-26.5 -158.5q0 -58 29 -107
q23 -39 75 -85l4 3q28 -23 64 -46l69 -37q31 41 72 66.5t107 25.5q67 0 107 -71q30 -54 30 -147q0 -90 -42 -168q-50 -92 -133 -92h-5l-130 168q-60 80 -69 87q-41 39 -100 39t-96.5 -37t-37.5 -99t37 -114l8 -4l21 -27l-24 -55q-24 -56 -30 -95q37 -57 88 -128
q26 23 58.5 36.5t63.5 13.5l221 -71q50 -15 108.5 -23t127.5 -8q136 0 265 157q119 146 119 318q0 171 -60 281q-50 91 -153 179q-34 29 -83 63.5t-119 79.5zM495 1235v-5l-18 -12l12 -6q-24 0 -60 6l-49 8q-12 -47 -18 -80q-9 -48 -9 -81l1 -8q41 18 97 29q24 4 71.5 7
t109.5 3q130 0 269 -170q130 -160 130 -361q0 -200 -116.5 -327t-240.5 -127q-125 0 -195 15.5t-128 39.5l-48 21q-36 14 -59 14q-21 0 -62 -12q-28 -8 -70 -28q0 33 3 56t11 41l25 53l-2 3l2 5q0 7 -8 12l-15 10q-17 26 -27 55.5t-10 60.5q0 60 36 97t91 37t100.5 -39.5
t45.5 -76.5t-10 -63q-4 -13 -9 -25t-11 -24q13 -23 73 -43.5t83 -20.5l38 1q85 0 137 93q43 81 43 147q0 67 -9.5 99.5t-30.5 70.5q-47 86 -78 115q-49 46 -114 46q-64 0 -128 -37l-101 -64q-43 37 -69 80q-29 50 -29 100q0 53 22.5 156.5t22.5 151.5q0 51 -13 97
q-12 48 -37 84l-2 21q27 35 74 52.5t100 17.5q52 0 156.5 -35.5t159.5 -35.5q30 0 58.5 5t65.5 18q36 11 118 48l11 -23q9 -17 9 -30q0 -10 -1.5 -16.5t-6.5 -23.5q-6 -27 -6 -43q-36 -102 -161 -148q-94 -35 -224 -35v17q119 0 214 33q121 42 154 137l3 20q0 14 4 26l7 32
q0 8 -4 17l-7 17q-34 -18 -116.5 -42t-127.5 -24t-151.5 37.5t-157.5 37.5t-86 -19l-68 -46q2 -8 8.5 -28.5t25 -72t18.5 -95.5q0 -47 -27.5 -145t-27.5 -148q0 -49 25 -102t64 -75q25 12 77 46q80 54 170 54q89 0 160 -108q61 -95 61 -212q0 -116 -51 -196
q-57 -90 -133 -90q-75 0 -137.5 23t-76.5 59q6 10 13 24q4 9 11.5 29t7.5 57q0 35 -39.5 69.5t-90.5 34.5q-27 0 -47 -7.5t-38 -24.5q-32 -30 -32 -81q0 -47 21 -85l47 -61l-28 -68q-11 -31 -11 -64q24 11 61 21t57 10q21 0 60 -15l51 -21q56 -23 125.5 -38.5t187.5 -15.5
q119 0 231 122.5t112 314.5q0 194 -125 349q-132 165 -294 165q-160 0 -256 -48q-3 17 -3 45q0 29 10 80l21 89l71 -13q9 -1 25 -2t29 -1l-4 2zM495 1247v-17v17zM769 1082q85 39 142 107q53 62 85 156l14 51l2 32q0 23 -50 77q-35 38 -77 70q-84 -42 -156 -64
q-58 -16 -102 -16q-48 0 -152 35.5t-165 35.5q-59 0 -128 -27q-85 -33 -85 -87q10 -17 21 -40q8 -16 20 -45q18 -45 18 -98q0 -52 -21.5 -157.5t-21.5 -185.5q0 -79 93 -168q72 -67 186 -116q27 43 61 70q42 31 97 31t92 -58q30 -48 30 -121q0 -71 -33 -143
q-39 -85 -105 -85l-64 86q-63 84 -105 129q-59 65 -89.5 70.5t-78.5 5.5q-50 0 -96 -46t-46 -125q0 -78 54 -150q-8 -17 -17 -37t-15 -37q-18 -48 -18 -65q0 -16 35 -66l84 -119q25 28 59 48t68 20q109 -37 218 -70q51 -16 111.5 -24t135.5 -8q144 0 283 167
q129 156 129 364q0 209 -125 367q-101 127 -288 236zM1163 500q0 -221 -124 -372q-132 -161 -275 -161q-144 0 -246 32l-213 70q-34 0 -65.5 -15.5t-58.5 -42.5l-53 74l-50 74q0 23 21 77q15 41 33 73q-26 21 -42 68t-16 97q0 52 41 93t85 41q47 0 70 -5q26 -3 87 -73
q46 -52 106 -130l62 -83q83 0 129 89q37 74 37 154q0 82 -36 138q-43 64 -103 64q-61 0 -102 -29q-34 -24 -65 -68q-106 50 -169 110q-84 81 -84 153q0 71 21 178q10 49 16 91.5t6 67.5q0 52 -14.5 99t-43.5 84q0 23 18.5 41.5t59.5 34.5q63 23 118 23t159.5 -35.5
t159.5 -35.5q56 0 128 25q37 13 122 51l68 -61q43 -46 43 -102q0 -57 -81 -165t-164 -130v-22q125 -76 203 -145q98 -86 152 -185q60 -111 60 -242z" />
    <glyph glyph-name="six" unicode="6" horiz-adv-x="1227" 
d="M727 967q-19 0 -40.5 -1t-43.5 -4q-23 0 -43 -3q-2 0 -44 -9q0 149 21 206q35 90 97 90q64 0 81 -10q19 -9 36 -31l1 -5q0 -37 -10 -70l-4 -19q64 -71 108 -98q20 -11 43.5 -17t50.5 -6q51 0 92 33.5t41 80.5q0 46 -20.5 119t-20.5 101q0 31 4 43q3 4 8 14t5 20
q0 19 -44 70l-32 39l-33 -2q-36 0 -72 -16l-71 -29q-38 41 -92.5 63.5t-116.5 22.5q-34 0 -63.5 -5t-66.5 -18q-66 -22 -126 -63q-148 -99 -222 -282q-63 -158 -63 -370q0 -213 89 -403q99 -216 280 -310q80 -42 185 -61q47 -8 96.5 -12t116.5 -4q126 0 243 132
q113 128 113 301t-141 340q-147 173 -342 173zM1093 563q0 -186 -118.5 -310.5t-351.5 -124.5q-231 0 -389 206q-141 185 -141 434q0 248 66 413q77 192 237 290q54 34 112.5 52t148.5 18q89 0 175 -81l5 3q23 14 68 27.5t75 17.5l9 -19l3 -22q0 -13 -10 -40t-10 -48
q0 -23 19 -84q10 -31 15 -54t5 -44q0 -37 -20 -66q-15 -22 -52 -49h-23h-33q-16 0 -25 1t-26 6q-38 10 -50 40l4 10q2 3 3 7.5t1 14.5l2 39q0 47 -31 83.5t-91 36.5q-58 0 -125.5 -69.5t-76.5 -145.5l-2 -28v-39l2 -69q0 -36 5 -86q48 42 114.5 63t185.5 21q120 0 223 -121
q97 -115 97 -283zM637 795q-78 0 -120 -106q-30 -78 -30 -166t31 -144q38 -70 115 -70q78 0 129 69q22 31 34 61.5t12 62.5q0 66 -8 97q-7 34 -27 58q-19 56 -49 92q-38 46 -87 46zM554 452q0 80 37 150q44 84 100 84t82 -29q21 -63 21 -139t-40 -138q-45 -71 -110 -71
q-62 0 -80 53q-10 33 -10 90zM626 344q-23 0 -32 46q-2 15 -3 29t-1 45q0 52 27 112q33 74 81 74t64 -46q10 -32 10 -89q0 -59 -37 -112q-41 -59 -109 -59zM791 526q0 76 -22.5 109.5t-74.5 33.5q-51 0 -91 -80q-32 -64 -32 -133q0 -36 3 -60t11 -40q14 -31 66 -31
q50 0 98 64q42 57 42 137zM811 526q0 -91 -44 -158q-51 -77 -135 -77q-82 0 -127 76q-35 61 -35 156q0 96 34 179q45 110 131 110q85 0 136 -106q40 -86 40 -180zM1076 563q0 150 -87 264q-93 123 -213 123q-116 0 -185 -21q-81 -25 -132 -84l-7 109l-3 130q0 73 65 159
q71 94 146 94t112 -43t37 -85q0 -41 -9 -77q9 -16 32 -26q22 -8 67 -8q44 0 69.5 27.5t25.5 66.5q0 23 -4 44t-16 57q-19 65 -19 86q0 24 9 49t11 41q0 14 -6 22q-31 0 -73 -18q-28 -13 -61 -33q-78 92 -173 92q-97 0 -159 -22t-122 -62q-144 -96 -216 -276
q-29 -75 -45 -175t-16 -219q0 -240 138 -426q153 -207 380 -207t340.5 119.5t113.5 298.5zM710 1003l-60 -3l-58 -7q0 101 15 142q26 75 78 75t71 -19q0 -13 -1.5 -19.5t-6.5 -24.5l-7 -48l2 -3q72 -84 130 -116q49 -26 111 -26q63 0 114 45t51 99q0 56 -20 126.5t-20 95.5
q0 28 2 33q14 23 14 49q0 27 -37 74l-55 70q-50 0 -100 -11.5t-95 -31.5q-41 35 -96 54.5t-115 19.5q-35 0 -62.5 -4t-64.5 -16q-63 -18 -122 -55q-167 -101 -251 -304q-70 -173 -70 -398q0 -227 92 -420q102 -214 290 -314q83 -43 193 -64q96 -17 228 -17q135 0 263 143
q123 138 123 331q0 192 -156 366q-161 178 -380 178zM1227 428q0 -154 -118 -287q-122 -137 -251 -137q-64 0 -119.5 4t-102.5 13q-108 20 -188 62q-183 96 -283 308q-89 190 -89 409q0 221 68 388q80 197 243 297q57 36 118 54q31 9 61 14t63 5q65 0 111 -20q40 -16 95 -58
q24 18 86 33q31 8 54.5 11t46.5 3l50 -63q15 -20 24.5 -36.5t9.5 -24.5q0 -17 -8 -37t-8 -45q0 -28 20 -98q10 -37 15 -66t5 -56q0 -48 -46 -88t-111 -40q-62 0 -121 42q-30 23 -92 91l10 38l5 45q0 21 -26 30.5t-77 9.5q-52 0 -83 -91q-16 -51 -16 -168q70 14 208 14
q141 0 296 -173q150 -168 150 -383z" />
    <glyph glyph-name="seven" unicode="7" horiz-adv-x="1195" 
d="M96 1499l-6 7zM90 1506l2 2l-3 4h9l12 7l17 1l25 1q15 0 59.5 -16t65.5 -35q46 29 85 49q58 28 104 28q50 0 126 -16q52 -10 81 -15.5t74 -16.5q78 -15 125 -15q48 0 99 24q16 7 26 12q23 12 50 29l78 -112q41 -66 63 -122q12 -31 19 -71.5t7 -82.5q0 -84 -85 -250
l-157 -292q-41 -86 -63 -155t-22 -116q0 -96 19 -157l75 -181l-56 -2q-51 0 -122 28q-48 18 -135 72l-5 2l-7 5l-134 -69q-60 -32 -112 -36q-28 30 -46 53q-46 61 -46 98q0 36 6 80l12 71q15 92 36 167t50 136q48 105 143 212q17 19 46 49q33 34 70 71q28 28 96 94l-24 17
q-7 3 -23 5q-15 0 -32 -4q-41 -9 -56 -9q-14 0 -56 9l-106 24l1 -50q0 -34 -33 -79q-37 -49 -118 -49q-80 0 -157 111q-68 100 -68 168q0 71 11.5 120.5t11.5 79.5q0 29 -14 57.5t-38 49.5q0 8 14 15l-5 4zM955 25q-17 33 -32 68t-27 70q-26 81 -26 180q0 102 85 279
l157 293q85 165 85 250q0 84 -33 164q-26 61 -74 131q24 -47 37 -101q5 -23 9 -64.5t4 -85.5q0 -95 -93 -278l-173 -299q-93 -167 -93 -242q0 -81 11 -153l14 -100q-79 9 -128 38q-24 14 -104 79q-61 -58 -107 -81q-62 -31 -128 -31q7 -26 33 -61q16 -24 45 -53q53 5 123 47
q78 46 118 59l11 -7h-6l15 -5l28 -18l25 -17q50 -28 109 -47q56 -15 115 -15zM1090 1460l-14 26l-24 41l-7 -4zM1045 1523l-2 3l-43 -23l-45 -20q23 5 45 15q11 5 21.5 10.5t23.5 14.5zM955 1483q-18 -4 -36.5 -6t-46.5 -2t-57 4t-82 16q-99 21 -163.5 32t-96.5 11
q-60 0 -116 -33l-65 -45l78 44q54 26 99 26q47 0 123 -16q52 -10 81 -15.5t74 -16.5q78 -15 117 -15q16 0 29 0.5t27 3.5t35 12zM292 1460l-13 -8zM279 1452q-34 35 -84 48q-27 6 -97 12l-6 -4l9 -14l14 8l37 2q23 0 60 -17q23 -10 65 -37zM101 1494q14 -18 25 -41
q12 -20 16 -41q-3 23 -15 44zM142 1412l2 -20zM144 1392v-5v5zM144 1387l-30 -191q0 -38 9.5 -69t32.5 -53q-34 71 -34 123q0 58 11.5 107.5t11.5 79.5zM156 1074q27 -52 81 -100q61 -52 114 -52t82.5 39t29.5 143l120 -28q42 -9 61 -9q17 0 37.5 5t30 6.5t19.5 1.5
q18 0 30.5 -6.5t29.5 -23.5q36 45 62 95t33 101l-136 -49q-32 -11 -64 -18t-56 -7q-49 0 -108 21l-117 43q-22 0 -29.5 -12t-7.5 -34q0 -23 10 -36q6 -10 28 -24q-27 -50 -60 -71.5t-74 -21.5q-40 0 -67.5 9t-48.5 28zM791 1050l-24 -29l-14 -15q-182 -188 -236 -257
q-95 -120 -139 -252q-23 -71 -35 -160t-12 -195h8l-4 33q0 26 2 38l16 96q25 158 78 283q62 149 160 243l210 206zM905 1270q0 -127 -146 -281q-217 -228 -267 -304q-144 -222 -144 -526q64 0 127 39q44 28 98 79l73 -61q59 -44 140 -59l-22 198q0 110 93 281l173 299
q93 179 93 281q0 101 -21 169q-10 35 -23 62.5t-33 55.5q-26 -21 -72 -33t-98 -12q-54 0 -148.5 20.5t-157.5 31.5t-94 11q-60 0 -107 -31l-93 -60q-26 32 -67 47t-86 15q17 -20 28 -49q5 -12 8 -26.5t3 -29.5q0 -30 -15.5 -93t-15.5 -114q0 -50 32 -88t85 -38
q54 0 84.5 17.5t51.5 53.5q-33 21 -33 58q0 35 12 52.5t35 17.5q14 0 36 -7t64 -25q76 -32 129 -32q54 0 140 31q34 12 65.5 23t72.5 27zM1052 1574l-80 -44q-53 -27 -100 -27q-45 0 -125 15q-39 7 -74 14t-82 18q-82 16 -127 16q-25 0 -50 -6t-54 -20.5t-43 -22.5
q-25 -16 -39 -24q-34 21 -71 34t-67 13q-32 0 -57.5 -14t-25.5 -38q22 -21 37 -48t15 -52q0 -26 -16 -102q-3 -17 -5 -42.5t-2 -62.5q0 -71 74 -178q81 -117 170 -117q88 0 131 55q39 51 39 119l151 -29q11 0 37 6l39 7q15 0 22 -4l-69 -68l-114 -111q-103 -100 -168 -252
q-54 -127 -81 -294l-12 -73q-6 -42 -6 -80q0 -35 36 -91q25 -39 68 -80q65 0 161 56q17 10 40 22q31 16 50 25l4 -2q79 -53 141 -76q72 -27 124 -27h13q42 0 53 3.5t13 12.5q0 8 -4 13l-5 11q-38 71 -60 136q-27 80 -27 177q0 99 85 273l157 291q85 167 85 256q0 91 -29 164
q-20 55 -69 128z" />
    <glyph glyph-name="eight" unicode="8" horiz-adv-x="1190" 
d="M112 1150q0 -97 47.5 -187.5t127.5 -145.5q-77 -34 -141.5 -125.5t-64.5 -244.5t203 -317q192 -154 396 -154t348.5 130t144.5 269q0 141 -59 259q-44 91 -122 191q69 51 99.5 107.5t30.5 195.5q0 137 -156 285t-348 148t-341 -107q-165 -119 -165 -304zM635 1557
q159 0 279.5 -114.5t120.5 -235.5t-37 -187t-105 -113q100 -77 154 -180t54 -255q0 -151 -150 -264q-136 -101 -328 -101q-96 0 -184 25t-169 76q-183 114 -183 259q0 144 63 222q49 61 151 118l-14 10l4 1q-87 67 -130 149t-43 230q0 150 167 262q146 98 350 98zM800 1137
q0 -48 -22 -84.5t-64 -66.5q-102 32 -119 41q-32 15 -64 42q6 71 49.5 108.5t94.5 37.5t79.5 -9.5t42.5 -32.5zM797 1173q-13 71 -79 116q-59 39 -129 39q-68 0 -123 -45t-55 -96q0 -50 36 -88q28 -29 74 -50l29 -9l30 -9l127 -54q48 27 74.5 64.5t26.5 74.5q0 38 -11 57z
M480 738q-67 -48 -106 -100q-47 -64 -47 -145q0 -79 72 -136q18 -27 58 -43q33 -12 92 -12q61 0 126 34q80 41 80 83q0 43 -4 55l-5 19q-24 109 -90 166q-57 49 -176 79zM399 357l-10 26q-3 15 -3 57q0 41 60 107q28 29 118 95q104 -39 148 -92q37 -43 37 -104
q0 -60 -63 -102q-54 -36 -114 -36q-57 0 -98 12t-75 37zM530 338q-47 0 -72 14q-36 18 -36 73q0 54 73 120l75 57q54 -21 96 -57q53 -45 53 -97q0 -49 -71 -83q-57 -27 -118 -27zM738 451q0 59 -60 109q-39 33 -111 63q-94 -73 -109 -88q-27 -28 -41 -57t-14 -58
q0 -57 40 -82q33 -19 93 -19q63 0 126 32q76 38 76 100zM705 1017l-72 28q-39 15 -65 38q0 43 40 69.5t84 26.5q43 0 64 -15q16 -13 16 -61q0 -47 -67 -86zM791 1130q0 36 -28.5 52t-75.5 16q-48 0 -93 -33t-45 -89q12 -14 35 -28l39 -22l44 -13q8 -3 17 -6t22 -11
q38 18 61.5 55t23.5 79zM476 756q134 -32 205 -97q85 -79 85 -182t-66 -148q-58 -38 -151 -38t-163 55q-76 59 -76 146t52 157q40 53 114 107zM817 1137q0 -52 -26 -94.5t-74 -75.5q-214 72 -248 94q-75 48 -75 117q0 68 59 117.5t141 49.5q83 0 151 -55q72 -59 72 -153z
M1084 500q0 126 -56 227.5t-163 178.5q71 48 113 113q40 68 40 186q0 120 -122 232q-118 107 -290 107q-171 0 -317 -103q-160 -115 -160 -255q0 -141 55 -229q48 -78 143 -145q-83 -19 -156 -113t-73 -229q0 -132 182 -247q158 -99 343 -99q186 0 317 97q144 105 144 279z
M1043 818q59 45 87 112.5t28 206.5q0 140 -161 298t-372 158q-210 0 -367 -109q-176 -123 -176 -275t40.5 -247t111.5 -151q-81 -48 -132 -129.5t-51 -245.5q0 -162 211 -334q200 -162 419 -162q220 0 372 140q156 143 156 288q0 147 -53 262q-41 91 -113 188zM1190 416
q0 -185 -149.5 -321t-361.5 -136q-209 0 -404 156q-205 166 -205 328q0 161 57 244q52 75 142 121q-80 59 -124 151t-44 243q0 153 172 270q150 102 353 102q202 0 357.5 -153t155.5 -288q0 -136 -29 -201q-33 -76 -94 -110q72 -96 118 -191q28 -59 42 -112.5t14 -102.5z
" />
    <glyph glyph-name="nine" unicode="9" horiz-adv-x="1250" 
d="M304 38l57 37q35 18 62 18q28 0 154 -43q63 -21 122 -32t115 -11q111 0 228 114q100 99 157 265q50 148 50 323t-79 364q-84 201 -228 321q-160 134 -356 134q-195 0 -344 -133q-153 -137 -153 -295q0 -157 71 -296.5t174 -210.5q-48 -34 -70 -57q-33 -36 -33 -74
q0 -35 12 -62q24 -51 26 -70q0 -16 -18.5 -72.5t-21.5 -85.5q21 -45 35 -68q23 -42 40 -66zM1164 823q0 -143 -42 -293q-48 -172 -139 -278q-107 -124 -222 -124q-61 0 -108 5t-94 18q-86 22 -160 63q-83 -20 -152 -43l27 160q0 25 -21.5 69t-21.5 75q0 30 47.5 69.5
t91.5 39.5q45 0 72 -21t42 -54.5t15 -73.5t-17 -73q33 -40 84 -54q32 -8 101 -8q63 45 94 119q27 65 27 125v15v12q0 20 -1 38t-4 32q-5 40 -13 73q-53 -29 -112 -46q-59 -14 -181 -14q-124 0 -253 119q-132 122 -132 304t151 317q147 130 377 130t395 -217
q149 -197 149 -484zM442 563l134 -12l67 -1q44 0 61 4.5t33.5 11.5t47.5 24l-48 -201q-30 -86 -71 -86q-40 0 -52 4l-18 8q-51 25 -51 76v48q0 12 -1 16q-6 31 -58 74zM612 1299q-71 0 -117 -83q-39 -69 -39 -146q0 -76 34 -129q39 -62 112 -62t119 71q38 61 38 124
q0 65 -8 86q-6 22 -22 36q-16 44 -44 71q-32 32 -73 32zM620 882q-40 0 -62 28q-20 28 -20 82q0 55 43 132q48 87 90 87q41 0 58 -15q24 -60 24 -118q0 -57 -41 -123q-46 -73 -92 -73zM622 917q-27 0 -38 17q-10 20 -10 57q0 39 34 107q38 77 70 77q31 0 40 -33q5 -22 5 -60
q0 -40 -26 -98q-30 -67 -75 -67zM742 1092q0 54 -14.5 78t-52.5 24q-37 0 -81 -83q-39 -74 -39 -121q0 -46 16.5 -69t60.5 -23q43 0 80 73q30 60 30 121zM770 1073q0 -70 -50 -138q-55 -73 -126 -73q-73 0 -117 68q-38 58 -38 141t44 158q51 87 128 87q75 0 122 -87
q37 -74 37 -156zM656 336q-69 0 -77 78q0 37 -7.5 63t-20.5 40l81 -3q38 0 61 3l38 7l-21 -102q-15 -57 -54 -86zM759 558q-31 -15 -56 -21l-57 -4l-80 3l-71 5q67 -52 67 -123q0 -67 41 -88q28 -13 58 -13l3 2q48 33 69 109q7 39 14.5 77.5t11.5 52.5zM1147 823
q0 273 -143 470q-159 218 -383 218q-222 0 -365 -125q-147 -129 -147 -308q0 -177 127 -294q124 -113 244 -113q121 0 185.5 18t114.5 52q12 -42 18 -87q3 -23 5 -51.5t2 -65.5q0 -72 -42 -153q-52 -100 -150 -100q-95 0 -152 76q21 33 21 79q0 44 -29 86t-77 42
q-47 0 -87.5 -36.5t-40.5 -70.5q0 -17 3 -31t11 -28q29 -52 29 -72q0 -23 -11 -67l-12 -66l133 36q74 -40 160 -63.5t197 -23.5q113 0 216 122q85 102 133 272q20 74 30 143t10 141zM574 1560q-205 0 -360 -143q-161 -147 -161 -304t66 -305.5t154 -215.5q-35 -26 -55 -57
q-23 -35 -23 -68t19 -67.5t19 -58.5q0 -26 -20 -86.5t-20 -79.5t45 -96q36 -63 57 -93q12 15 61.5 43t70.5 28q20 0 85 -22l126 -41q81 -23 189 -23q109 0 234 119q109 103 170 278q54 156 54 343q0 186 -84 384q-87 205 -242 329q-171 136 -385 136zM299 14q-22 31 -47 77
l-40 78q0 32 20 89.5t20 83.5q0 25 -19 62.5t-19 65.5q0 30 29 68q23 29 62 55q-89 53 -164 213q-69 149 -69 302t157 295q152 138 354 138q201 0 367 -133q148 -119 235 -324q81 -191 81 -373q0 -181 -52 -333q-57 -169 -163 -271q-120 -117 -235 -117t-242.5 43t-149.5 43
q-23 0 -50 -13q-15 -7 -75 -49z" />
    <glyph glyph-name="colon" unicode=":" horiz-adv-x="494" 
d="M250 1162q-80 0 -130.5 -55t-50.5 -144t61 -169q66 -87 154 -87t139.5 51t51.5 142q0 93 -60 174q-65 88 -165 88zM241 1155q75 0 122.5 -46t47.5 -119q0 -71 -51.5 -120.5t-118.5 -49.5q-68 0 -119 50t-51 118t51 117.5t119 49.5zM250 478q-88 0 -138.5 -55t-50.5 -146
q0 -89 72 -169.5t153 -80.5q82 0 135.5 51.5t53.5 135.5q0 82 -64 170q-70 94 -161 94zM235 473q75 0 122.5 -46t47.5 -119q0 -71 -51.5 -120.5t-118.5 -49.5q-68 0 -119 50t-51 119t48.5 117.5t121.5 48.5zM388 305q0 67 -42.5 109t-110.5 42q-67 0 -110 -41.5t-43 -105.5
q0 -63 45.5 -108.5t107.5 -45.5q60 0 106.5 44t46.5 106zM394 987q0 67 -42.5 109t-110.5 42q-67 0 -110 -41.5t-43 -105.5q0 -63 45.5 -108.5t107.5 -45.5q60 0 106.5 44t46.5 106zM249 514q-101 0 -162.5 -66.5t-61.5 -171.5q0 -106 82.5 -195.5t177.5 -89.5t160.5 63
t65.5 161q0 99 -74 195q-80 104 -188 104zM492 201q0 -76 -59 -133.5t-148 -57.5q-87 0 -164 84.5t-77 182.5q0 97 55.5 157.5t152.5 60.5t172 -99q68 -91 68 -195zM249 1198q-91 0 -153.5 -67t-62.5 -170q0 -101 72 -193q77 -97 179 -97q103 0 165 62t62 169q0 108 -71 198
q-75 98 -191 98zM492 889q0 -88 -57.5 -143.5t-151.5 -55.5q-93 0 -165 93q-66 86 -66 179q0 92 57 154.5t153 62.5q95 0 166 -93q64 -85 64 -197z" />
    <glyph glyph-name="semicolon" unicode=";" horiz-adv-x="556" 
d="M277 1156q-77 0 -130 -61t-53 -149t78.5 -177t171.5 -89q90 0 142.5 54.5t52.5 143.5t-86.5 183.5t-175.5 94.5zM273 1141q72 0 125 -53t53 -125t-53 -124q-27 -26 -57 -39t-67 -13q-71 0 -125.5 49.5t-54.5 122.5q0 72 51 127t128 55zM277 447q-68 0 -114 -45t-46 -116
q0 -70 36 -108q25 -25 101 -60q-18 -98 -87 -176q-13 -13 -40 -30l-43 -26l-23 2l112 85q50 47 61 135q-70 28 -102 68t-32 114t50 124t153 50t191 -122q78 -110 78 -237q0 -126 -68 -185q-64 -55 -144 -55h-19h-16h-13q-47 0 -72 4q-20 0 -36.5 2t-71.5 9l89 4l132 -1
q80 0 139 49q63 54 63 173q0 120 -74 225q-81 117 -204 117zM270 122l-107 54q-42 33 -42 108q0 76 44 117.5t127 41.5q82 0 149 -76q63 -72 63 -180t-80 -195.5t-146 -87.5h-16h-13q-44 0 -59 4l-40 7q8 14 17 24l19 21q17 19 49 78q28 54 35 84zM487 197q0 90 -59 159.5
t-137 69.5q-76 0 -114.5 -37t-38.5 -88q0 -50 11 -76.5t38 -47.5l52 -22l49 -23q0 -34 -44 -106l-66 -99l28 -4l72 -2q61 0 135 84t74 192zM434 963q0 63 -48 112t-115 49q-66 0 -113 -47t-47 -114q0 -66 48 -112.5t113 -46.5q67 0 114.5 47t47.5 112zM276 483
q-84 0 -139.5 -56.5t-55.5 -134.5q0 -79 32 -123q29 -39 100 -72q-18 -79 -67 -125l-119 -98l157 -21q34 -3 75 -5t91 -2q100 0 168 61q73 64 73 198q0 135 -85 251q-94 127 -230 127zM276 1192q-97 0 -157.5 -75t-60.5 -177q0 -103 92 -199.5t197 -96.5t166.5 66t61.5 169
q0 104 -97 208.5t-202 104.5zM556 877q0 -93 -56.5 -153.5t-154.5 -60.5q-96 0 -182 92t-86 187t54 161q58 70 150 70t183.5 -99.5t91.5 -196.5z" />
    <glyph glyph-name="less" unicode="&#x3c;" horiz-adv-x="1051" 
d="M597 720l221 215l-248 253l-367 -366l-2 -2l373 -376l7 8l103 -102l140 136zM203 822l366 359l144 -149l-222 -215l228 -229l-138 -136zM574 468l121 120l-228 229l222 215l-120 125l-344 -337zM648 719l221 215l-298 305l-419 -418l531 -521l192 185zM621 720l227 -234
l-164 -159l-505 495l391 390l272 -277z" />
    <glyph glyph-name="equal" unicode="=" horiz-adv-x="1145" 
d="M966 663l-50 89h52l-2 218l-61 108h-9l-720 2v-207l1 -16l65 -85h-66v-206l1 -16l79 -105h712zM896 1078v-205h-719v205h719zM896 772v-206h-719v205h66zM193 583h686v172h-686v-172zM193 890h686v173h-686v-173zM1002 673l-24 43h26l-2 264l-76 134h-785v-269l29 -38
h-29v-269l97 -129h766zM983 668l2 -240h-738l-87 117v243h49l-49 64v243h755l68 -120l2 -240h-40z" />
    <glyph glyph-name="greater" unicode="&#x3e;" horiz-adv-x="1051" 
d="M387 1188l-137 -139l3 -3l-9 -10l221 -219l-227 -229l145 -144l3 4l88 -88l370 373zM253 1046l135 135l368 -361l-370 -372l-142 141l226 232zM383 468l349 352l-344 337l-120 -121l221 -219l-227 -229zM386 1239l-187 -189l221 -228l-227 -234l282 -279l420 425z
M387 1212l481 -479l-394 -397l-254 253l227 232l-221 228z" />
    <glyph glyph-name="question" unicode="?" horiz-adv-x="826" 
d="M885 1157q0 -162 -59 -265t-160 -174q-87 -41 -126 -86q-50 -57 -50 -123q0 -63 62.5 -171.5t62.5 -177.5t-54 -129q-58 -65 -154 -65q-97 0 -177 96t-80 191q0 98 33 140q19 25 94 82q-27 89 -27 170q0 79 13.5 153.5t39.5 137.5q-65 38 -115 76q-32 25 -59.5 51.5
t-44.5 51.5q-45 63 -45 180q0 118 87 222q95 111 262 111q205 0 351 -154.5t146 -316.5zM97 1394q-8 -22 -13 -47l-7 -53q0 27 4.5 49t15.5 51zM866 1158q0 154 -138 301q-143 150 -320 150q-180 0 -267 -105q-83 -99 -83 -212q0 -112 44 -167l89 -92l11 -15l-1 7
q50 -39 114 -73l7 -16q-53 -131 -53 -228q0 -95 9 -146l22 -94q-64 -36 -94 -78q-37 -50 -37 -138q0 -44 18 -87.5t53 -87.5q76 -92 165 -92q90 0 140.5 57t50.5 120q0 64 -62.5 170.5t-62.5 145.5q0 18 1.5 34.5t5.5 32.5l21 55q26 54 65 82l92 52q92 56 151 164t59 260z
M628 1522q-57 37 -123.5 53t-144.5 16q27 3 68 3q20 0 45 -5t54 -14q58 -20 101 -53zM360 1591q-89 -12 -160 -65t-103 -132q31 89 99 139q38 28 77.5 43t86.5 15zM456 1217q0 -30 -4 -46l-11 -30q-3 10 -10 17q-7 10 -18 16l-15 6q-17 6 -39 6q-23 0 -44 -66
q-8 -23 -12.5 -44t-4.5 -37v-40l4 -20l-53 33l-51 37l-8 56q-4 33 -4 84q0 23 8 46.5t23 46.5q36 52 96 52q61 0 102 -41.5t41 -75.5zM442 1135q0 -17 -21 -53l-33 -53l28 55q15 29 25 57zM752 1231q0 -138 -92 -244q-74 -85 -213 -152q-63 -69 -90 -161q-12 -39 -20 -85.5
t-8 -99.5q-21 50 -30.5 90.5t-9.5 115.5q0 73 47 188l89 178q48 93 48 144t-47.5 98.5t-112.5 47.5q-66 0 -107 -57q-37 -50 -37 -102l2 -71l6 -41q-44 62 -60 97q-23 50 -23 143t98 177q93 80 229 80q137 0 234 -103t97 -243zM425 1135q0 -17 -58 -109l-40 -60
q-8 14 -10 25t-2 26v13q0 27 13 76q20 63 34 63q17 0 26 -3l15 -6l20 -16zM388 1029l-20 -37l-21 -39l-6 3l23 35zM341 956l-17 -23l-2 3l4 9l-11 7q-6 9 -13 27zM137 1106q-28 29 -43 63q-19 38 -19 60v36l2 29q0 -24 1.5 -45.5t11.5 -51.5q19 -51 47 -91zM849 1121
q0 -113 -56.5 -215.5t-144.5 -156.5l-44 -23l-43 -25q-47 -29 -77 -91.5t-30 -118.5q0 -57 62.5 -164t62.5 -163q0 -59 -45 -110.5t-126 -51.5t-150 81q-35 41 -52 79q-20 44 -20 91q0 38 3.5 63t14 42.5t27.5 35.5q24 26 50 42l39 26l-8 23l18 -44l7 -17h4l1 17l12 137
q11 75 31 127q26 66 72 116q141 69 218 158q94 109 94 221q0 114 -36 190t-105 132q101 -70 161 -179.5t60 -221.5zM201 1025q-8 4 -32 37l-32 44q10 -14 27 -29l34 -28zM286 713q0 -101 5.5 -138t8.5 -50t12 -40q-22 48 -31 90.5t-9 102.5q0 59 20.5 133.5t54.5 141.5
q-61 -141 -61 -240zM406 1134q-3 5 -12 8q-7 5 -20 8q-16 -7 -28 -57t-12 -84l40 64q30 48 32 61zM478 289q0 57 -38.5 96t-98.5 39v-9l-4 9q-57 0 -96.5 -38.5t-39.5 -95.5t41.5 -99t95.5 -42q55 0 97.5 42t42.5 98zM459 290q0 -48 -37 -85t-82 -37q-48 0 -84 36t-36 85
t33.5 82.5t85.5 33.5q50 0 86 -33q34 -34 34 -82z" />
    <glyph glyph-name="at" unicode="@" horiz-adv-x="1917" 
 />
    <glyph glyph-name="A" unicode="A" horiz-adv-x="1571" 
d="M1231 107l-5 16q80 -50 112 -64q41 -18 86 -18q46 0 95 38t49 90q0 51 -31 98q-15 24 -61 74l-7 25l-10 -6l-2 2q-18 -9 -53 -9t-87 127q-38 94 -76 250q-13 54 -37 178q-12 61 -18 122q0 25 -2.5 67.5t-2.5 51.5l3 107q0 24 2.5 45.5t8.5 58.5q-22 26 -56 55l-56 53
l2 21h-57l-3 -5l-7 7l-35 -3q24 9 42 12l40 4l12 -3q16 -22 48 -53l88 -82l-12 -108q0 -39 -1 -73.5t-2 -65.5q0 -48 5 -95t18 -112q10 -56 18.5 -96.5t19.5 -83.5q37 -155 71 -241q47 -121 80 -121t49 16q68 -74 83 -95q43 -61 43 -120t-55 -103t-103 -44q-27 0 -54 7
t-68 25q-72 32 -90 54v-4l-7 8l-10 -3l-56 -60q-25 -23 -83 -23q-56 0 -118 42q-82 57 -103 68q-15 -51 -52.5 -82.5t-79.5 -31.5q-43 0 -92 20l-94 44l-83 -49q-38 -21 -108 -21q-69 0 -156.5 98t-87.5 155q0 58 14.5 82t28.5 35l24 -20q18 -15 32 -15q12 0 38.5 14.5
t44.5 34.5l-21 -23l-36 -36l-24 -5q-31 6 -58 27l-23 -26q-7 -11 -7 -64q0 -55 89 -147.5t153 -92.5q66 0 114.5 35t72.5 35q27 -18 84 -42q60 -22 99 -22q42 0 74 35q20 21 45 84q26 -10 111 -70q65 -45 122 -45q56 0 91 41.5t55 44.5zM1231 107l-5 16q80 -50 112 -64
q41 -18 86 -18q46 0 95 38t49 90q0 51 -31 98q-15 24 -61 74l7 -28q3 -11 3 -49q0 -37 -62 -77q-51 -33 -119 -33q-66 0 -125 37q-46 29 -92 90q-39 -62 -71 -88q-46 -37 -111 -37q-64 0 -107 55q-38 50 -38 122l23 33l16 -5q-4 9 -15 14l-4 -1l-4 -6l-1 -6l-26 -32
q-42 17 -57 48q-11 24 -11 78q0 56 37 108q41 57 91 57q49 0 75 -36q-13 72 -48 111q-40 46 -116 46q-75 0 -123 -101q-37 -80 -37 -171t43 -116q29 -16 121 -16q-12 -106 -49 -143q-33 -31 -87 -31q-56 0 -105.5 31.5t-70.5 77.5q-43 -54 -69 -72q-41 -30 -74 -30l-53 3
l-45 9l-27 21q-21 19 -34 43q24 -72 96 -140q78 -72 138 -72q61 0 109.5 35t72.5 35q27 -18 84 -42q60 -22 99 -22q42 0 74 35q20 21 45 84q26 -10 111 -70q65 -45 122 -45q56 0 91 41.5t55 44.5zM1476 341l-7 25l-10 -6zM1459 360l-2 2q-18 -9 -53 -9q-32 0 -85 123
q-38 92 -76 247q-9 38 -18 79.5t-21 104t-18 123.5q0 25 -2.5 67.5t-2.5 51.5l3 107q0 24 2.5 45.5t8.5 58.5q-22 26 -56 55l-56 53q0 -44 -1 -70q-5 -129 -5 -148q0 -71 5 -136t18 -151q27 -187 82 -330q63 -168 165 -285q15 -18 35 -18q14 0 19.5 1t18.5 7zM1083 1468
l2 21h-60v-5l-7 7q-17 0 -25 -1t-31 -7q-74 -18 -97 -18q-22 0 -43 17l-35 35q-39 -27 -59 -37q-32 -15 -62 -15t-49 10q-11 0 -35 9q-44 18 -58 18t-20 -2l103 -34q39 -13 61 -13q23 0 62 18q20 9 56 31q17 -22 48 -38q29 -12 59 -12q15 0 36 4t48 13q54 18 86 18l4 -1z
M868 1448q-22 0 -38 8q-10 4 -45 38q-31 -21 -62 -35q-12 -5 -26.5 -8t-29.5 -3q-26 0 -74.5 17.5t-61.5 19.5l-24 -3q-12 -3 -15 -9q0 -41 8 -127t8 -128q0 -71 -5.5 -141t-14.5 -141q-19 -160 -68 -301t-137 -241l-42 -46q-29 -27 -45 -29q-14 0 -36 7t-32 14
q-13 -13 -13 -47q0 -33 25 -58l41 -37l35 -7q18 -3 54 -3t80 38l67 82q24 -58 67 -92.5t103 -34.5q59 0 89 42q23 33 30 98q-105 0 -136 43q-26 37 -26 121q0 83 42 169q51 105 151 105q99 0 145 -103q32 -73 32 -154q0 -80 -21 -121q-24 -47 -43 -47t-30 4l-13 3l-16 5
l-13 -19q0 -63 37.5 -108.5t100.5 -45.5q62 0 103 45l70 91q40 -62 90 -97q58 -41 122 -41t112 29q56 33 56 66v21q0 13 -1.5 22.5t-2.5 13t-6 16.5l-37 -19q-11 -3 -21 -5t-23 -2q-21 0 -44 24q-100 121 -167 291q-56 145 -81.5 315t-25.5 290l1 161l6 78l-28 -1
q-14 0 -18 2l1 -3l-4 4q-17 0 -25 -1t-31 -7q-74 -18 -94 -18zM504 1500h-7l-6 -1v-6zM491 1492l-17 -12l8 -149q0 -52 1 -94t2 -80q0 -112 -19 -246q-24 -183 -80 -313q-65 -157 -176 -255q43 15 78 56q27 30 54 81q84 161 123 387q16 94 24 178.5t8 168.5q0 53 -3 111
q-7 135 -7 140q-1 6 5 8zM210 343l-24 -5l7 -2l10 1zM186 338l-20 5l-20 8l22 -16zM146 351l-18 14l-6 -6zM122 359l-20 -26q-2 -6 -3 -13t-1 -22q0 -25 13 -51l-6 22l-3 29q0 14 1 19.5t7 17.5zM800 361l3 -3h6zM809 358l18 -6l13 -1q5 0 14 6l10 11q-19 -10 -55 -10z
M864 368l14 10l14 10l13 46q6 26 6 56q0 10 -0.5 23t-7.5 32q-7 25 -18 40q12 -60 12 -103t-9.5 -69.5t-23.5 -44.5zM480 1272l-3 103l-5 102l2 3l-1 34q11 3 31 3q18 0 76.5 -23.5t84.5 -23.5t68 21l58 34q15 -28 44.5 -42t57.5 -14q15 0 36.5 4t48.5 13q56 18 87 18l12 -3
q16 -22 48 -53l88 -82l-12 -108q0 -39 -1 -73.5t-2 -65.5q0 -48 5 -95t18 -112q10 -56 18.5 -96.5t19.5 -83.5q37 -155 71 -241q47 -121 80 -121t49 16q68 -74 83 -95q43 -61 43 -120t-55 -103t-103 -44q-27 0 -54 7t-68 25q-72 32 -90 54v-4l-7 8l-10 -3l-56 -60
q-25 -23 -83 -23q-56 0 -118 42q-82 57 -103 68q-15 -51 -52.5 -82.5t-79.5 -31.5q-43 0 -92 20l-94 44l-83 -49q-38 -21 -108 -21q-69 0 -156.5 98t-87.5 155q0 58 14.5 82t28.5 35l24 -20q18 -15 43 -15q23 0 71 49q35 36 61 86q83 160 122 383q15 90 23 190t8 211z
M743 1184q-27 0 -44 -45q-14 -47 -14 -111q0 -68 8 -103q12 -60 51 -60q38 0 59 58q12 35 12 88q0 56 -17 106q-21 67 -55 67zM832 1020q0 -70 -17 -111q-24 -61 -73 -61q-48 0 -64 65q-10 43 -10 114q0 75 18.5 124.5t59.5 49.5q39 0 66 -72q10 -27 15 -53.5t5 -55.5z
M861 409l-18 -12l-18 -4h-4q-15 18 -44 18q-26 0 -34 -33l-3 -3q-14 9 -18 31l-4 55q0 33 28.5 78.5t65.5 45.5t53 -37q10 -28 10 -63q0 -19 -3 -37t-11 -39zM878 400l11 40q5 27 5 66q0 40 -24 73q-19 25 -62 25q-42 0 -75.5 -49t-33.5 -97q0 -47 8.5 -69.5t37.5 -37.5
l18 26q11 15 21 15t19 -8l9 -10q26 0 53 13q14 7 13 13zM1455 418q-6 -12 -13.5 -20.5t-32.5 -8.5q-23 0 -74.5 150t-94.5 376q-11 56 -17 104t-6 84q0 70 12 199q1 13 1.5 34t1.5 35q-2 6 -66 71l-78 76q-2 3 -16 4l-28 1q-18 0 -48 -11q-75 -25 -104 -25q-32 0 -51.5 14
t-42.5 51l-61 -38q-47 -25 -71 -25q-14 0 -32 5t-50 18q-57 24 -85 24q-26 0 -47 -6q4 -26 6 -55t2 -69l1 -210q0 -142 -31 -321q-37 -219 -120 -378q-32 -62 -70 -95q-29 -24 -62 -30l-49 39q-28 -10 -45.5 -45t-17.5 -101q0 -65 97.5 -165.5t172.5 -100.5q74 0 125 36
q32 22 57 34q40 -24 90.5 -44t96.5 -20t84 28.5t60 79.5l94 -68q51 -36 118 -36q66 0 97.5 35.5t46.5 46.5l99 -56q60 -30 121 -30q59 0 119 50t60 114q0 66 -53 141q-37 54 -96 108zM1205 94l-7 -5v15q1 -2 2 -4.5t5 -5.5z" />
    <glyph glyph-name="B" unicode="B" horiz-adv-x="1457" 
d="M107 1506l-1 4l20 10q9 0 13 2l24 1q18 0 78.5 -23.5t89.5 -23.5q30 0 51 12t39 38q13 -7 37 -29q34 -31 75 -31q42 0 95 28q63 33 91 41t57 11.5t63.5 4.5t106.5 1q130 0 276 -133q152 -137 152 -287q0 -147 -27 -215.5t-84 -141.5l5 -7q51 -63 85 -111
q19 -27 37.5 -60.5t32 -66.5t20.5 -79t7 -111q0 -122 -143 -243q-135 -114 -276 -114q-70 0 -130 7t-110 22q-101 31 -186 82q-44 -38 -93 -64q-57 -30 -133 -30t-174 83q-102 86 -102 147t12 97t28 39l33 -22q14 -7 42 -7q30 0 58 181q9 61 14 121.5t5 122.5q0 63 -6 122
t-19.5 121.5t-31 122.5t-43.5 129q-21 55 -44.5 110.5t-59.5 130.5l-1 4l16 8zM142 347l-8 -11l-5 -16l-13 -3q0 -128 92 -214t173 -86q80 0 154 48l69 49q90 -55 186.5 -84.5t234.5 -29.5q139 0 270 110q138 116 138 235t-31 191q-12 28 -30 59t-44 67q-29 40 -88 113
q59 68 88 138.5t29 215.5q0 143 -148 278q-142 128 -287 128q-143 0 -244 -33q-120 -40 -172 -49q-27 5 -55 26l-28 22l-9 -8l-5 2q-16 -14 -30.5 -21t-41.5 -7q-25 0 -88 19q-31 10 -51.5 15t-33.5 5l-34 -1l-12 -1v-7l-6 -4l6 -12v-27q63 -132 99 -231q44 -120 66 -237
q10 -55 16 -117t6 -122q0 -121 -21 -246q-30 -181 -65 -181q-34 0 -53 11zM129 320l35 4l25 -3q9 -3 34 -3q24 0 54 120q17 71 26 144.5t9 148.5q0 149 -24.5 269t-70.5 245q-36 97 -99 236v16q16 7 33 7q19 0 111 -31q42 -14 79 -14q39 0 73 34l46 -22q42 -19 46 -18l41 -4
q26 0 115.5 41.5t219.5 41.5q128 0 257 -96q140 -105 140 -236q0 -129 -42.5 -217t-110.5 -144q99 -48 162 -138t63 -229q0 -138 -133 -244q-124 -98 -332 -98q-207 0 -398 144l-59 -74q-37 -46 -115 -46q-77 0 -131 29q-63 33 -63 65q0 30 3 47zM784 1322q-76 0 -129 -66
q-48 -60 -48 -128q0 -66 27 -108.5t79 -60.5q-12 14 -20 39q-4 18 -4.5 38t-0.5 32q0 49 46.5 103t98.5 54q51 0 78.5 -15.5t40.5 -44.5q-7 62 -56.5 109.5t-111.5 47.5zM713 959q13 -15 28 -22q9 -3 20 -4t38 -1q43 0 103 57t60 105q0 47 -10 71l2 -53q0 -39 -52 -102
t-95 -63t-63 3.5t-31 8.5zM779 949q58 0 112 52.5t54 103.5q0 50 -24 76.5t-79 26.5t-96 -49.5t-41 -104.5q0 -54 16.5 -79.5t57.5 -25.5zM782 765q-87 0 -139 -58.5t-52 -151.5t56 -164q60 -77 150 -77q89 0 148.5 74.5t59.5 128.5q0 56 -6.5 73.5t-26.5 48t-39.5 54
t-36.5 36.5q-47 36 -114 36zM679 452q0 84 60 151t131 67q72 0 99 -33q24 -30 24 -107q0 -75 -48 -141q-51 -71 -125 -71q-71 0 -106 39.5t-35 94.5zM779 930q-81 0 -135 52.5t-54 135.5q0 85 53 150q57 71 137 71t135 -59q28 -29 42 -62t14 -74q0 -76 -57.5 -145
t-134.5 -69zM807 350q-40 0 -67 30q-25 31 -25 86q0 56 48.5 112t127.5 56q78 0 78 -79q0 -78 -48.5 -141.5t-113.5 -63.5zM988 543q0 51 -26.5 80.5t-90.5 29.5t-119.5 -61.5t-55.5 -125.5q0 -63 30 -99t92 -36q61 0 117 71q53 67 53 141zM780 966q-31 0 -46 25
q-10 20 -10 64q0 46 35.5 90t100.5 44q66 0 66 -63q0 -62 -50.5 -111t-95.5 -49zM1010 547q0 -100 -52 -170q-58 -76 -160 -76q-101 0 -165 80q-59 74 -59 174q0 98 57.5 162.5t151.5 64.5q93 0 160 -70t67 -165zM1262 1157q0 166 -135 267q-124 91 -236 91
q-115 0 -240.5 -40t-148.5 -40l-35 15l-24 10q-19 8 -32 16q-8 -10 -30 -19q-12 -3 -22 -5t-24 -2q-24 0 -94 18.5t-106 18.5v-29q54 -116 97 -234.5t66.5 -240.5t23.5 -211q0 -91 -9 -181q-12 -123 -35 -194q-30 -96 -55 -96q-23 0 -35 3l-21 3l-20 -1l-14 -3
q0 -68 52 -102q45 -30 121 -30q74 0 107 34l74 92q186 -150 394 -150q206 0 325 93q128 101 128 238t-70 228q-62 82 -171 130q71 49 120 141t49 180zM1288 775q51 63 78 138.5t27 226.5q0 149 -159 293q-153 138 -281 138q-130 0 -170 -4q-18 0 -36.5 -3.5t-34.5 -9.5
q-24 -7 -88 -41q-54 -28 -87 -28t-63 21l-47 39q-7 5 -15 3l-31 -37q-19 -16 -48 -16q-16 0 -36.5 5t-53.5 18q-60 24 -84 24t-39 -4l-30 -14q-19 -10 -20 -20l2 -7l1 -6q46 -97 78 -176q40 -97 67 -186t42 -189q8 -53 12 -96t4 -91q0 -89 -19 -221q-24 -170 -60 -176
l-28 16q-4 3 -15 8t-22 5q-17 0 -35 -47q-13 -39 -13 -108q0 -70 108 -162q102 -87 172 -87q72 0 99 8q29 7 55 21l3 2l42 31l43 28q89 -50 187 -79q50 -14 108 -21t133 -7q144 0 287 120q74 64 111 129.5t37 136.5q0 72 -14 133t-45 118q-23 43 -52.5 85t-69.5 89z" />
    <glyph glyph-name="C" unicode="C" horiz-adv-x="1225" 
d="M1188 100l-12 31q-3 15 -3 39q0 26 20.5 78.5t20.5 84.5q0 31 -48 93l-73 84l4 -47q0 -26 -15.5 -67t-44.5 -70l44 -76q8 -15 12 -36t4 -55l-67 20q-18 4 -36.5 6t-46.5 2q-47 0 -169.5 -36t-241.5 -36q-117 0 -242 116q-109 102 -163 278q60 -217 214 -363
q168 -162 308 -162q142 0 222 35q177 74 195 76q19 0 54 -17q14 -6 28 -13.5t27 -15.5l6 23zM1093 510q-9 47 -54.5 75t-103.5 28q-57 0 -95 -35.5t-38 -79.5t14 -89.5t25 -62.5l4 3l-21 66q-16 54 -16 85q0 33 44.5 67t92.5 34q49 0 87 -29q25 -19 61 -62zM819 476
q0 -28 15 -67l29 -70q-29 -24 -66.5 -37t-124.5 -13q-83 0 -152 127q-50 98 -67 274q0 37 -1 57q-5 101 -5 112v72.5t2 38.5q10 95 24 151q21 94 61 146q48 65 117 65q68 0 103 -44q32 -40 32 -75q0 -17 -1 -31.5t-4 -27.5q-9 -42 -9 -62q0 -18 30 -35t66 -17q38 0 81 37.5
t43 78.5q0 44 -18.5 103t-18.5 92q0 35 10 85l10 49q-42 0 -93 -27l-79 -41q-47 44 -110.5 69t-134.5 25q-72 0 -141 -34q-62 -30 -121 -88q-77 -74 -122 -176q-37 -86 -51 -193.5t-14 -242.5q0 -143 46 -284q52 -161 153 -254q116 -107 227 -107q59 0 104.5 5t91.5 18
q181 49 233 49q54 0 116 -22q0 42 -36 99q-12 20 -18 31t-9 19q29 25 46 66.5t17 86.5q0 46 -41.5 79t-130.5 33t-89 -120zM835 340l7 4zM835 340q-22 -15 -55 -26q-32 -8 -76 -8q-45 0 -91 28q17 -18 48 -28t63 -10q34 0 62 11.5t49 32.5zM613 334q-16 17 -28 66.5
t-12 121.5q0 13 -2 93t-2 147q0 173 30 281t76 108q45 0 59 -13q8 -8 21 -35l14 87q0 51 -28 88t-93 37q-63 0 -113 -80q-38 -62 -57 -173q-14 -86 -14 -187q0 -51 1 -94t4 -77q0 -63 10 -114t28 -103q36 -111 106 -153zM755 1103q0 -30 21 -50l-12 26zM776 1053
q34 -59 71 -96q51 -53 104 -53q52 0 96 32q48 35 48 79q0 45 -21.5 115.5t-21.5 92.5q0 16 1 24t6 32l9 34l9 25q6 15 6 35q0 22 -20 49l-70 69q0 -11 -4 -28.5t-7 -29.5q-10 -53 -10 -80q0 -29 18.5 -91.5t18.5 -107.5q0 -46 -48.5 -88.5t-86.5 -42.5q-35 0 -59.5 9
t-38.5 21zM993 1491l2 11h-13zM982 1502h-9h9zM973 1502q-41 0 -89 -24l-75 -40l8 -5q30 23 75 44q39 17 81 25zM809 1438l-19 12l16 -14zM790 1450q-96 78 -200 78q-102 0 -179 -36q-66 -32 -127 -90q-79 -76 -125 -179q-38 -89 -55 -206q-12 -89 -12 -194q0 -102 9 -174
t30 -140q-8 30 -15 64t-15 93t-8 203q0 146 56 304q69 199 221 294q86 55 164 55q82 0 141 -20q62 -18 115 -52zM952 618q53 0 103 -42q7 -6 26 -28q23 -26 51 -59l63 -73q36 -48 36 -82q0 -30 -20.5 -85t-20.5 -77q0 -23 3.5 -38.5t12.5 -29.5l-4 -29l-1 -13l-6 -14
l-10 -21l-59 32q-40 19 -63 19q-12 0 -33.5 -7t-51.5 -22l-115 -53q-76 -29 -163 -29q-86 0 -186.5 45t-184.5 126q-131 128 -195 305q-58 163 -58 370q0 210 57 369q71 197 228 300q40 27 93 42t111 15q60 0 125 -22t127 -64q27 26 78 45q23 9 47 15t45 8l73 -68
q40 -43 40 -70t-7 -47l-8 -25l-5 -16l-7 -27l-4 -40q0 -24 21 -96q10 -33 16 -65t6 -59q0 -52 -60 -90q-26 -15 -56.5 -23t-67.5 -8l-20 3q-68 41 -115 108l-74 131q-10 5 -53 5q-41 0 -68 -181q-12 -84 -12 -230q0 -155 8 -240q0 -43 6.5 -73.5t15.5 -48.5q14 -27 49 -39
q27 -9 73 -9q47 0 87 41l-34 124q0 60 50 100t111 40zM725 1081l10 -26q29 -57 72 -105q40 -44 93 -77l5 -2l18 -2l55 -1q41 0 95 42q58 46 58 96q0 54 -14 100q-29 104 -29 128q0 26 10 55q21 62 21 94t-45 82l-80 75q-41 0 -95 -21q-43 -18 -83 -43q-61 39 -127.5 60.5
t-157.5 21.5q-90 0 -181 -61q-161 -105 -234 -307q-59 -163 -59 -376t60 -378q64 -178 199 -311q85 -82 189 -131q50 -22 100 -34t97 -12q95 0 180 35l182 76q20 0 51 -16l75 -37q18 11 27 43q8 34 8 60l-11 28q-5 17 -5 35q0 21 20.5 74.5t20.5 82.5q0 30 -13 57
q-16 32 -89 118t-103 105q-22 14 -46.5 21t-57.5 7q-59 0 -114 -45t-55 -86q0 -40 12.5 -85.5t19.5 -61.5q-33 -27 -74 -27q-40 0 -63.5 9.5t-32.5 24.5q-13 23 -22 122q0 33 -2 77q-5 110 -5 152q0 138 11 221q21 177 80 177l11 -1z" />
    <glyph glyph-name="D" unicode="D" horiz-adv-x="1550" 
d="M174 1415l-20 32l-32 53l26 4l-18 -1l-10 -1zM174 1415q86 -152 130 -345q38 -173 38 -324q0 -155 -13 -237q-18 -120 -63 -179l23 13q35 67 50 167q5 35 8 92t3 134q0 76 -9 156.5t-29 170.5q-45 206 -138 352zM266 330l-20 -4q-12 0 -24 6t-24 18l-8 -9l-11 -15l17 1
q4 0 12.5 -1t18.5 -4l24 -6l6 2zM179 326l-24 -8l-6 -29l-1 -40q0 -27 30 -62l-17 34q-5 15 -7 32q0 17 7 34.5l9 22.5t9 16zM178 187q42 -69 107 -118q76 -58 124 -58q31 0 45.5 1t38.5 6.5t47 21.5q17 26 43 43.5t50 17.5q25 0 64 -16q22 -9 30 -13t25 -13q53 -27 99 -36
q50 -8 216 -8q167 0 323 204q140 185 140 371q0 96 -6 166.5t-20 124.5q-24 106 -71 188q-69 123 -145 217q-92 116 -194 179q-118 74 -206 74q-87 0 -132 -12q21 3 60 5t97 2q114 0 254 -126q119 -109 190 -297q64 -174 64 -399t-126 -389q-138 -179 -372 -179
q-232 0 -392 103q-49 -52 -94 -81q-59 -38 -108 -38q-48 0 -87.5 15t-63.5 44zM756 1527q-16 -3 -29.5 -6.5t-30.5 -10.5l-96 -42l77 32q43 17 79 27zM600 1468l-18 -6zM582 1462l-30 -5q-13 0 -30 6t-23 8.5t-19 10.5q25 -19 35.5 -23t29.5 -6l19 1zM480 1482l-21 16l-3 -2
zM456 1496l-11 7q-19 -16 -37 -24t-42 -8q-23 0 -85.5 18.5t-80.5 18.5l-31 -1l-21 -3l209 -41q57 0 99 33zM155 318q15 28 42 56l23 -20q7 -5 17 -8t23 -3q24 0 48.5 99.5t24.5 269.5t-34 331q-39 184 -124 338l-45 70q-19 29 -28 44q-4 6 -9 16l23 7q15 3 40 3
q23 0 94 -20.5t118 -20.5q49 0 90 41l33 -27q32 -24 65 -24q91 36 164 61t166 25q92 0 215 -75q102 -64 198 -182q73 -90 149 -222q47 -83 73 -191t26 -298q0 -191 -145 -381q-159 -209 -306 -209h-34h-28h-22h-18h-14h-12q-14 0 -29 0.5t-30 3.5l-71 4q-27 0 -95.5 39
t-100.5 39q-30 0 -52.5 -16t-36.5 -41q-25 -16 -58 -26q-15 -3 -32 -5t-38 -2q-38 0 -74 15q-64 29 -135 103q-79 82 -79 119t9 69q2 8 4 11.5t5 6.5zM818 1330q-74 0 -117 -118.5t-43 -298.5q0 -58 0.5 -113.5t1.5 -108.5q0 -72 9.5 -125.5t27.5 -99.5q39 -107 123 -119
l14 -6l50 -2q43 0 91 72q35 55 53 157q5 31 8 71.5t3 83.5q0 254 -35 372q-43 152 -135 218q-25 17 -51 17zM820 347q-53 30 -67 189q0 40 -1 106t-2 130q0 201 41.5 307.5t112.5 106.5t102.5 -106.5t31.5 -254.5q0 -146 -9 -218q-15 -113 -54 -179q-50 -82 -137 -82z
M849 375q-60 0 -60 170q0 42 -1 102t-2 117q0 180 32.5 283t92.5 103q59 0 82 -195q4 -42 7 -102.5t3 -123.5q0 -71 -5 -121t-18 -96q-38 -137 -131 -137zM848 356q104 0 148 141q26 89 26 209q0 39 -0.5 80t-1.5 83q0 57 -7 104.5t-20 94.5q-27 101 -101 101
q-71 0 -107 -173q-18 -90 -18 -255q0 -169 4 -210q15 -175 77 -175zM1056 834q0 -135 -7 -199q-14 -137 -56 -210q-54 -96 -155 -96q-98 0 -149 111q-21 48 -32 100q-14 64 -14 134l-2 167q0 131 9 212q14 125 49 199q44 95 98 95q53 0 83 -21q92 -65 140 -224
q36 -123 36 -268zM1404 766q0 171 -61 336q-33 90 -79.5 163.5t-105.5 127.5q-136 124 -264 124q-127 0 -220 -38.5t-118 -38.5q-23 0 -52.5 11.5t-57.5 30.5q-13 -11 -34.5 -19.5t-45.5 -8.5q-23 0 -85.5 18.5t-82.5 18.5h-28q-13 -3 -19 -4l7 -13q106 -179 154 -367
q23 -91 35 -180t12 -173q0 -165 -15 -260q-22 -141 -74 -188l-21 -7q-9 0 -25 5.5t-29 5.5q-11 0 -25 -6q-4 -15 -4.5 -31t-0.5 -25q0 -36 52 -72q47 -31 103 -31q58 0 117 41q45 31 91 83q161 -108 390 -108t365 175q121 157 121 430zM849 1575q-69 0 -150 -29l-143 -57
q-21 0 -42 12l-57 47q-30 -28 -44 -36q-23 -13 -56 -13q-20 0 -40.5 4t-63.5 16q-69 21 -100 21q-28 0 -50.5 -5.5t-28.5 -19.5l2 -10q-1 -4 1 -7l51 -78l30 -48q41 -73 71.5 -157t50.5 -176q16 -78 25 -156.5t9 -146.5q0 -144 -11 -225.5t-42 -143.5l-16 -5l-8 4t-17.5 13
t-22.5 22q-35 -32 -55 -68q-24 -42 -24 -94t83 -139q72 -75 141 -108q18 -8 42 -13l67 -4q22 0 46 7t47 22l93 61q25 0 96 -36.5t113 -40.5l71 -6q30 -3 182 -3q151 0 317 215q150 195 150 393q0 102 -6 175.5t-20 128.5q-24 107 -75 195q-75 132 -153 228q-96 118 -204 185
q-125 76 -259 76z" />
    <glyph glyph-name="E" unicode="E" horiz-adv-x="1434" 
d="M1410 32l4 44q0 27 -19 64q-11 23 -37 59q29 47 43 82q13 37 13 74q0 40 -6.5 74t-19.5 58l-59 50l-55 43q21 -24 33 -51t12 -61q0 -33 -25 -71q-19 -29 -54 -58l57 -87q15 -30 15 -101q-48 20 -77 28q-17 4 -41 7t-50 3q-53 0 -178.5 -30t-198.5 -30q-74 0 -144 41
t-122 111l-66 -86q-55 -58 -116 -58q-64 0 -102 11.5t-57 27.5q42 -62 129 -109t144 -47q56 0 104 27l78 52q70 -45 130 -69q79 -32 142 -32q66 0 190.5 40.5t175.5 40.5q52 0 91 -15q10 -4 27.5 -12.5t38.5 -19.5zM1274 580q-22 23 -54 36.5t-71 13.5q-38 0 -86.5 -38.5
t-48.5 -104.5q0 -65 37 -127l1 12q0 11 -15 62q-7 26 -7 41q0 19 4 30q0 42 45 78t79 36q19 0 32 -2t28 -8t28 -12.5t28 -16.5zM1034 505l12 -79q7 -30 33 -74q-38 -35 -91 -55q-53 -17 -144 -17q-93 0 -160 100q-58 87 -58 184q0 96 12 155q9 13 17 22t19 19q24 21 62 21
q36 0 60 -30q20 -26 20 -55l-3 -48l-3 -30l4 -9q7 -8 24 -13q17 -3 41 -3t59 35t35 78q0 42 -35 71q-47 39 -56 51q26 27 44 61t18 61t-23 56.5t-41 35.5h-76q-12 0 -31 -13l14 -39q9 -27 9 -51q0 -22 -30.5 -45.5t-78.5 -23.5q-47 0 -67 69q-8 32 -8 141q0 110 57 181
q63 77 161 77q100 0 150 -37q57 -41 57 -81q0 -29 -1.5 -39.5t-7 -29.5t-14.5 -30q21 -31 44 -47q23 -14 69 -14t84.5 39.5t38.5 83.5t-27 111.5t-27 95.5l3 53q1 12 2.5 23t5.5 25q-36 0 -80 -15q-88 -32 -116 -35q-41 20 -90 28q-24 3 -48.5 5t-52.5 2q-53 0 -142.5 -27
t-125.5 -27q-33 0 -57 9t-46 25q-20 -23 -38.5 -35t-44.5 -12q-25 0 -58 9q-95 27 -111 27l-56 4q214 -271 214 -478q0 -216 -11 -316q-15 -148 -42 -243q-35 -122 -69 -122t-48 13l-27 22q-14 -7 -17.5 -18t-4.5 -21t-1 -32q0 -38 50 -70q42 -27 118 -27q74 0 131 67l67 91
q50 -75 120.5 -120.5t144.5 -45.5q73 0 198.5 30t174.5 30q37 0 50 -1.5t35 -6.5t32 -7.5t36 -12.5q0 51 -43 113l-36 50q36 27 58 55q28 37 28 83q0 47 -43 87.5t-93 40.5q-51 0 -84 -30t-45 -75zM1051 360l-2 -7l4 3zM1049 353l-26 -17l-23 -12q20 1 31 6q11 3 18 23z
M1000 324l5 18l-31 -16q-39 25 -81 112.5t-42 136.5q-24 0 -39.5 9.5t-21.5 32.5l6 57q0 43 -16 65t-46 22q-28 0 -49 -18q-15 -12 -28 -32q-5 -27 -8 -63.5t-3 -82.5q0 -89 53 -170q62 -95 154 -95q93 0 147 24zM851 575l36 -2q24 0 65 40.5t41 66.5v25q-3 17 -4 24
l-22 -80q-36 -33 -53 -43q-12 -6 -63 -21v-10zM989 729l-1 33q-7 11 -13 17.5t-22 21.5l-36 34l21 26q9 12 12 31l-19 -34l-22 -31l38 -33q32 -24 42 -65zM950 892q14 31 14 65l-1 26q-12 22 -26 34q6 -9 10.5 -25t4.5 -34v-18t1 -17q0 -17 -3 -31zM937 1017l-12 12z
M925 1029l-23 21l-14 12l-26 1l-29 1q-16 0 -26 -2q-12 0 -23 -4l6 -6l20 3l28 2q13 0 20 -1t22 -7q15 -4 23.5 -7.5t21.5 -12.5zM784 1058l-31 31q18 55 66 82q41 22 87 22q47 0 68.5 -14t24.5 -43q8 15 12.5 29.5t5 28.5t0.5 22q0 34 -52 71q-47 31 -135 31
q-90 0 -147 -72q-51 -63 -51 -167q0 -106 5 -126q14 -63 52 -63q40 0 63.5 17t23.5 34q0 16 -12 52l-15 44l17 12zM999 1136l-7 -15q13 -26 26 -41t38 -27l-28 31l-24 30l-4 18zM1056 1053q46 -48 71 -66q49 -38 96 -38q46 0 90.5 39t44.5 87q0 25 -6 56t-20 71
q-25 83 -25 114l3 54q3 18 12 38l-15.5 31t-10.5 20q-10 17 -18 25q-6 14 -12.5 20t-20.5 6h-17l-12 -112q0 -34 27 -101t27 -118q0 -47 -45 -93t-92 -46q-45 0 -77 13zM1228 1510h-14q-48 0 -79 -11q-47 -17 -68 -26q-7 -5 -13 -9q14 0 77 20.5t97 25.5zM1035 1464h-25
l5 -3zM1010 1464q-42 17 -92 25q-26 3 -48.5 5t-46.5 2q-37 0 -50.5 -1.5t-36.5 -6.5q50 0 95.5 -0.5t65.5 -4.5q98 -19 113 -19zM736 1488l-12 -3zM724 1485q-5 -1 -18 -4.5t-48 -15.5q-74 -23 -116 -23q-41 0 -77 27h-4l41 -22q10 -4 21 -7.5t13 -3.5l32 -2q20 0 92 28z
M468 1468l-4 2zM464 1470l-19 14l-33 -38q-20 -17 -46 -17t-76 17.5t-77 17.5l-19 1l62 -15l55 -18l34 -6l29 -2q13 0 30 13q45 35 50 36zM194 1465l-49 4h-10zM135 1469l-40 4l43 -52l-32 46zM138 1421l73 -106l-35 55q-13 18 -19 27q-11 15 -19 24zM211 1315
q62 -107 93 -229q15 -62 23 -115t8 -100q0 -101 -11 -203q-7 -70 -16 -129.5t-22 -108.5q-30 -120 -54 -120q-22 0 -32 7l-14 16l-28 14q-26 -12 -34.5 -28.5t-8.5 -45.5q0 -28 12 -52.5t33 -44.5q-28 45 -28 88t19 77q9 -11 28 -21l31 -14q68 0 107 167q14 63 21 116t7 105
q0 307 -26 405t-108 216zM986 640q-24 -28 -51 -45q-22 -13 -64 -26q0 -42 42.5 -125t71.5 -102l12 7l-1 -6q6 2 18 2l8 3l6 7l3 8q1 20 -6 44q-15 51 -15 63l3 39q3 26 9 37q21 40 60.5 66.5t95.5 26.5q54 0 148 -73l79 -66q15 -29 22 -65q3 -17 5 -36t2 -40q0 -41 -12 -78
t-40 -82q22 -26 37 -60t15 -62q0 -29 -3.5 -47t-19.5 -21l-51 26q-51 24 -104 24q-54 0 -178.5 -40.5t-192.5 -40.5q-71 0 -138 32l-132 65l-79 -51q-44 -24 -121 -24q-75 0 -185 79q-118 86 -118 166q0 82 35 129q20 -22 39 -37q17 -11 47 -11t61 133q15 67 23 147.5
t8 176.5q0 190 -15 274t-68 173q-17 30 -162 239l-2 8q3 10 34 10l49 2q19 0 70.5 -11.5t86.5 -26.5l28 -4l28 -3q9 0 36.5 24.5t46.5 24.5l34 -18q32 -15 56 -20q30 -1 72 16q87 36 113 36q43 0 97 -0.5t95 -9.5q64 -14 97 -14q20 0 44.5 5t64.5 18q74 24 109 24
q37 0 66 -47l39 -75q-4 -8 -6 -13t-8 -26q-3 -18 -3 -51q0 -34 25.5 -113.5t25.5 -132.5q0 -52 -50 -97.5t-109 -45.5q-58 0 -133 66q-40 36 -99 107l-7 31q-3 25 -22 34l-27 3l-46 3q-24 0 -61 -23q-38 -21 -48 -56l21 -21q13 2 34 3t65 1q78 0 78 -87q0 -86 -6.5 -110
t-23.5 -44l44 -42q22 -25 22 -47q0 -21 -15 -68q-7 -22 -9 -39zM1407 200q23 35 35 74.5t12 83.5q0 87 -34 155l-85 71q-96 75 -164 75t-122.5 -48.5t-54.5 -88.5q0 -31 1.5 -45t6.5 -40q9 -45 9 -72l-19 -3q-24 21 -59.5 88t-41.5 104q54 16 96.5 72.5t42.5 99.5t-10 60
l-49 51q14 21 18.5 46.5t4.5 55.5q0 32 -9 64t-28 54q-56 38 -125 38q-18 0 -28 -1l-5 5q10 27 53 43q31 11 65 11t42 -18l11 -43q64 -77 108 -116q76 -67 143 -67q65 0 121.5 51t56.5 124l-52 241q0 9 1 20.5t5.5 32t13.5 29.5q-18 51 -46 91q-37 52 -75 52q-35 0 -88 -15
q-110 -32 -140 -32l-188 27h-59h-28q-11 -3 -15 -4l-179 -51q-23 0 -48 16l-28 16q-6 6 -22 6q-15 0 -37 -16l-43 -33q-38 0 -111.5 22.5t-116.5 22.5q-41 0 -63 -8t-22 -22q0 -5 1 -8q6 -19 76 -119l89 -126q38 -55 59 -137q8 -36 13.5 -67.5t5.5 -60.5q0 -50 1 -93t2 -82
q0 -161 -25 -287q-30 -152 -54 -152q-23 0 -49 25l-31 33q-24 -31 -40 -66q-14 -34 -14 -108q0 -73 124 -166q115 -85 201 -85q85 0 139 33l60 39q71 -44 130 -66q78 -28 141 -28q69 0 189 41q64 20 106.5 30t71.5 10q53 0 103 -24l49 -27q29 0 41 31q7 23 7 53q0 34 -13 64
q-12 32 -34 64z" />
    <glyph glyph-name="F" unicode="F" horiz-adv-x="1294" 
d="M1188 1523l-75 -18q-62 -15 -126 -32q-34 0 -101.5 16.5t-103.5 16.5h-10l232 -39q17 0 25.5 1t31 8t39.5 21q22 -6 33 -13.5t13 -23.5q0 -14 -5 -28l-6 -21l58 -211q0 -59 -42 -92q-37 -28 -75 -28q-39 0 -62 5l-37 7l-10 45v16.5t3 17.5q-21 153 -142 153
q-120 0 -174.5 -58t-54.5 -127q0 -65 37.5 -146t64.5 -81q24 0 35 6l16 14q-1 7 -7 20t-10 21q-11 25 -11 46q0 20 23 32t44 12l32 -1q11 0 20 -4l-19 7l-17 3l-25 -3l-27 -3q-8 0 -20 9l-15 18q18 45 48 66t82 21q53 0 99 -58l74 -109q46 -58 103 -58q59 0 102 46t43 90
t-17.5 97.5t-17.5 79.5q0 28 13 76l22 70zM772 1506h-18h18zM754 1506q-23 0 -54 -7t-74 -21q-81 -25 -105 -25q-27 0 -54 20q-10 7 -16 12q-14 13 -22 21q-42 -45 -94 -45t-127 30.5t-93 32.5l-8 -1l100 -49q59 -24 97 -24q39 0 66 13q17 7 50 31q6 -6 19 -18q10 -9 17 -14
q22 -14 53 -14q34 0 88 17q123 38 157 41zM108 1521q127 -260 170 -451q20 -88 28.5 -207t8.5 -268l4 70l2 149q0 116 -53 321.5t-160 385.5zM315 595q0 -29 -3 -53q-6 -35 -9 -52q-8 -52 -23 -89q8 19 14.5 40.5t11.5 51.5t7 51.5t2 50.5zM280 401q-7 -17 -22 -38l-25 -31
q14 11 29 32q9 12 18 37zM233 332q-19 -14 -38 -14q-17 0 -32 12l-21 24l-7 -7l32 -21q21 -12 32 -14l13 1l11 10zM135 347l-15 9l-3 -4l5 -30q5 15 13 25zM122 322q-2 -8 -3 -21.5t-1 -45.5q0 -51 96.5 -141.5t164.5 -90.5t111 22q29 14 78 52q38 -36 68 -53q38 -19 91 -19
q56 0 115 44q63 47 63 97q0 49 -24 91q-18 32 -52 67q8 -19 8 -59q0 -39 -60 -84q-55 -41 -113 -41q-57 0 -108 30q-45 25 -82 70q-33 -46 -73 -73q-47 -31 -115 -31q-67 0 -113 52q-38 44 -51 134zM829 324q-5 10 -16 21l-19 22l-9 -6l23 -18zM785 361l-42 30
q-31 28 -31 77q0 53 4 78.5t27 57.5l120 -127q42 -44 77 -44t75.5 34.5t40.5 64.5q0 32 -26 81l-38 72q9 9 19.5 23t15.5 25t8 26.5t3 35.5q0 37 -49 113q-38 58 -83 103q7 -15 14 -38q3 -11 4 -18.5t1 -22.5q0 -21 -13 -46l-25 -46q37 -59 51.5 -88.5t14.5 -67.5
q0 -37 -36.5 -73.5t-73.5 -36.5q-33 0 -53 12q-17 12 -33 37l11 29q5 15 5 35q0 21 -12.5 38t-55.5 17q-42 0 -66 -57q-15 -38 -15 -107t25 -143q33 -97 67 -97q32 0 45 6t24 17zM906 1011q-20 35 -63 47q15 -6 33 -21q7 -6 17 -14t13 -12zM117 352v6l3 -2q11 16 25 24
l13 -20q19 -25 52 -25t63.5 104.5t30.5 300.5t-54.5 401.5t-165.5 386.5q10 13 29 13q21 0 95 -32q38 -15 69.5 -23t58.5 -8q52 0 91 54q18 -18 29 -28q15 -14 24 -20q22 -14 41 -14q23 0 107 26.5t135 26.5q25 0 55.5 -4t64.5 -13q72 -16 104 -16q38 0 103.5 23t102.5 28
q24 -16 52 -61q32 -51 46 -67q-7 -19 -14 -41.5t-14 -45.5q-3 -14 -6.5 -31.5t-3.5 -32.5q0 -23 11 -56q24 -77 24 -124t-47 -97.5t-114 -50.5q-65 0 -113 58l-73 109q-43 58 -91 58q-47 0 -70 -17q-13 -9 -41 -51q12 -12 19 -12l24 3q15 3 54 3q37 0 130 -114
q89 -110 89 -163q0 -54 -11 -77q-4 -9 -10.5 -19.5t-21.5 -29.5l38 -68q23 -44 23 -82q0 -35 -45.5 -75.5t-91.5 -40.5q-44 0 -101 66q-73 89 -87 99q-14 -20 -17 -44l-2 -69q0 -45 31 -69q57 -44 83 -68q79 -76 79 -149t-69 -126q-63 -48 -143 -48q-78 0 -143 66l-59 -38
q-51 -30 -128 -30q-75 0 -177 94.5t-102 149.5q0 23 0.5 41t3.5 32.5t12 28.5zM1053 1097q54 0 88.5 25.5t34.5 67.5q0 43 -19 90q-40 102 -40 118q0 19 6 33.5t6 22.5l-1 9q-6 10 -11 12l-13 4l-49 -20q-26 -9 -58 -9q-33 0 -110 19.5t-118 19.5t-101 -18
q-134 -40 -160 -40q-29 0 -52 12t-38 28q-20 -15 -51 -28q-13 -4 -29.5 -7t-32.5 -3t-37 4t-44 13q-37 12 -81 35q28 -59 57.5 -120t48 -112t36 -114.5t29 -121t16 -112.5t4.5 -113v-181q0 -52 -6.5 -98t-18.5 -84q-27 -93 -88 -130l-22 -4q-13 0 -37 14l-22 14
q11 -82 46 -123q39 -47 105 -47q64 0 112 36q37 28 70 79q36 -49 81 -78q51 -33 106 -33q54 0 105 36q55 40 55 82q0 41 -28 68q-6 -5 -11 -8t-16 -9q-13 -5 -53 -5q-38 0 -77 102q-14 40 -21 76.5t-7 77.5q0 79 20 122q27 60 77 60t68 -21.5t18 -47.5q0 -23 -3 -37l-10 -29
q10 -15 25 -25q16 -8 42 -8q28 0 60 32t32 67q0 36 -25 79l-43 69q6 13 9 20.5t20 36.5q11 20 11 85q0 66 -66 66q-65 0 -83 -6.5t-18 -23.5q0 -16 14.5 -40.5t14.5 -39.5q0 -13 -18 -28q-18 -13 -52 -13q-32 0 -79 90q-39 78 -39 154q0 77 58.5 139.5t191.5 62.5
q131 0 155 -171q-3 -6 -3 -17l2 -26q2 -15 5 -20l29 -7zM632 1520q-14 2 -56.5 -14.5t-57.5 -16.5q-8 0 -20 7t-30.5 23.5t-26.5 24.5q-11 11 -17 18q-20 -32 -42 -48.5t-59 -16.5q-36 0 -109.5 31.5t-96.5 31.5q-20 0 -35 -9q-10 -6 -21 -22q224 -373 224 -671
q0 -152 -6 -249.5t-20 -151.5q-24 -103 -50 -103q-24 0 -40 23l-17 30q-35 -21 -52.5 -49.5t-17.5 -98.5q0 -69 106 -170.5t180 -101.5q75 0 119 17.5t79 44.5q66 -60 149 -60q84 0 153 54q73 58 73 121q0 62 -27 110q-22 38 -64 77l-79 63q-23 18 -23 47l1 51q0 20 5 40
q13 -13 58 -71q63 -84 121 -84q57 0 108 45t51 87t-22 85l-35 65q39 48 39 119q0 73 -95 187q-98 119 -140 119q-44 0 -51 -2l-18 -3l-12 -1q13 19 36 32q23 10 59 10q37 0 79 -58l74 -109q50 -58 122 -58t125.5 57.5t53.5 107.5q0 54 -11 87q-24 77 -24 99t16 77
q11 39 24 75q-45 68 -75 105q-28 37 -53 37q-12 0 -34.5 -6t-57.5 -20q-29 -11 -56 -18t-42 -7q-33 0 -134 23q-18 4 -40.5 7t-37.5 3q-16 0 -35 -1t-52 -5t-59 -13z" />
    <glyph glyph-name="G" unicode="G" horiz-adv-x="1379" 
d="M1320 -8q-22 24 -39.5 68.5t-17.5 116.5q0 24 2 86.5t2 74.5q0 43 4.5 79.5t14.5 79.5q19 0 34.5 -5.5t26.5 -15.5l41 -47q36 33 55 70.5t19 104.5q0 70 -80 153t-152 83q-69 0 -117.5 -23.5t-76.5 -64.5q-16 -9 -38 -16q-30 47 -75 75q-50 31 -103 31t-96 -41.5
t-43 -85.5q0 -43 45 -105q107 -145 114 -173q-15 -52 -48 -95q-40 -49 -109 -49t-93 109q-9 41 -9 157q0 128 8 221q0 41 4.5 86.5t6.5 72.5q12 113 44 174q42 83 97 83q54 0 79 -31l35 -58q3 -33 81.5 -93.5t122.5 -60.5q45 0 81.5 35t36.5 77q0 44 -15.5 111.5
t-15.5 103.5q0 35 9 66t30 57q0 14 -30 49q-18 21 -44 44l4 6h-10l-3 3q-51 0 -99 -15q-36 -10 -92 -40q-57 49 -128.5 81t-121.5 32q-49 0 -77.5 -5.5t-54.5 -16.5q-213 -90 -321 -313q-92 -190 -92 -338q0 -73 1 -118t2 -84q0 -23 2 -42.5t7 -45.5q23 -149 107 -291
q88 -151 212 -242q139 -101 239 -101q101 0 164.5 20.5t122.5 52.5l109 61q44 -30 79 -51t62.5 -32.5t52 -18t44.5 -6.5zM1210 840q70 0 126 -50.5t56 -96.5q0 -44 -8 -57t-28 -33l-80 43q-65 0 -92 -135q-13 -75 -13 -149q0 -78 9.5 -124.5t28.5 -91.5q-72 0 -110 21
l-98 78q-15 -6 -38 -29l-20 -18q-76 -50 -155 -75.5t-208 -25.5t-252 111q-104 95 -161 264q-49 150 -49 346q0 199 73 369q82 193 259 307q46 30 103 45.5t125 15.5q71 0 143 -48l85 -60l5 3l2 -2q90 54 192 54l6 -6q-30 -47 -40 -77q-13 -39 -13 -75q0 -37 15.5 -95
t15.5 -91q0 -36 -51.5 -68.5t-80.5 -32.5q-31 0 -49.5 4t-32.5 13l-11 16l-9 17q0 15 10.5 45t10.5 67q0 38 -57 77q-51 34 -89 34q-39 0 -62.5 -6t-37.5 -16q-84 -55 -102 -168l-17 -196q-12 -53 -12 -125v-169q0 -64 9.5 -113.5t27.5 -97.5q40 -104 127 -140l22 -8l37 -2
q26 0 77 51q42 42 42 84q0 9 -1 13q9 30 9 67q0 21 -4 40.5t-16 51.5q-24 66 -56 70l-33 -4h-12q-7 0 -19.5 2t-20.5 14q-5 18 -5 50q0 33 48 70.5t100 37.5t94 -30q30 -22 67 -72l6 2l11 -16l27 32l62 42q66 46 112 46zM1375 670q0 66 -52 109.5t-126 43.5q-72 0 -129 -61
l-62 -69q-28 54 -77.5 93t-102.5 39q-54 0 -91 -37t-37 -87l1 -8q8 -15 30 -15q19 0 42 5q40 0 71 -74q24 -60 24 -122q0 -61 -44 -134q-48 -81 -88 -81h-32q-17 3 -23 4l-23 7q-89 36 -134 144q-18 45 -28.5 97.5t-10.5 117.5l-1 126q0 56 3 111t11 128q14 135 18 147
q17 82 66 134q54 59 125 59q69 0 127 -40q62 -44 62 -85q0 -43 -11 -73q-5 -16 -7.5 -25t-3.5 -20q0 -11 27 -23q21 -7 51 -7q33 0 75 26q47 29 47 60t-15.5 85.5t-15.5 92.5q0 22 2 37t10.5 42.5t31.5 67.5q-52 0 -99 -19q-37 -15 -75 -39q-60 53 -126 84q-76 35 -124 35
q-47 0 -74 -5t-51 -16q-208 -90 -313 -306q-90 -186 -90 -332q0 -71 1 -115.5t2 -82.5q0 -26 1 -35.5t8 -50.5q30 -199 152 -336q135 -153 314 -153q181 0 322 98l33 32q20 15 38 20l81 -69q46 -32 99 -32q-13 34 -23 82q-3 21 -5 57t-2 89q0 104 30 188t66 84q35 0 65 -17
l39 -22q10 6 15.5 20t5.5 26zM1224 876q-65 0 -117 -34l-101 -66q-33 43 -77.5 69.5t-105.5 26.5q-59 0 -117.5 -48t-58.5 -111q0 -62 80 -164.5t80 -128.5q0 -25 -37 -59q-37 -32 -91 -32q-62 0 -62 142v143q0 52 1 75.5t7 88.5q0 103 12 182q9 57 24 102q33 98 74 98
q40 0 55 -15q8 -7 18 -27q35 -68 102 -130q77 -71 143 -71t113 45.5t47 96.5q0 53 -15.5 119.5t-15.5 106.5q0 39 19 74t19 56q0 22 -39 60q-49 47 -57 60l1 -5l-9 10l-18 1q-45 0 -97 -16q-41 -11 -92 -36q-76 55 -113 74q-59 28 -125 28q-65 0 -128.5 -17t-112.5 -49
q-185 -119 -272 -320q-38 -89 -57 -184t-19 -204q0 -213 56.5 -377.5t172.5 -295.5q87 -99 188 -154q111 -60 214 -60q101 0 200 42q36 15 167 85q63 -43 120 -69q73 -32 119 -32q48 0 48 36l-1 4q-24 13 -45.5 61.5t-21.5 117.5l3 142q0 32 3.5 67t9.5 71q7 -3 32 -35
q21 -27 35 -27l3 2q113 59 113 172t-87.5 211t-186.5 98zM1110 1521l69 -72q22 -28 22 -44v-9q-17 -19 -29 -52q-9 -30 -9 -63q0 -32 15.5 -101.5t15.5 -115.5q0 -47 -42.5 -87.5t-100.5 -40.5t-132 70q-60 57 -94 121q-10 21 -26 35q-19 17 -62 17t-82 -81
q-28 -60 -40 -170l-9 -149q0 -33 -4 -105t-4 -111q0 -113 7 -149q20 -104 77 -104t100.5 38t43.5 70q0 33 -40 86l-79 104q-41 59 -41 109q0 51 53 93.5t107 42.5q56 0 101.5 -28.5t71.5 -71.5q28 9 103 63q56 41 134 41t162 -94q81 -90 81 -163q0 -71 -26 -118t-72 -68
q-11 13 -25.5 28.5t-18.5 19.5q-14 16 -37 16q-20 -80 -20 -189v-150q0 -21 4 -40t16 -45q20 -43 48 -68q0 -11 -36 -11q-38 0 -112 33t-119 72q-86 -52 -168 -88q-106 -43 -202 -43q-97 0 -205 59q-96 52 -180 149q-116 133 -170.5 290.5t-54.5 367.5q0 212 74 381
q84 194 266 312q42 28 104.5 46t123.5 18q62 0 127 -30q51 -24 112 -76q27 20 88 38t101 18z" />
    <glyph glyph-name="H" unicode="H" horiz-adv-x="1630" 
d="M836 1516l39 1q28 0 99.5 -20.5t90.5 -20.5q21 0 53 25l36 28q39 -45 84 -45q43 0 91 15t79 23t45 8q28 0 44 -4q35 -35 81 -88l47 -55v-28q-95 -137 -140.5 -298.5t-45.5 -286.5q0 -131 8.5 -198t26.5 -132q11 -40 55 -90l74 -84q38 -49 38 -102t-57.5 -118t-113.5 -65
q-53 0 -96.5 21t-73.5 53l-82 -44q-36 -19 -83 -19q-48 0 -109 37q-49 29 -96 79l-8 -2v5l23 5l90 -71q50 -36 99 -36q50 0 114 43q31 20 59 20q33 -34 70 -55q38 -19 89 -19t104.5 60.5t53.5 108.5t-45 102q-111 132 -120.5 165.5t-16 65t-11.5 69.5t-7 84t-2 115
q0 128 46.5 292.5t139.5 300.5v16l-52 60l-52 57v1l-15 15q-15 3 -41 3q-27 0 -76 -14q-108 -30 -135 -30q-25 0 -47 11.5t-38 25.5l-4 2q-10 -13 -28 -27l-29 -21l-23 -1q-20 0 -89 20.5t-101 20.5l-35 -1l3 -7q9 -11 9 -41l-1 -44l-60 45q-32 25 -52 51q-9 3 -27 3
q-17 0 -61 -16q-96 -34 -120 -34t-51.5 12t-44.5 29q-26 -48 -64 -48q-35 0 -73 18q-77 38 -100 41l-36 2h-27q-10 0 -18 -5l8 -15l-3 -1q113 -177 168.5 -372.5t55.5 -343.5q0 -56 -3 -134t-3 -100q0 -55 -8 -96t-18.5 -66t-28 -36t-44.5 -14l-37 39q-14 -3 -26 -38
q-4 -15 -7 -40.5t-3 -54.5q0 -60 84 -145.5t147 -85.5q66 0 100 17q87 42 100 45q31 -27 66 -47q32 -15 93 -15q62 0 102 63t59 66v-17l-9 -3q-29 -59 -66 -92.5t-90 -33.5q-52 0 -78 10q-11 4 -82 51l-88 -44q-34 -17 -103 -17t-160 88t-91 157q0 68 13.5 111t46.5 43
l16 -20l20 -19q56 0 77 147q9 69 9 251q0 184 -56 368q-50 169 -182 397q3 7 14.5 12.5t26.5 5.5l28 -1l35 -1q20 0 100 -40q36 -18 63 -18t44 20l26 41q15 -25 43.5 -40t60.5 -15t92.5 25.5t82.5 25.5q23 0 37 -6q12 -16 40 -40l45 -36q0 26 -6 41l-11 30l16 4v0z
M1351 1149q-48 -179 -48 -331q0 -155 9.5 -252.5t33.5 -185t75 -87.5l68 1l25 1q-16 -71 -46 -101q-34 -34 -124 -34q-89 0 -152 87q-41 -38 -90 -61q-24 -10 -49 -16t-50 -6q-50 0 -90 36t-40 72q0 34 9 46t30 12l13 -7l27 -11q8 0 18 5l8 -3q47 31 67 99q12 44 12 135
q0 92 -63.5 165.5t-168.5 73.5q-103 0 -161 -83q-49 -74 -49 -167q0 -94 20.5 -148t77.5 -96l2 -2l32 11l37 11l7 -24l4 -45q0 -29 -42.5 -63.5t-86.5 -34.5q-45 0 -94.5 25.5t-84.5 59.5q-66 -75 -142 -75q-74 0 -121 27q-52 31 -52 66q0 38 5 52l16 44l33 -23
q22 -14 51 -14q27 0 52 102t25 304q0 201 -54 389q-49 170 -172 387l34 7l35 2q26 0 87 -29q65 -28 83 -28q20 0 39 16l30 32l29 -20q27 -16 57 -16q17 0 36 3t46 11q104 29 137 29l-82 -178q-44 -108 -44 -192t54 -146.5t109 -62.5q54 0 81.5 9t50.5 24q52 34 73 84
q17 42 17 141q0 100 -77 205h-5l-40 61l-32 50l56 4q29 0 87 -19.5t86 -19.5l10 1l6 2q19 5 39 26l21 20q26 -22 46 -31q10 -4 21.5 -6t30.5 -2q32 0 89.5 19.5t81.5 19.5q26 0 45 -4l39 -7q-105 -167 -153 -346zM721 1021q0 59 28 127q11 26 26.5 55.5t38.5 66.5l71 111h33
q31 -54 53.5 -119.5t22.5 -137.5q0 -71 -52.5 -137.5t-116.5 -66.5t-84 30t-20 71zM970 317q-18 6 -35 20l-29 25l-24 -36q-12 -20 -45 -20q-30 0 -65 39q-32 40 -32 97t61.5 122t124.5 65q64 0 94 -20q35 -24 35 -79q0 -56 -19 -117q-24 -79 -66 -96zM972 353q-7 3 -32 27
q-19 19 -37 19q-17 0 -33.5 -27t-21.5 -30q-14 5 -24 10q-17 8 -28 19q-20 20 -20 66q0 47 51 101.5t98 54.5q49 0 72.5 -12.5t23.5 -54.5q0 -40 -9 -88q-12 -66 -40 -85zM1040 535q0 42 -32 62q-24 15 -82 15q-54 0 -111.5 -59.5t-57.5 -111.5q0 -50 27 -84t52 -34
q24 0 35 17q24 37 35 40q9 -3 41 -32q13 -11 28 -16q38 28 55 93q4 19 7 48.5t3 61.5zM1364 177q53 0 86 24q30 24 43 76l-17 -1h-40q-28 0 -61 27q-29 26 -46 81q-23 86 -33 182q-4 43 -7 109.5t-3 135.5q0 149 45 328q49 194 147 343q-14 3 -27.5 5t-28.5 2
q-28 0 -91 -18.5t-97 -18.5q-33 0 -56 13l-28 19q-11 -17 -32.5 -30.5t-46.5 -13.5q-24 0 -79.5 19.5t-78.5 19.5l-37 -3q56 -70 93 -158q42 -99 42 -187q0 -87 -56 -155q-61 -73 -153 -73q-91 0 -150 69q-54 63 -54 139q0 77 19 141q15 51 45 118l53 110q-37 0 -99 -21.5
t-91 -21.5q-27 0 -47 7q-8 3 -18.5 9t-20.5 14q-33 -30 -44.5 -36t-31.5 -6q-18 0 -79.5 28.5t-87.5 28.5q-28 0 -43 -5l7 -12q103 -170 154.5 -359.5t51.5 -363.5q0 -172 -12 -265q-24 -186 -66 -186t-58 8t-29 19l-10 -27q-3 -9 -3 -38q0 -26 46 -56q39 -24 113 -24
t139 84q33 -37 84.5 -65.5t94.5 -28.5q45 0 79 31t34 58q0 29 -5 40q-6 0 -29 -10l-26 -8l-14 5q-58 37 -85 107q-21 56 -21 154t54 176q62 88 173 88t181 -80q66 -75 66 -170q0 -92 -27 -166q-33 -93 -69 -93q-33 0 -51 9l-19 9l-10 -4q-6 -8 -6 -37q0 -28 35 -60
q37 -31 83 -31q49 0 97 25.5t90 67.5q27 -47 71 -72t98 -25zM905 1345q59 -89 59 -174q0 -84 -14 -122t-60 -68l-41 -20q-21 -7 -42 -7q-23 0 -37 18q-13 20 -13 60q0 42 25 102q22 53 58 111zM983 1145q0 57 -19 118.5t-50 100.5h-20l-101 -164q-55 -102 -55 -159
q0 -56 18 -81t48 -25q32 0 48.5 7t19.5 8q14 7 29 16q47 31 67 78q15 36 15 101zM920 91q48 -51 101 -82q63 -36 114 -36q52 0 89 23l69 39q33 -32 76.5 -52.5t103.5 -20.5t123.5 69.5t63.5 131.5q0 60 -37 109l-74 83q-43 49 -56 90q-18 63 -27 132q-4 35 -6 80t-2 113
q0 63 11 130.5t34.5 149t57.5 154.5t83 146v40q-3 7 -63 74.5t-75 78.5q-4 4 -20 4l-37 2q-20 0 -69 -15t-82 -23t-48 -8q-29 0 -51 13t-42 40l-39 -31l-39 -30q-53 9 -105 19q-21 4 -105 22l-50 -3q-19 -3 -19 -21l9 -25l-31 30q-23 25 -54 25q-15 0 -37.5 -6t-53.5 -20
q-61 -25 -96 -25t-58 17.5t-41 57.5l-30 -50q-20 -31 -43 -31q-22 0 -58 18q-76 38 -106 41l-40 1h-30q-16 0 -28.5 -8.5t-24.5 -29.5l2 -4q89 -161 136 -270q54 -129 78 -255.5t24 -259.5q0 -140 -8 -208q-13 -135 -52 -145l-17 17l-17 21q-51 0 -73 -52q-15 -36 -15 -117
t97.5 -174.5t172.5 -93.5q76 0 114 22q54 30 72 37q31 -26 70 -43q42 -16 91 -16q52 0 93 29q36 24 66 84z" />
    <glyph glyph-name="I" unicode="I" horiz-adv-x="926" 
d="M106 1502q9 -42 34 -94l69 -153q43 -132 67 -272t24 -291q0 -150 -23.5 -259t-62.5 -109l-41 13l-14 12q-6 10 -11 12l-14 -25l-11 -2l-5 -27l-1 -67q0 -54 87 -143.5t158 -89.5q69 0 117 36q25 20 44.5 29t37.5 9q61 -39 102 -56q36 -12 84 -12q49 0 106.5 50t57.5 112
q0 61 -27 120q-30 65 -86 89l-7 1l-13 -5l-13 -9q-54 42 -70 142q-3 23 -5 86.5t-2 169.5q0 212 121 484q5 12 14 30t26 48l24 46l-3 7q-12 16 -30 32q-14 12 -48 39q-62 47 -82 47q-19 0 -72 -27.5t-79 -27.5q-24 0 -60 21q-21 12 -52 37l-5 -5q-14 0 -44 -25.5t-67 -25.5
q-38 0 -113 25q-36 13 -65 20.5t-47 7.5zM119 1487q35 0 60.5 -3t45.5 -11q87 -31 107 -31q24 0 58 20q19 10 31.5 19t20.5 19h11q39 -37 61 -50q9 -4 20 -7t23 -3q25 0 62.5 11.5t57.5 11.5t43 -15q10 -7 16 -13q3 -3 16 -17q-64 -126 -110 -322q-21 -96 -32 -178t-11 -150
q0 -135 21 -237q30 -150 101 -191l20 -4q13 0 33 14l31 29l27 -45q11 -25 11 -68q0 -44 -53.5 -93t-111.5 -49q-57 0 -110.5 33.5t-83.5 82.5q-46 -55 -89 -84q-57 -39 -118 -39t-108 45.5t-47 95.5q0 49 12 78l19 3l20 -2l22 -10l25 -5l21 5q39 58 56 199q9 84 9 236
q0 156 -56 359q-22 80 -55.5 175t-75.5 191zM826 283q0 39 -24 69q-27 -33 -54 -33q-25 0 -36 7q-53 32 -86 117q-25 67 -37 164q-3 31 -5 75t-2 102q0 118 43 312q22 99 48 177t59 142q-14 14 -26.5 21.5t-28.5 9.5q-13 0 -35 -5q-23 -7 -36.5 -10.5t-25.5 -5.5t-26 -2
q-26 0 -58 19l-54 41l-6 -1l-48 -37q-31 -20 -57 -20q-14 0 -29.5 3t-37.5 11q-93 31 -119 31q80 -164 126 -372t46 -386q0 -180 -26.5 -293.5t-53.5 -113.5q-18 0 -26.5 1t-22.5 7q-21 9 -34 9q-11 0 -16 -3l-3 -18v-44q0 -32 42 -77.5t102 -45.5t119 46q43 33 88 91
q25 -53 78.5 -91.5t108.5 -38.5q56 0 104.5 45t48.5 97zM813 417l-22 4q-10 0 -22 -6q-29 29 -40 126q-5 52 -5 240q0 193 117 456l50 96q17 35 19 43q0 7 -4 12v13q-14 27 -92 82t-103 55q-24 0 -79 -27.5t-75 -27.5q-18 0 -61 31l-57 42q-20 -33 -47 -52t-63 -19
q-18 0 -46 6t-66 20q-75 27 -103 27t-37 -5q-9 -3 -9 -27q0 -22 37 -103l54 -116q52 -130 81.5 -273.5t29.5 -263.5q0 -129 -8 -206q-12 -130 -43 -185q-15 0 -38 20q-22 22 -47 22q-20 -17 -35 -57q-13 -41 -13 -110q0 -70 98 -166.5t178 -96.5q79 0 125 34t65 39
q43 -30 92.5 -48.5t106.5 -18.5q58 0 127 60t69 138q0 76 -33 139t-101 103zM805 400q63 -36 93 -94.5t30 -130.5q0 -68 -63 -123.5t-123 -55.5t-128 34l-61 33q-18 0 -66.5 -36.5t-123.5 -36.5q-74 0 -166 90.5t-92 172.5q0 84 38 129q11 -3 32 -24q17 -18 32 -18
q17 0 23 2q27 18 43 131q8 59 12 119t4 136q0 145 -31 291.5t-82 274.5l-53 113q-35 78 -35 110l28 2q23 0 98.5 -26.5t111.5 -26.5q39 0 68.5 17.5t49.5 45.5l55 -41q36 -24 61 -24q23 0 74 27.5t75 27.5q27 0 93 -50q57 -42 85 -75q0 -8 2 -12l2 -7l-43 -83l-24 -46
q-119 -268 -119 -483q0 -220 14.5 -283t46.5 -88l14 7l11 3z" />
    <glyph glyph-name="J" unicode="J" horiz-adv-x="1223" 
d="M1156 1203h-6l39 80q20 39 26 73l-50 70l-51 68l3 5h-6q-37 2 -85 -13q-112 -31 -143 -31q-34 0 -61.5 11.5t-46.5 42.5q-10 -12 -18.5 -20.5t-23.5 -19t-47 -10.5q-30 0 -106.5 28.5t-99.5 28.5l-32 -1l-16 -1q59 -136 97 -242q48 -134 76 -256q15 -70 23 -140t8 -142
q0 -148 -11 -218q-23 -153 -100 -207q-18 21 -72 108.5t-89 125.5q-53 57 -112 57t-109.5 -49t-50.5 -102q0 -51 31 -92q17 -21 24.5 -35t7.5 -26q-16 -31 -30.5 -73.5t-14.5 -64.5t41.5 -78.5t58.5 -67.5l50 32q15 6 49 6t197 -43q37 -9 79 -14t93 -5q99 0 188 120
q29 -10 88 -37q94 -44 152 -44l13 1q-92 284 -92 505q0 223 30 372q15 74 37 147t52 144zM1114 1494q-94 -194 -138.5 -403t-44.5 -387q0 -95 3 -168t11 -142q15 -132 46 -246q-83 0 -127 27q-39 26 -71 73q-47 -59 -108.5 -95t-116.5 -36q-58 0 -212 43q-73 19 -108 19
q-25 0 -35.5 -1t-25.5 -7q-22 -6 -49 -21l-7 29l-3 30q0 11 1 17t7 20l23 62q-5 11 -40 61q-24 33 -24 83t49.5 96.5t111.5 46.5q61 0 97.5 -42.5t36.5 -87.5q0 -43 -16 -75l-25 -55q23 -20 54 -33t54 -13q10 0 20 1t18 4l30 15l7 -7q65 76 92 177q22 85 22 248
q0 168 -53.5 380t-155.5 406l14 1h34q22 0 93 -28.5t100 -28.5q32 0 53 11q12 6 38 29q25 -22 49 -33.5t60 -11.5q39 0 113 20q87 23 120 27zM914 655q0 222 42 416.5t132 406.5l-215 -43q-60 0 -104 40q-30 -22 -44.5 -27.5t-42.5 -5.5t-105.5 27.5t-118.5 27.5
q81 -169 135 -360q60 -215 60 -425t-43 -320q-47 -120 -115 -120q-65 0 -101 15q-32 15 -64 42l31 70q12 26 12 63q0 38 -33.5 79.5t-86.5 41.5q-50 0 -98 -45q-22 -22 -34 -45t-12 -47q0 -45 33 -87q33 -38 34 -53q0 -12 -15.5 -47t-15.5 -53q0 -20 5 -31q20 9 43.5 15
t53.5 6q31 0 187 -43q73 -19 131 -19q62 0 127 42q55 36 102 103q30 -55 72.5 -84.5t102.5 -29.5l-2 12q-26 127 -39.5 247.5t-13.5 230.5zM1128 1536q-59 0 -131 -22.5t-112 -22.5q-39 0 -59 15q-8 10 -19 22.5t-22 22.5l-9 3q-13 -3 -38 -32q-23 -29 -56 -29
q-15 0 -43 7.5t-65 21.5q-75 30 -107 30q-31 0 -49 -7t-24 -27q110 -229 159 -407q57 -209 57 -367q0 -157 -16 -233q-19 -94 -63 -153q-9 12 -71 115q-44 75 -82 110q-51 48 -127 48q-73 0 -132.5 -57t-59.5 -114t18 -90l42 -67q-19 -38 -32 -78.5t-13 -72.5q0 -31 54 -104
t73 -73t45 20q29 19 68 19q42 0 151 -31q55 -15 108.5 -23t106.5 -8q105 0 199 113l109 -49q59 -25 106 -25q48 0 67 26q-44 97 -74 289q-24 161 -24 304q0 71 7 143t22 145q30 145 87 283q4 11 19 41l25 50q29 58 29 76q0 19 -37 69zM1162 1190q-28 -67 -50.5 -140.5
t-38.5 -147.5q-29 -147 -29 -372t96 -510l-16 -8l-39 -2q-29 0 -100 27l-113 51q-31 -54 -105 -87q-66 -30 -123 -30t-220 43q-76 19 -110 19q-37 0 -61 -12l-44 -27q-16 0 -66 68t-50 92q0 27 14 68l31 79q0 11 -30 54t-30 99t54 107t124 51q69 0 121 -55
q28 -29 75.5 -114.5t79.5 -114.5q53 60 78 166q9 41 14 100.5t5 141.5q0 160 -54.5 372.5t-159.5 409.5q6 9 17 12t38 3q26 0 101.5 -29.5t105.5 -29.5q32 0 49 11l50 49l43 -47q15 -15 59 -15q43 0 148 31q51 15 83 15l10 -1l57 -76l57 -81q-3 -16 -13 -41l-17 -42l-30 -65
l-7 -16l-2 -3z" />
    <glyph glyph-name="K" unicode="K" horiz-adv-x="1678" 
d="M169 362l-8 -20l-6 -19l-4 -3l-1 -21q-6 -35 -6 -83t82.5 -126.5t144.5 -78.5q65 0 126 35q46 24 86 56q22 -18 43.5 -33t43.5 -26q52 -26 103 -26q52 0 85.5 17t59.5 61q33 -10 79 -35q88 -47 138 -47q49 0 129 57l68 52q48 -50 90 -76q56 -35 112 -35q58 0 102.5 41
t44.5 101q0 61 -47 126q-58 82 -63 94l-5 -3l-4 3l-35 -24q-20 -15 -41 -15q-20 0 -113 124l-171 235q-98 131 -135 145l-28 10q66 136 196 264q116 116 257 207l44 25q27 15 37 31l-125 131q-11 4 -36 8l-50 2q-32 0 -131.5 -31.5t-135.5 -31.5q-13 0 -27.5 0.5t-33.5 3.5
l-49 13l-1 -6l-10 4q-21 -179 -66 -278q-26 -56 -69.5 -111.5t-106.5 -111.5l-14 38q-6 20 -6 54q0 33 36 98q15 25 127 169l-126 165q-13 4 -25 4.5t-19 0.5q-29 0 -93.5 -18.5t-90.5 -18.5q-27 0 -47 5l-35 10l-13 8l-16 -19l-16 -16q-11 -3 -23.5 -5t-29.5 -2
q-34 0 -81 11q-124 27 -145 27l12 -21h-12q106 -168 163 -359t57 -342q0 -150 -24 -261q-33 -156 -69 -156t-51 8zM155 323l20 9q17 0 32.5 -5t41.5 -5q27 0 63 176q27 137 27 272q0 137 -56.5 324.5t-155.5 362.5q66 0 123 -15.5t79 -15.5q20 0 36.5 6t28.5 15q24 8 44 27
l32 -17q17 -5 36 -5q18 0 59 9q78 18 102 18t51 -9l47 -19q-63 -120 -98 -227q-41 -131 -41 -208q0 -78 6 -123q155 88 248 239q50 81 75 157q29 86 29 175l41 -14l55 -4q40 0 137.5 32t135.5 32q40 0 54 -13t24 -38q-139 -114 -266 -257q-141 -157 -215 -298
q40 -20 90 -65.5t112 -119.5l199 -255q101 -131 140 -146q16 3 40 23l35 29q18 -18 27.5 -47.5t9.5 -69.5q0 -42 -46 -78q-42 -33 -102 -33q-57 0 -112 27t-99 74q-24 -48 -82 -77.5t-132 -29.5q-75 0 -118 56q-30 39 -50 141l34 -17q34 -17 58 -17q23 0 35 23h14
q0 98 -53 176q-43 65 -119 129q-22 19 -56 45.5t-72 53.5q-24 -18 -44.5 -56.5t-20.5 -113.5t31 -150q24 -62 70 -90q4 -2 33 -2l38 3q12 0 27.5 -9.5t15.5 -47.5t-53 -79q-49 -37 -105 -37q-57 0 -110.5 24.5t-88.5 66.5q-30 -39 -81 -61t-113 -22q-63 0 -107 39.5
t-44 114.5l2 10q1 6 2 7zM830 340l-29 7l-20 62q-6 24 -6 63q0 40 12.5 67t49.5 58q65 -45 107 -94q55 -66 55 -104v-26q0 -15 -2 -28t-8 -23q-73 0 -127 11zM828 377q-17 43 -17 77q0 33 6 57.5t22 39.5q53 -37 86 -83q21 -28 31.5 -54t10.5 -56q-32 0 -63 4.5t-76 14.5z
M986 339q0 76 -45 141q-38 53 -103 95q-24 -12 -36 -45q-4 -14 -7 -30t-3 -29q0 -26 9 -59l12 -50q9 -4 29 -8.5t61 -9.5t83 -5zM618 869q-9 54 -9 138q0 43 9 94t29 114q30 98 90 219l4 9q-8 5 -13.5 7t-23.5 7q-20 4 -29 4.5t-14 0.5q-12 0 -29 -3t-46 -11
q-59 -13 -77 -13q-10 0 -20 1t-18 4l-42 19q-14 -21 -39.5 -35.5t-52.5 -14.5q-15 0 -30 2t-40 8q-90 21 -121 21q105 -188 153 -352q53 -182 53 -333q0 -75 -7 -145.5t-22 -134.5q-39 -170 -102 -170l-14 3q-11 7 -28 7l-11 -6q0 -72 40 -108q37 -32 99 -32t113 26t75 72
q25 -46 83 -76t112 -30t100 34t46 84l-1 7l-4 6q-8 8 -38 8l-38 -3q-71 0 -108 124q-12 40 -19 80t-7 72q0 64 24.5 109t57.5 65q72 -50 126 -97q84 -72 129 -132q58 -79 58 -131q0 -54 -14 -76q-18 -29 -44 -29q-25 0 -42 6l-31 15q15 -77 49 -111q38 -39 105 -39
q66 0 125 33q63 36 73 91q46 -55 98 -84q62 -34 117 -34q56 0 95 30t39 64t-7 56l-14 37l-36 -27q-24 -18 -48 -18q-22 0 -134 140l-214 273q-130 154 -207 181q28 56 58 102.5t76 104.5q71 91 167 187q71 71 179 170l5 5q-14 29 -56 29q-43 0 -140.5 -32t-144.5 -32t-82 15
q0 -91 -27.5 -174.5t-78.5 -164.5q-93 -150 -257 -235zM1563 411q-16 0 -38.5 -19t-33.5 -22q-18 9 -102 126l-157 219q-92 122 -142 152q66 118 187 235q105 100 235 186l63 40q37 28 37 58l-72 74l-70 75q-8 8 -36 13l-65 4q-40 0 -137 -32q-51 -16 -84.5 -23.5
t-55.5 -7.5q-39 0 -75 9t-67 24q0 -147 -49.5 -268t-152.5 -223q0 63 53 141l113 149q0 11 -61.5 94.5t-82.5 104.5l-3 2l-28 7q-14 3 -38 3q-25 0 -89.5 -18.5t-91.5 -18.5q-28 0 -52.5 6.5t-38.5 16.5q-29 -42 -75 -42t-125 19q-42 10 -69 15t-47 5q-37 0 -58 -7
q114 -172 181 -383q33 -105 50 -191t17 -155q0 -134 -21 -253q-25 -145 -62 -151q-9 1 -28 14.5t-36 15.5q-14 0 -32 -57q-16 -59 -16 -126q0 -69 93.5 -158t165.5 -89q71 0 130 30q34 17 85 52q43 -33 92 -56q49 -20 98 -20q52 0 93 17q43 16 70 54q19 -6 92 -46
q53 -29 102 -29q47 0 109 33q41 22 92 64q47 -45 93 -69q56 -30 119 -30q62 0 118.5 51t56.5 115q0 62 -57 166t-97 104zM165 386l26 -18q18 -12 48 -12t61 155q22 116 22 257q0 150 -65 352q-58 184 -171 374l37 2q26 0 102 -20q40 -9 67.5 -14t45.5 -5q34 0 57 9t39 28
l39 -12q24 -6 48 -6q23 0 89.5 18.5t94.5 18.5q33 0 53 -8q17 -17 74 -91.5t62 -89.5l-104 -132q-61 -88 -61 -130q0 -43 10 -66q118 124 168 224q29 60 45.5 128.5t16.5 144.5l57 -17q29 -6 67 -6t138 31.5t134 31.5q35 0 56 -3t37 -9l135 -142q-2 -10 -13 -21l-20 -19
l-59 -34q-126 -81 -247 -199q-136 -133 -191 -249q44 -12 145 -143l172 -238q89 -123 106 -125q16 0 40 18t38 23q41 -20 87.5 -105.5t46.5 -143.5q0 -57 -50 -103q-24 -22 -52 -34t-58 -12q-57 0 -116 33q-45 26 -91 72l-70 -50q-73 -53 -127 -53q-29 0 -54 7t-56 25
q-66 38 -98 47q-20 -38 -66 -59q-38 -16 -87 -16t-102 24q-45 20 -88 56l-87 -54q-59 -32 -127 -32t-155 83t-87 145q0 61 12 107.5t26 56.5z" />
    <glyph glyph-name="L" unicode="L" horiz-adv-x="1350" 
d="M136 391q-8 -10 -17 -22.5t-15 -23.5q-15 -27 -15 -52q0 -24 8 -40q3 -8 19 -32q22 -41 34 -57q19 -29 42 -52q42 -42 85 -63q52 -26 97 -26q46 0 77 17q13 6 92 78q80 -48 147 -72.5t137 -24.5q68 0 180.5 36t186.5 36q73 0 135 -59l7 25l3 24l-3 26l-3 24
q-29 24 -29 49q0 24 22.5 70.5t22.5 101.5t-82.5 158t-149.5 103q-66 0 -107.5 -33t-41.5 -74t14 -70l24 -52q-27 -33 -60 -50q-31 -14 -104 -14q-72 0 -120 51q-37 40 -46 124q-3 30 -3 175q0 147 31 305t99 289l33 53q20 30 27 55l-105 141l2 10q-21 0 -61 -12
q-10 -3 -55 -18q-80 -26 -112 -26t-54 12t-44 41q-29 -17 -57 -27t-60 -10q-31 0 -64.5 6.5t-63.5 13.5q-40 12 -64 18l2 -7l-10 1q20 -67 30 -100q19 -63 53 -167q47 -153 73 -278q16 -78 24 -132.5t8 -91.5v-16v-13q0 -42 -3 -56l-8 -47q-7 -61 -10 -85t-10 -70
q-24 -108 -60 -108q-35 0 -52 14l-23 22zM138 389q11 -15 27 -27q15 -8 31 -10l19 1q6 8 15 9l3 5q48 69 66 173q13 80 13 190q0 114 -33 263q-22 103 -74 263q-59 192 -78 260l185 -41q62 0 116 39l44 -32q23 -15 56 -15t106 25.5t110 29.5l11 -4l2 -2l-74 -238
q-42 -139 -63 -238q-27 -132 -27 -242q0 -109 24 -225q28 -139 79 -200q30 -36 71 -51.5t114 -15.5q72 0 127 74l-2 6l7 8q-21 24 -30 42q-13 26 -13 62q0 39 42 75t98 36q55 0 96.5 -39t41.5 -89t-21.5 -87.5t-59.5 -63.5q44 -53 55 -81q10 -30 10 -97l-66 33q-21 8 -40 12
t-45 4q-49 0 -171.5 -27.5t-196.5 -27.5t-138 38q-30 18 -118 91q-32 -56 -81 -92.5t-96 -36.5q-49 0 -98.5 23t-65.5 52q-2 3 -5 13l-6 20l-3 47q0 25 8.5 44.5t27.5 43.5zM322 688q0 -12 -2 -22t-3 -16l-6 -36l-18 -150q-18 -86 -71 -127l-29 -2q-13 0 -26 7t-27 22
q-34 -29 -34 -77q0 -46 57 -87q54 -37 109 -37t107 43q41 35 73 95l121 -96q66 -42 137 -42t198 27.5t167 27.5q44 0 68 -7q26 -6 72 -31q0 53 -24 88l-47 64q46 40 62 60q25 34 25 85t-35 86t-86 35q-52 0 -88.5 -29t-36.5 -63t17 -71l25 -58q-59 -88 -141 -88t-126 16.5
t-77 56.5q-51 62 -83 205q-24 113 -24 227q0 113 27 245q10 48 24 102t38 128l71 236l-215 -55q-59 0 -91 50q-27 -15 -57 -23.5t-56 -8.5t-65 6l-111 22l81 -262q45 -152 70 -271q30 -149 30 -275zM1107 645q-69 0 -121 -46t-52 -105q0 -58 32 -100q-17 -17 -43 -28
q-26 -8 -63 -8q-38 0 -78 17q-49 21 -56.5 52.5t-11 53.5t-3.5 42l-2 165q0 61 7 129t22 142q33 165 97 290l39 65q26 44 26 64q-5 14 -57.5 86t-62.5 80q-19 14 -46 14q-26 0 -95 -26.5t-103 -26.5q-35 0 -63 22q-32 26 -49 31q-43 -30 -66 -40q-23 -7 -52 -7
q-33 0 -102 23l-107 36l-16 -14q18 -97 75 -275q32 -100 51.5 -166t30.5 -108q38 -155 38 -282q0 -132 -19 -212.5t-51 -121.5l-12 -2q-13 3 -30.5 24t-34.5 23q-63 -60 -63 -156t100.5 -194.5t182.5 -98.5q81 0 123 24q23 14 76 61q32 -21 66.5 -36.5t74.5 -28.5
q79 -22 139 -22q66 0 141 23q165 49 210 49q47 0 86 -21q30 -18 67 -58q25 31 34 52t9 59q0 39 -11 61l-24 37l31 79q14 36 14 98q0 63 -91 172t-187 109zM102 1549l112 -38q63 -19 110 -19q52 0 102 43l21 -14l21 -16q10 -8 32 -14q15 -3 22 -4t23 -1q12 0 34.5 6t57.5 20
q69 27 95 27q24 0 35.5 -10t58.5 -73.5t55 -80.5q-3 -16 -28 -58l-35 -59q-66 -126 -99 -294q-29 -150 -29 -297l1 -161q0 -39 10.5 -67.5t30.5 -51.5q42 -48 109 -48t96.5 12.5t53.5 42.5q-18 21 -28 45t-10 63q0 42 47 83t120 41q74 0 162 -107q84 -102 84 -162t-23 -107
q-20 -47 -22 -61q0 -12 6 -23.5t22 -23.5l6 -34l1 -24q0 -16 -6 -38t-18 -39q-63 69 -137 69q-73 0 -185 -36t-181 -36q-66 0 -144.5 23.5t-139.5 69.5q-26 -37 -73.5 -64t-122.5 -27t-169.5 93t-94.5 161q0 70 12.5 99.5t37.5 56.5l25 -28q15 -18 46 -18q32 0 60.5 103.5
t28.5 240.5q0 140 -37 291q-16 65 -81 272q-55 171 -75 272z" />
    <glyph glyph-name="M" unicode="M" horiz-adv-x="1862" 
d="M116 1506l3 3l-6 6l28 2q8 0 22 -3t36 -11q89 -29 119 -29q32 0 67 19q43 -23 89 -23q48 0 115 22q30 10 63.5 19.5t46.5 12.5q39 -36 83 -83l78 -88l-1 -34l-1 -83q0 -59 24 -158t75 -196q65 109 103 337q10 64 16 148t6 207l108 -43q75 -27 120 -27q43 0 84 27
q32 -16 65 -27q15 -4 35 -7t38 -3q39 0 99 16q20 5 46 13t58 19q20 -25 43 -64l63 -112q-89 -172 -139 -346q-27 -96 -41 -177.5t-14 -150.5q0 -137 10 -206q15 -105 52 -157q9 9 22.5 15.5t29.5 6.5t61.5 -68t45.5 -119t-47 -108q-50 -62 -110 -62q-30 0 -59 6t-59 20
q-21 9 -44.5 21.5t-54.5 31.5l-79 -49q-42 -24 -107 -24q-63 0 -148 82l-79 82q0 -40 6 -81l7 -55q0 -16 -2 -23t-23 -7q-20 0 -64 19.5t-71 43.5l-69 -35q-53 -24 -68 -26q-10 0 -33 24q-52 57 -68 64q-31 -31 -64 -51q-44 -25 -74 -25q-32 0 -64 16l-61 32
q-21 -25 -42 -38.5t-74 -13.5q-52 0 -129 86t-77 140t12 84t35 49l9 -14q9 -13 23 -18q56 0 77 171q4 36 6 92t2 146q0 167 -37 355q-40 209 -120 364l-10 18l-11 25q4 6 15 8zM109 1519l-3 3zM1077 19l-10 89l-3 97l117 -119q78 -69 134 -69q53 0 100 24q29 15 77 53
q73 -45 127 -66q46 -17 95 -17q48 0 95 57q42 53 42 96t-36 99.5t-58 69.5q-10 0 -27 -11q-20 -10 -27 -17q-44 74 -61 169q-12 68 -12 212q0 143 54 334q48 168 138 345l-92 157l-102 -30q-60 -15 -95 -15q-26 0 -36.5 1.5t-29.5 6.5l-59 21q22 -22 41 -30q21 -7 59 -7
q42 0 121 19l84 21q0 -34 -7.5 -66t-22.5 -64l-50 -115q-44 -120 -71 -258q-23 -132 -23 -228q0 -102 14 -189q18 -120 48 -192q39 -94 72 -94t53 10l29 18l15 -37q7 -23 7 -55q0 -33 -50 -74q-46 -37 -101 -37q-54 0 -112 35.5t-96 84.5q-33 -49 -76 -75q-50 -31 -123 -31
t-115 51q-36 45 -36 145l43 -11q-8 4 -20 23l3 10q31 122 65 199.5t103 187.5q0 126 -9 211.5t-32 150.5q0 -57 -17 -125.5t-51 -153.5l-111 -283q-56 -148 -56 -224q0 -79 4 -118l8 -65q-55 9 -83 24t-71 55q-25 -17 -41.5 -27t-36.5 -20q-25 -10 -82 -20q5 14 8.5 29.5
t5.5 24.5l10 55l-11 -3l-22 -3q-12 0 -29 16q-10 10 -24 31q2 -8 3 -18t1 -32q0 -35 -33.5 -67.5t-102.5 -32.5q-68 0 -115 57q-39 -71 -101 -71t-97 25q-32 25 -47 70q9 -63 78.5 -135.5t115.5 -72.5q44 0 68 18q6 4 15.5 14t22.5 25l61 -35q36 -18 68 -18t72 28l62 52
q27 -12 55 -43l48 -49q17 3 91 39l49 25q31 -25 70 -45.5t73 -20.5zM1408 1506l-6 6l-3 -2zM1399 1510l-4 2q-18 -11 -43.5 -18t-51.5 -7q-13 0 -30.5 3t-41.5 10.5t-56.5 19.5t-71.5 28l1 -25v-26v45q58 -35 91 -49q53 -22 90 -22q39 0 63 10q14 6 26.5 12.5t27.5 16.5z
M1101 1495q0 -170 -33 -334q-37 -187 -111 -314q-71 127 -95 242q-9 45 -14 109t-5 149l-74 82l-75 77l-10 -2l61 -234q43 -161 81 -271q48 -142 92 -209q95 126 143 293q20 72 30.5 137t10.5 121zM684 1504l-11 -3zM673 1501l-171 -46q21 0 43 3.5t44 9.5q39 11 84 33z
M502 1455l-8 -1q-33 0 -57 6t-53 23l-21 -18q10 2 22 8q43 -20 72 -20h20q11 0 25 2zM363 1465q-21 -7 -47 -7h-13q-10 2 -14 2l21 -6l24 -2q12 0 29 13zM289 1460l-50 17q-23 8 -43 13t-36 5zM160 1495l-24 5q-10 0 -16 -2l1 -3h39zM121 1495h-7q86 -199 126 -375
q44 -193 44 -380q0 -192 -18.5 -304t-41.5 -112l-39 3l-23 7q16 -16 57 -16q40 0 63 174q4 36 7 114t3 179q0 216 -81 489q-9 30 -17.5 53.5t-23.5 55.5zM162 334l-6 7l-4 -4zM152 337l-9 2l-13 -26q-6 -12 -6 -36q0 -21 6 -44l-2 44q0 28 24 60zM596 338l13 -18l13 -18
l-9 20l-9 16h-8zM1111 327q12 -7 29 -7l7 1zM1147 321q21 0 34 7l-19 -5zM1181 328l15 4q46 50 61 148q3 24 5 64.5t2 98.5l1 107l-3 -3q0 -160 -8 -225q-18 -161 -73 -194zM708 261h4l-1 28zM711 289l3 42q0 24 -9 66t-21 78q4 -15 10.5 -45t9.5 -51t5 -43.5t2 -46.5z
M684 475q-12 44 -37 107q-31 81 -47 92q53 -106 84 -199zM584 640l10 -27q5 -11 14 -19q30 -76 48 -151q8 -35 14 -76.5t6 -73.5l-21 25l-17 26q-45 51 -55 141l-1 153zM579 680l21 -6q-53 108 -78 191t-37 198q-21 -22 -28 -53q-3 -15 -5 -47t-2 -83l3 -253q0 -79 4 -125
t12.5 -78.5t23.5 -58.5q21 -34 51 -37q9 9 26 9l26 1q-40 56 -49 147l-1 156v11l8 8l25 -5v25zM579 663v-10l-7 2l-9 -10q0 -138 3 -165q9 -84 57 -147l25 -38q16 -21 27 -23l20 2q0 88 -19 167t-52 163l-17 28q-6 19 -12 25t-16 6zM1175 363l-18 -5l-17 -2l-10 2
q8 35 17 66.5t22.5 68t27.5 67t32 60.5q0 -91 -7 -133q-12 -73 -47 -124zM1247 645l1 44q-46 -73 -83 -163q-27 -71 -56 -173q9 -15 22 -16l32 3l23 6q41 33 54 142q3 29 5 67.5t2 89.5zM547 311q-38 0 -65 39q-15 22 -29 73q-8 30 -13 73t-5 106l-2 256q0 68 3 109t11 63
q14 39 48 65q6 -16 6 -31l3 -28q0 -40 10.5 -86t29.5 -100q26 -75 75 -176l49 -109q28 -66 44 -122q9 -35 14 -62t5 -50q0 -43 -6 -90q-4 -44 -15 -68q33 3 71 25l64 42l45 -40q39 -30 88 -39l-9 116q0 122 53 264.5t106 272.5q62 156 75 270l1 52q0 23 6 35l3 6
q35 -73 53 -192q14 -96 14 -218l-1 -148q0 -65 -7.5 -115t-21.5 -97q-32 -104 -72 -104t-67 7l-26 6q0 -86 43 -123q40 -34 104 -34q63 0 113 36q40 30 72 82q37 -52 92 -90q62 -42 114 -42q53 0 95 32.5t42 60.5q0 31 -5 42l-8 26l-27 -13q-19 -7 -51 -7q-33 0 -78 96
q-34 75 -54 198q-15 93 -15 195q0 101 24.5 239.5t70.5 256.5l48 105q13 29 21.5 58t8.5 54l-71 -17q-82 -19 -116 -19q-36 0 -65.5 9t-42.5 29q-48 -36 -102 -36q-53 0 -97 17q-30 12 -83 41l1 -53l1 -137q0 -52 -11 -113t-35 -143q-51 -170 -157 -305q-43 58 -98 208
q-40 113 -84 277l-62 236q-44 -19 -93 -34q-44 -11 -93 -11q-50 0 -100 25q-24 -27 -57 -27q-29 0 -92 21q-29 10 -54.5 16t-43.5 6q80 -168 120.5 -363.5t40.5 -361.5q0 -170 -10 -256q-21 -190 -57 -190q-38 0 -57 5l-26 7q-10 -22 -10 -57q0 -36 33 -71.5t79 -35.5
q45 0 73.5 23.5t45.5 64.5q42 -74 111 -74q68 0 98 27q28 28 28 59q0 32 -3 40l-11 26q-31 0 -35 -2l-6 -5zM1755 370q-22 0 -40 -14q-23 39 -36 112t-13 214q0 148 55 337q50 174 140 343l3 5l-76 134q-27 49 -47 62l-215 -50q-29 0 -68 12t-65 29q-37 -31 -82 -31
q-43 0 -133 33q-69 24 -119 49q6 -54 6 -148q0 -92 -27 -254q-30 -181 -80 -281q-50 97 -68 215q-5 36 -8 92.5t-3 130.5l-2 3q-13 15 -33.5 38.5t-52.5 57.5q-67 72 -87 86l-84 -27q-92 -29 -143 -29q-53 0 -93 26q-11 -8 -32 -15t-45 -7q-23 0 -85.5 21.5t-86.5 21.5
q-25 0 -41 -9t-16 -27l3 -3q91 -192 133 -378.5t42 -347.5q0 -169 -8 -248q-15 -165 -53 -169q-9 5 -19 20l-14 21q-70 -49 -70 -136t84 -178.5t138 -91.5q53 0 77.5 12t45.5 34q15 -9 31 -17q9 -4 26 -12q36 -13 67 -13q34 0 73 23q29 17 65 49q11 -8 34 -35q43 -49 61 -49
q19 0 72 24l67 33q37 -27 75.5 -43t63.5 -16q27 0 33 12t8 29v21q-3 11 -4 17l-8 60q82 -82 98 -94q58 -43 112 -43q31 0 52.5 4t48.5 16q46 19 83 49q56 -33 99 -51q60 -24 122 -24t119 69q52 64 52 122q0 57 -49.5 130.5t-82.5 73.5z" />
    <glyph glyph-name="N" unicode="N" horiz-adv-x="1544" 
d="M1010 1511l-4 9q18 0 56 -11l99 -23q34 -1 66 23l32 -17q18 -6 39 -6q20 0 69.5 14.5t83.5 17.5l109 -132q0 -19 -9 -49.5t-29 -73.5l-29 -67q-43 -156 -64 -314q-10 -77 -15 -144t-5 -131q0 -119 15 -215l31 -190q16 -101 16 -138q0 -42 -31 -42q-30 0 -91 31
q-44 23 -94 59q-17 -17 -26 -25q-17 -15 -43 -34q-40 -30 -80 -40l-120 111q-7 50 -21 101.5t-38 109.5q-42 106 -98 195l-241 393l-30 -176q-17 -107 -17 -161t9 -104l19 -90q37 0 100 -93q57 -87 57 -144q0 -56 -49 -99t-99 -43q-49 0 -74.5 13t-47.5 44q-41 -34 -61 -46
q-35 -20 -59 -20q-26 0 -40 5l-26 12q-75 40 -126 104q-60 74 -60 130q0 55 12 88.5t40 53.5q17 -26 35 -38.5t32 -14.5q58 27 82 152q14 78 14 203q0 71 -5 132.5t-18 137.5q-18 113 -60 256l-81 282l42 8l39 3q21 0 85 -24.5t88 -24.5q25 0 48 16l34 25q27 -16 54.5 -26.5
t68.5 -10.5q43 0 92 23q-17 -14 -46 -21t-62 -7q-11 0 -24 0.5t-32 7.5q-24 10 -51 31q-23 -25 -31 -30q-19 -14 -45 -14q-23 0 -87.5 24t-93.5 24q-26 0 -40 -2.5t-33 -10.5q65 -177 112 -375q27 -117 41 -213.5t14 -175.5q0 -160 -28 -274.5t-73 -125.5q-14 4 -35 14
l-36 17l-2 2l-7 2q-15 -24 -24.5 -46t-9.5 -66q0 -43 84.5 -138t133.5 -95t87 25q21 14 60 51q29 -38 44 -49q24 -18 72 -18q45 0 88.5 36.5t43.5 79.5q0 45 -23 90q-18 37 -44 68l-3 16l-4 15l-18 -3q-24 27 -61 43q-16 43 -25 92q-3 23 -5 49.5t-2 58.5q0 67 11 143
q0 11 44 250q40 -78 130 -227l145 -243q73 -132 101 -221l37 -124h12l4 -22l107 -98q36 12 76 43q27 21 65 59q57 -41 93 -61q62 -34 104 -34q0 65 -17 164l-30 189q-14 96 -14 210q0 120 21.5 279t63.5 316l29 66q32 69 37 112l-87 106l4 9h-12l-2 3l-83 -12l-75 -8
q-21 0 -34 5l-33 16l-32 -11l-29 -6l-160 25q74 -197 112 -373q42 -198 42 -385q-124 172 -178 279q-57 119 -105 313q-3 13 -62 63l-75 64l-14 40q41 -34 69 -58q18 -15 53 -47q44 -39 48 -56q43 -180 96 -293.5t160 -258.5q0 194 -45 383q-39 159 -111 337q5 6 17 6z
M1453 1485q-72 -169 -107 -361q-16 -94 -24 -183t-8 -179q0 -185 11 -314q0 -64 10 -139q2 -15 22 -139q-35 0 -61 5t-51 15q-40 14 -95 60q-52 -54 -65 -64q-39 -30 -84 -30q-15 94 -61 199q-39 94 -94 185l-268 439l-2 -8q-17 35 -44.5 106t-46.5 110q-19 -72 -30 -159
q-5 -42 -9 -85.5t-4 -81.5l-2 -152q0 -77 20.5 -193t33.5 -140t29 -37t32 -13h15q12 3 18 4l26 5l25 -28l2 -49q0 -38 -40 -77.5t-90 -39.5q-49 0 -83.5 23t-54.5 62q-22 -38 -56.5 -60.5t-88.5 -22.5q-52 0 -89 34q-35 35 -35 80q0 44 6 68.5t23 41.5l3 -2
q15 -18 32.5 -29.5t38.5 -11.5l24 11q54 54 75 162q13 75 13 199q0 133 -20.5 257.5t-59.5 260.5l-79 278l25 4l33 2q21 0 84 -24.5t89 -24.5q25 0 48 13l33 24q47 -33 108 -33q31 0 59 6t56 20q-24 -15 -54 -24q-14 -3 -28.5 -5t-32.5 -2q-33 0 -57.5 7.5t-49.5 24.5
q-12 -16 -32.5 -26.5t-45.5 -10.5t-89 24t-92 24l-34 -1q-8 0 -13 -4l3 -10q50 -151 75 -240q38 -134 60 -259q11 -59 17 -121t6 -124q0 -122 -16 -215q-24 -143 -85 -197l-8 -2l-10 -4q-7 0 -24 7l-50 22q-8 -8 -15 -30t-7 -55q0 -31 37 -64q37 -31 88 -31q52 0 87 34
q30 28 49 82q15 -51 45 -83q35 -35 89 -35q53 0 83 36t30 95l-4 23l-53 -9q-29 0 -50.5 15.5t-36.5 43.5q-17 28 -38 147q-9 59 -14 114.5t-5 107.5q0 105 12 244.5t46 265.5q25 -42 58 -120l48 -124q12 -33 35 -72l38 -66l132 -225q72 -121 118 -214q59 -121 97 -247
q45 0 101 55l44 47q44 -39 87 -61q39 -18 98 -26q-15 81 -20 116q-10 71 -10 140q0 47 -3 114q-7 156 -7 201q0 169 33 353.5t100 358.5q-33 0 -77 -9q-22 -4 -35.5 -6t-25.5 -2q-9 0 -20 1t-22 4q-22 6 -30 14l-30 -10q-18 -5 -30 -5l-129 20q68 -177 106 -365t38 -293
q0 -51 -1.5 -97.5t-2.5 -74.5q0 -30 -1 -47t-6 -52q-72 84 -171 270q-87 164 -168 355q-75 177 -117 306l6 3l10 -10l10 -9q50 -144 112 -288q72 -173 146 -314q84 -166 157 -262l5 145l12 -16q0 257 -42 437q-36 154 -106 329l148 -33q34 0 65 20q32 -19 64 -19l153 28z
M695 1479l10 5zM686 1496l29 19l2 -8l-3 4l-15 -8zM1460 1539l-91 -20l-79 -13q-15 0 -31 8t-33 22q-21 -18 -29 -22q-14 -8 -39 -8q-26 0 -78.5 17t-71.5 17t-31 -8q-10 -5 -11 -20q36 -88 61.5 -164.5t47.5 -163t34.5 -167.5t12.5 -159q-89 128 -136 235q-40 92 -80 258
q-6 25 -59 71q-119 101 -127 117q-39 -24 -69 -36q-33 -10 -67 -10q-37 0 -61 10.5t-53 31.5l-35 -27q-27 -19 -46 -19t-85 24q-28 11 -53.5 18t-38.5 7q-26 0 -56 -6l-46 -12l85 -290q41 -143 62.5 -270.5t21.5 -250.5q0 -130 -11 -193q-17 -105 -59 -147l-10 -4
q-8 1 -23 16q-6 7 -14 16t-21 27q-38 -21 -59 -62q-18 -39 -18 -105q0 -64 63 -142q53 -66 134 -111l33 -15q9 -3 16.5 -4t22.5 -1q24 0 58.5 16.5t61.5 40.5q42 -48 113 -48q73 0 126.5 48.5t53.5 115.5q0 66 -51.5 141.5t-108.5 108.5q-12 32 -20 77q-5 45 -5 94
q0 55 13 142q10 72 25 148l142 -225q91 -149 144 -262q68 -147 82 -263l134 -126q40 6 85 36q36 22 72 58q67 -47 119 -68q45 -16 68 -16q26 0 36 7.5t10 51.5q0 47 -16 140l-31 190q-15 95 -15 207q0 115 19 283q23 209 64 308l33 74q36 81 36 130z" />
    <glyph glyph-name="O" unicode="O" 
d="M643 1536q-185 0 -318 -121q-117 -106 -181 -289q-57 -164 -57 -346q0 -181 77.5 -361t215.5 -292q152 -123 386 -123q233 0 386 225q131 194 131 461t-101 456.5t-303 312.5q-67 41 -113 57q-58 20 -123 20zM1181 799q0 -92 -11 -169t-36 -152q-53 -164 -160 -255
q-122 -104 -351 -104q-227 0 -386 216q-139 192 -139 366t6 240t20 115q48 191 175 325q144 152 338 152t358 -176q153 -165 178 -377l6 -92zM835 756q0 -109 -8 -177q-11 -103 -37 -172q-21 -53 -75 -76q-26 -11 -66 -11q-20 0 -44 3q22 -11 56 -11t79 29t63 75
q22 67 34 184q8 90 8 208q0 130 -10.5 217t-30.5 113l21 -191q4 -44 7 -98t3 -93zM737 1151q-59 0 -85 -48q-33 -61 -50 -196q-7 -73 -11 -137t-4 -134v-208q0 -69 16 -85q16 -14 51 -14q37 0 77.5 26t55.5 67q11 32 18.5 72t15 118t7.5 163q0 43 -1 66q-5 115 -5 123
q0 48 -5.5 83.5t-13.5 58.5q-17 45 -66 45zM804 1138q-8 86 -35 129q-36 63 -86 63q-49 0 -75.5 -15.5t-44.5 -36.5q-48 -48 -73 -128q-20 -62 -26 -131l-4 -172q0 -44 2 -82q7 -132 7 -150q0 -55 9 -103.5t21.5 -89t39.5 -67.5q24 -24 66 -32q-35 19 -35 97l1 222
q0 147 14 275t52 194q30 57 86 57q55 0 81 -30zM852 756q0 -111 -8 -180q-11 -108 -38 -175q-20 -51 -66 -77q-39 -21 -130 -21q-90 0 -126 114q-13 44 -23 93.5t-10 99.5q0 38 -4 113t-4 112q0 49 2.5 115.5t2.5 70.5q0 43 11 88q4 15 15 49q26 80 77 132q20 21 51 40
q31 17 93 17q63 0 100 -94q12 -31 32 -176q6 -44 12 -90t6 -79q0 -30 3.5 -82.5t3.5 -69.5zM647 348q-41 0 -41 74l1 210q0 138 14 270.5t48 191.5q20 38 61 38t56 -35q7 -18 13.5 -58t6.5 -93l3 -152q0 -96 -10 -200q0 -47 -9 -89t-21.5 -76.5t-48.5 -58.5q-38 -22 -73 -22
zM1164 799q0 107 -8 179q-21 195 -169 362q-156 179 -339 179q-180 0 -308 -112q-112 -98 -171 -269q-54 -153 -54 -379q0 -224 135 -412q152 -211 416 -211q263 0 392 213q106 177 106 450zM623 1569q-180 0 -320 -131q-120 -112 -189 -306q-63 -176 -63 -360
q0 -182 81 -368q42 -98 99 -174.5t131 -134.5q160 -127 359 -127q200 0 342 112q128 101 195 278q29 78 45 176t16 207q0 222 -109 428q-114 216 -324 327q-66 35 -133.5 54t-129.5 19zM1300 715q0 -298 -137 -498q-156 -230 -396 -230q-239 0 -395 125q-140 113 -224 302
q-78 179 -78 359q0 179 60 349q65 186 183 299q135 129 254 129q121 0 185 -19t125 -52q206 -108 318 -321q105 -198 105 -443z" />
    <glyph glyph-name="P" unicode="P" horiz-adv-x="1431" 
d="M1211 1314q80 -103 80 -198q0 -94 -20 -159t-55 -122q-43 -68 -120 -101q-65 -27 -132 -27h-16h-14h-12q-21 0 -41 1t-39 4q-131 12 -170 12q-38 0 -54 -74q-9 -41 -9 -126q0 -86 20.5 -145t47.5 -59q28 0 46 4.5t68 24.5l-30 4q-30 3 -45 17l-10 88q0 49 19 90.5
t59 57.5l99 -6l163 -2q107 0 210 73q118 85 118 219q0 71 -10 127t-34 112q-44 104 -119 185zM1211 1314q-55 73 -150 130q-101 60 -170 60q-72 0 -174 -32t-142 -32q-41 0 -62.5 7.5t-48.5 23.5q38 -43 93 -43q57 0 160.5 35t172.5 35q70 0 169 -59q84 -49 152 -125z
M464 1471l-10 12l-22 -20l-15 -10l19 12l17 12zM417 1453l-18 -7l-32 -2q-22 0 -89.5 23t-91.5 23l-37 -1q-16 0 -25 -2q88 -171 134.5 -338t46.5 -294q0 -129 -9.5 -206t-28.5 -153l-28 -110q36 95 54 209q9 58 14 121t5 134q0 140 -45 305q-22 82 -54 161t-76 158
q9 5 21 7l33 2q24 0 83.5 -21.5t88.5 -21.5q31 0 54 13zM239 386l-11 -27l7 15zM228 359l-12 -18l-12 -13l15 9l4 11zM204 328q-16 -8 -42 -8q-25 0 -50 26l-7 -16l-3 -15q9 9 24 11q14 0 27 -5l25 -5q9 0 26 12zM102 315q-13 -16 -13 -52q0 -35 42 -73q-16 29 -25 62
q-2 11 -3 31.5t-1 31.5zM131 190q33 -62 88 -105q62 -50 118 -50q55 0 114 33q39 23 94 67q53 -46 90 -69q56 -33 108 -33t93.5 48.5t41.5 88.5q0 43 -28.5 97.5t-54.5 77.5q0 -44 -12 -79.5t-34 -62.5q-47 -59 -145 -59q-96 0 -147 90q-31 -46 -80 -70t-96 -24
q-48 0 -85 12.5t-65 37.5zM795 345l1 5l-5 -1zM122 1483l2 4q11 7 26.5 10t38.5 3q13 0 28.5 -3t37.5 -11q89 -29 115 -29q28 0 48 17l39 35q16 -28 42 -47q26 -17 69 -17q45 0 148.5 35t144.5 35t71 -6q14 -2 26.5 -5.5t28.5 -10.5q173 -71 288.5 -230t115.5 -338
q0 -177 -123 -267q-107 -77 -214 -77q-35 0 -71.5 0.5t-74.5 1.5l-122 5q-23 0 -46 -54q-17 -46 -17 -86q0 -39 3 -59.5t46 -20.5t83 -74.5t40 -123.5t-46.5 -101.5t-103.5 -52.5q-55 0 -110 31q-28 15 -90 66l-95 -64q-27 -15 -58.5 -23t-68.5 -8q-71 0 -154.5 93.5
t-83.5 148.5q0 56 6 79t21 36q21 -38 50 -38q31 0 43 11q33 34 64 224q26 167 26 292q0 131 -45.5 295.5t-134.5 318.5zM760 1270q-65 0 -107 -60q-37 -56 -37 -127q0 -72 45 -141q51 -77 122 -77q70 0 120.5 57.5t50.5 109.5q0 53 -20 82q-16 59 -65.5 107.5t-108.5 48.5z
M677 982q0 62 54.5 121t96.5 59t66 -14t40 -34l4 -24q3 -11 3 -55q0 -43 -36 -100q-42 -66 -104 -66q-61 0 -92.5 30.5t-31.5 82.5zM788 901q-33 0 -55 23q-20 25 -20 65t42.5 88.5t81.5 48.5t60 -24t21 -65q0 -39 -39.5 -87.5t-90.5 -48.5zM937 1049q0 36 -26.5 66
t-72.5 30q-45 0 -94.5 -53.5t-49.5 -101.5q0 -49 26 -78.5t76 -29.5q52 0 96.5 53.5t44.5 113.5zM958 1067q0 -83 -41 -145q-46 -70 -129 -70t-139 77q-50 70 -50 152q0 85 41 141q45 65 121 65q75 0 136 -71t61 -149zM1274 1083q0 131 -93 242q-83 98 -218 146
q-45 16 -92 16q-50 0 -153 -32t-147 -32q-42 0 -77 15l-39 18l-34 -20q-18 -9 -44 -9q-24 0 -72 15q-99 31 -118 31q-25 0 -36 -2q50 -110 68.5 -152.5t27.5 -68.5q17 -48 32.5 -106t25.5 -111t13.5 -101t3.5 -113q0 -114 -20 -244.5t-49 -203.5q-12 -31 -34 -51.5
t-39 -20.5q-20 0 -30 5l-21 5q-7 0 -16 -9q-7 -9 -7 -42t55 -70q48 -31 141 -31q94 0 157 112q21 -54 59.5 -81t103.5 -27q64 0 108 45q21 23 34.5 53.5t13.5 65.5l-46 -15q-14 -3 -29 -5t-36 -2q-38 0 -62 98q-13 60 -13 136q0 81 12 126q21 78 68 78t133 -9q42 -4 78 -6
t74 -2q69 0 131 26q74 30 114 94q31 52 53 118q9 31 14 61t5 60zM873 1534q-57 0 -160.5 -35t-144.5 -35q-42 0 -68 22q-20 17 -35 49l-57 -45q-19 -14 -42 -14q-24 0 -65 14q-89 29 -117 29t-51 -8t-41 -31q88 -140 136 -315t48 -315q0 -75 -5 -138t-18 -135
q-22 -132 -63 -216q-8 -3 -25 -5q-12 0 -27 15q-8 8 -19 33q-30 -21 -42 -46q-5 -11 -8 -34.5t-3 -59.5q0 -70 88.5 -167.5t162.5 -97.5q76 0 132 28q46 22 95 61q48 -40 92 -63q56 -28 115 -28q60 0 111.5 59t51.5 114q0 57 -44 137t-70 80h-35l-17 3q-6 38 -6 70
q0 34 11.5 63.5t37.5 45.5q24 -3 46 -5t48 -2h165q116 0 232 84q128 95 128 280q0 184 -121 350q-114 156 -295 234q-29 13 -56.5 18t-41.5 5.5t-23 0.5z" />
    <glyph glyph-name="Q" unicode="Q" horiz-adv-x="1430" 
d="M1291 414q24 89 36 152.5t12 205.5t-124.5 360.5t-303.5 330.5q148 -99 237 -287q84 -177 84 -305q0 -126 -10.5 -194t-18.5 -105q-4 -17 -15 -62l-15 -49q-9 -30 -9 -59q0 -26 18 -43q18 -15 47 -15t49.5 6t45.5 19zM911 1463q-123 82 -279 82q-157 0 -279 -103
q-105 -90 -172 -247q-59 -140 -72 -298q15 160 77 297q69 152 180 244q124 101 237 101q117 0 181 -20q36 -10 65 -22.5t62 -33.5zM109 897l-3 -60zM106 806l-1 -42l3 -47l-2 39v50zM108 717q0 -31 3.5 -63t11 -80.5t23.5 -100.5q57 -190 229 -341q183 -160 335 -160
q155 0 235.5 31.5t154.5 113.5q26 -21 47 -37t34 -24q53 -33 103 -33q48 0 94.5 39.5t46.5 91.5t-49 137q-19 33 -44 68l9 -30q2 -10 3 -20t1 -33q0 -35 -55.5 -80.5t-112.5 -45.5t-97 28q-30 21 -66 69q-60 -79 -158 -117q-84 -33 -262 -33q-177 0 -330 193
q-73 92 -112 192q-44 112 -44 235zM1332 359l-4 11l-4 -1zM667 1317q-78 0 -127 -125q-35 -91 -53 -257q-5 -50 -8 -113.5t-3 -134.5q0 -137 18 -220q34 -158 148 -188q7 -7 21 -14q16 -4 57 -4q45 0 84 117q15 47 25 107.5t10 130.5l4 184l4 172v20q0 25 -0.5 54.5
t-7.5 70.5q-15 91 -49 138q-45 62 -123 62zM642 279q-47 42 -63 196q-8 83 -8 207q0 45 3.5 133t3.5 118q0 60 8 105t24 87q24 69 85 69q60 0 97 -27.5t37 -80.5l5 -140l1 -181q0 -30 -4 -97t-4 -106q0 -73 -10.5 -125t-26.5 -84q-14 -32 -46.5 -55t-56.5 -23q-8 0 -18 0.5
t-27 3.5zM688 297q-53 0 -73 180q-8 83 -8 204q0 43 3.5 130t3.5 117q0 58 8 101t22 81q15 48 57 48q41 0 67 -18q20 -14 26 -59l4 -132l1 -185q0 -32 -0.5 -67t-1.5 -73q0 -63 -7 -115.5t-20 -101.5q-27 -110 -82 -110zM818 780l-1 166v21v18v14v12q0 45 -4 72q0 48 -33 71
t-83 23q-49 0 -73 -62q-17 -49 -24 -101.5t-7 -107.5q0 -33 -2.5 -113t-2.5 -111q0 -141 10 -221q21 -183 87 -183t99 111q15 51 23.5 105t8.5 118zM667 1334q83 0 132 -64q38 -51 56 -143q5 -29 8 -62t3 -68l-3 -113l-4 -114l-2 -167q0 -73 -10.5 -130t-30.5 -104
q-45 -111 -108 -111q-60 0 -92 12q-28 12 -54 33q-68 53 -92 198q-5 33 -8 85.5t-3 119.5q0 140 11 238q17 162 58 263q51 127 139 127zM1328 301q0 27 -10 46q-19 -9 -40 -15q-23 -5 -51 -5q-27 0 -54 20.5t-27 51.5q0 10 1 15l44 198q24 114 24 241t-70 289
q-74 171 -200 273q-139 113 -311 113q-171 0 -295 -121q-106 -103 -165 -282q-51 -156 -51 -327q0 -169 57 -321q62 -166 176 -258q129 -105 274 -105q143 0 230 36q95 40 154 126q36 -53 65 -76q41 -33 95 -33q55 0 102 38q52 41 52 96zM1331 420q23 69 33.5 140t10.5 200
q0 64 -25.5 148.5t-75.5 186.5q-100 205 -260 336q-177 144 -364 144t-327 -125q-120 -108 -190 -295q-63 -171 -63 -305q0 -137 10 -227q4 -44 11.5 -84t19.5 -76q60 -198 243 -359q192 -168 346 -168q155 0 241 29q98 33 164 102q53 -42 102 -64q40 -16 90 -16
q54 0 109 50.5t55 113.5q0 62 -48 148q-30 55 -82 121zM1442 160q0 -62 -51 -108t-101 -46q-48 0 -86 18q-17 9 -102 70q-62 -74 -161 -110q-84 -29 -237 -29q-154 0 -339 164q-174 153 -235 349q-11 34 -18.5 73t-13.5 85q-9 84 -9 218q0 136 61 301q66 182 185 289
q136 122 317 122q180 0 353 -141q154 -127 252.5 -328.5t98.5 -325.5q0 -123 -12 -208.5t-34 -135.5q27 -37 49 -69q18 -26 34 -52q49 -84 49 -136z" />
    <glyph glyph-name="R" unicode="R" horiz-adv-x="1619" 
d="M1295 47q0 18 14 32q12 14 31 14q10 -3 79 -49q30 -19 64 -19q36 0 79 31q48 35 48 90q0 56 -46 124q-49 73 -97 73h-25q0 34 -8 67.5t-23 73.5q-19 51 -57 119l-73 127q20 29 40 64q17 30 31 62q29 73 29 214q0 142 -163 296t-299 154t-192 -12q-28 -6 -56 -14t-60 -19
l-38 -14q-18 -6 -34 -6q-17 0 -45 14q-22 9 -40 22l-12 -10l-5 2q-20 -19 -38.5 -26.5t-46.5 -7.5q-29 0 -95 22.5t-88 22.5q-20 0 -31 -3l-17 1q111 -157 164 -350q45 -168 45 -371q0 -201 -33 -320t-66 -119t-51 9l-33 18q-10 -17 -10 -77q0 -63 59 -160q68 -113 149 -113
t134 35q33 22 85 75q52 -46 91 -66q52 -26 107 -26q57 0 88 41t31 122q0 83 -80 148l-6 15l-8 -4l-25 14l-14 9q-12 36 -12 99t41 122q45 65 92 65t61.5 -9.5t21.5 -22.5l3 -8l5 -11l36 -158q33 -166 100 -246q49 -62 88 -96q32 -29 60 -44.5t51 -15.5zM814 1518
q185 0 326 -105q152 -114 152 -248q0 -133 -44 -215q-36 -68 -108 -137l28 -22l27 -22q69 -60 105 -160q14 -37 42 -165q18 -86 46 -111q3 -3 14.5 -6t31.5 -3q37 0 78 -39q0 -68 -47 -102q-43 -31 -101 -31q-60 0 -105 32l-6 12v-6l-25 24l-23 20q-14 -26 -26 -36
q-17 -15 -34 -17q-19 0 -27 2l-36 38q-36 48 -69 200q-36 169 -68 227q-57 108 -154 108q-96 0 -136 -68q-32 -55 -32 -133q0 -76 24 -144q30 -87 63 -87q32 0 50 9l27 16l14 -11l9 -28q3 -11 3 -52t-37 -77.5t-98 -36.5q-57 0 -109 27t-82 72q-57 -99 -160 -99
q-102 0 -145 58q-19 25 -29.5 59.5t-10.5 78.5l44 -13l33 -5q15 0 31 22l18 33q39 71 55 167q11 72 11 237q0 170 -40 343q-50 218 -163 364l7 3q16 0 32.5 -1t25.5 -4q9 0 20 -4l60 -19q48 -15 88 -15q39 0 78 33l47 -18l44 -13q10 0 30 8l48 17q23 8 46.5 14.5t53.5 14.5
q62 14 103 14zM789 1309q-79 0 -130 -58.5t-51 -140.5q0 -80 48 -151q53 -76 129 -76q74 0 132 57t58 141q0 85 -44 151q-51 77 -142 77zM723 901q-9 15 -17 45q-4 24 -4.5 43t-0.5 30q0 46 46.5 120t99.5 74q50 0 87.5 -39t37.5 -102t-58 -124q-28 -29 -55.5 -45t-51.5 -16
h-11q-39 0 -50 4zM791 919l-21 3l-19 6q-3 6 -6 16t-5.5 22t-2.5 48q0 38 35 96q20 33 39.5 50t40.5 17q43 0 65 -35.5t22 -82.5q0 -46 -45.5 -93t-102.5 -47zM958 1069q0 45 -27 84q-31 43 -79 43t-94 -73q-40 -66 -40 -102q0 -38 5 -56l13 -52l23 -7q18 -6 57 -6
t90.5 51.5t51.5 117.5zM990 1102q0 -97 -61.5 -164.5t-148.5 -67.5t-141 85q-48 75 -48 159q0 85 56 148.5t142 63.5q85 0 145 -70q56 -67 56 -154zM1266 203l3 -5q18 -12 45 -21q14 -4 28.5 -6t36.5 -2q38 0 77 29t39 63q0 32 -56 43.5t-63 17.5q-29 29 -50 117
q-29 130 -40 161q-33 96 -102 156l-37 29l-33 27q75 67 114 137q47 83 47 213q0 129 -148 240q-132 99 -244 99q-108 0 -182 -21l-143 -41q-9 -6 -22 -6q-11 0 -49 13l-46 17l-39 -22q-22 -10 -46 -10q-26 0 -93.5 18t-107.5 23q101 -136 150 -342q42 -174 42 -298l-1 -171
v-12q0 -19 -1 -38t-4 -36q-6 -41 -14.5 -76.5t-23.5 -79.5q-38 -114 -66 -114q-29 0 -45 4l-32 9q0 -34 11.5 -63t32.5 -52q38 -42 104 -42q65 0 109 29.5t69 89.5q20 -50 74 -84.5t145 -34.5t91 64v41q0 24 -2 36t-7 26l-29 -15q-14 -6 -52 -6q-37 0 -73 92q-27 69 -27 155
q0 85 37 146q46 73 150 73q105 0 162 -118q16 -35 67 -245q36 -156 102 -210q3 -3 20 -3q16 0 34 27t27 33l17 -15l29 -27l13 -11l2 -3v2zM1337 55l58 -40q37 -26 88 -26t105 42q58 46 58 115t-54.5 147.5t-116.5 85.5q-5 42 -18.5 88t-37.5 96q-35 74 -95 166q43 67 66 128
q27 72 27 222q0 149 -173.5 313t-321.5 164q-149 0 -222 -19q-26 -6 -54 -14.5t-78 -26.5l-16 -4l-17 -1q-10 0 -44 20q-10 5 -20.5 11t-24.5 18q-14 -23 -38 -39t-55 -16t-96.5 22.5t-104.5 22.5q-38 0 -70 -39q120 -141 174 -364q42 -176 42 -340t-13 -248
q-18 -125 -64 -165l-9 -6l-44 21q-13 6 -28 8q-12 0 -25.5 -23.5t-13.5 -96.5q0 -72 70 -181q78 -123 166 -123t142 29q47 24 87 67q43 -37 94.5 -57.5t113.5 -20.5q59 0 104 54q39 48 39 122t-37 133t-101 96q-7 28 -7 74q0 49 30 97q35 55 71 55t49 -16l14 -23
q19 -45 39 -145.5t29 -130.5q23 -75 64 -127q56 -70 101 -108q73 -61 109 -61t46 17zM1627 150q0 -67 -53 -107q-47 -35 -92 -35q-44 0 -92 34t-54 34l-10 -4q-4 -3 -12.5 -22.5t-38.5 -19.5q-28 0 -98 61q-46 40 -94 101q-10 13 -20 29.5t-22 43t-24 70.5l-39 174
q-35 132 -92 132q-56 0 -98 -61q-35 -52 -35 -107q0 -54 9 -90q64 -29 100 -89t36 -126t-36.5 -112t-95.5 -46q-57 0 -110 25q-42 21 -91 61q-34 -40 -88.5 -72t-137.5 -32q-82 0 -156 119q-63 102 -63 169q0 68 8 81.5t13 14.5q6 1 37 -15q21 -12 30 -12q10 0 15 4l11 8
q49 47 70 171q13 86 13 247q0 167 -42 347q-51 221 -168 365q8 8 23 14t37 6q25 0 87 -23q68 -22 112 -22q47 0 85 47l43 -25q29 -14 40 -16q14 0 21 2l20 5q72 25 129 40q74 18 217 18t310 -158t167 -301t-29 -223.5t-68 -124.5q64 -96 101 -176q42 -95 56 -194
q62 0 118 -75q51 -69 51 -135z" />
    <glyph glyph-name="S" unicode="S" horiz-adv-x="1190" 
d="M1165 399q0 138 -57.5 249t-169.5 203l-23 44q93 0 128.5 35.5t35.5 97.5q0 64 -15.5 124t-15.5 87q0 26 9 53q18 53 18 64t-29 53l-42 57q-67 0 -107 -8q-24 -4 -82 -21q-60 50 -138 75.5t-204 25.5q-127 0 -247 -117.5t-120 -231.5q0 -113 15 -170q26 -106 83 -185
q25 -35 60.5 -70.5t83.5 -72.5t141 -71l152 -54q43 -18 75 -38t58 -48q3 -11 5 -26.5t2 -37.5q0 -41 -57 -82q-52 -35 -87 -35q-36 0 -57 3l-31 5q-103 171 -110 181q-80 108 -151 108q-69 0 -112 -40t-43 -91q0 -47 24 -89l30 -45q-25 -36 -40 -71l-23 -79l-4 -18l45 -56
l46 -55q30 24 65.5 39.5t78.5 15.5t117 -28l152 -57q40 -14 81 -21t88 -7q91 0 207 81t149 200q8 33 12 61t4 63zM938 851l2 -4l-43 27l-38 24q-39 25 -114 50l-125 37q-74 25 -123 62l-3 23q0 13 10.5 27t14.5 25q39 28 63 38t73 10q51 0 93 -39l-2 -26q0 -11 6 -29l-1 -9
q18 -22 87 -79q49 -41 77 -93h-18q-18 37 -102 106q-65 53 -65 123q-8 12 -35 21q-29 8 -60 8q-32 0 -68 -18l-37 -27l-10 -10q-9 -9 -9 -24q0 -16 2 -18l383 -161l-11 -1zM896 895l2 -2zM954 1466l43 -3q-3 -33 -15.5 -60t-35.5 -44l38 -89q9 -27 14 -54t5 -56
q0 -56 -35 -101t-88 -45q-29 0 -47 3t-38 13q-31 16 -43 46l19 114q0 60 -50.5 100t-114.5 40t-120.5 -43t-56.5 -120q0 -75 101 -140q63 -40 213.5 -96t198.5 -88l-2 4q79 -53 124 -146t45 -222t-124.5 -244.5t-233.5 -115.5t-191 22l-161 46q-80 23 -112 23q-34 0 -80 -10
l-83 -18q11 38 30 80q8 17 18 36.5t20 36.5q-10 15 -17.5 29t-15.5 33q-19 44 -19 74q0 32 40.5 76.5t92.5 44.5t101 -40t49 -91t-16 -86q9 -21 64 -43q33 -14 78 -25l54 -7l62 -2q35 0 78 45t43 107q0 61 -55 116q-40 40 -106 73l-123 60l-205 96l-3 3q-92 60 -138 139.5
t-46 221.5t121.5 259t253.5 117q133 0 197 -24.5t128 -75.5l5 2l70 19q17 4 37 7t32 3zM928 1358l34 47q16 19 16 42l-32 2q-13 0 -71 -16l-63 -16q-60 51 -136 77.5t-200 26.5q-122 0 -237.5 -113.5t-115.5 -243.5q0 -129 49.5 -220t131.5 -133l122 -59q169 -78 206 -98
q72 -34 114 -78q57 -57 57 -129q0 -69 -59 -119q-55 -46 -119 -46q-65 0 -139 26q-87 30 -97 68l12 37q5 22 5 56q0 36 -37 73t-91 37q-55 0 -91.5 -35t-36.5 -77q0 -41 19 -76l38 -60q-25 -34 -39.5 -64t-20.5 -64l68 16q38 8 72 8q20 0 45.5 -5t68.5 -18l159 -46
q85 -22 187 -22q107 0 226 110t119 296q0 187 -176 297l-327 138q-177 74 -177 174q0 99 64 150q60 46 131 46q72 0 126.5 -44.5t54.5 -91.5q0 -46 -9 -91l-10 -48l42 -28q24 -13 69 -13t78 42q14 19 21 39.5t7 46.5q0 49 -21 111q-17 52 -37 88zM531 1067l-1 6q0 25 44 43
t66 18q24 0 42.5 -4.5t28.5 -13.5l-1 -9q0 -38 23 -70l92 -82q-43 12 -85 25q-61 19 -105 34q-63 21 -104 53zM1201 399q0 139 -55.5 254t-163.5 208q71 9 106 72q27 50 27 104q0 56 -10 96q-21 87 -21 108q0 20 9 46q18 48 18 72t-49 88q-28 38 -36 53q-9 3 -24 3h-36
q-18 0 -27.5 -1t-37.5 -7q-46 -7 -82 -20q-60 49 -131.5 72.5t-210.5 23.5t-271 -128t-132 -296q0 -167 70 -286q62 -106 182 -198q48 -36 137 -70l148 -53q83 -33 131 -80q3 -12 3 -42q0 -29 -32 -56.5t-60 -27.5h-19h-16q-10 2 -14 2l-31 3q-50 91 -76 129
q-50 74 -101 112q-63 48 -128 48q-64 0 -114 -56t-50 -97t16 -80q12 -31 31 -61q-26 -53 -39 -89q-16 -42 -31 -91q17 -14 47 -53q64 -85 80 -100q25 29 65 50q20 10 39 15t41 5q40 0 115 -28l155 -56q81 -29 177 -29q97 0 222.5 89.5t161.5 218.5q17 71 17 133zM1182 399
q0 -30 -4 -62.5t-13 -65.5q-34 -122 -153 -208t-215 -86q-97 0 -175 28l-149 55q-81 30 -121 30q-19 0 -38 -4t-38 -13q-35 -16 -67 -45q-55 64 -107 131q6 38 31 90l39 86l-32 62q-17 37 -17 74t45 87.5t101 50.5q58 0 120 -49q53 -41 101 -112q34 -51 70 -126l34 -6l55 -1
q38 0 76.5 33t38.5 64v20q0 12 -2 24q0 12 -3 15q-46 46 -132 83l-151 53q-90 32 -139 71q-116 89 -177 193q-67 116 -67 277t126.5 282.5t264.5 121.5t201 -24q23 -9 55.5 -27.5t73.5 -46.5l172 30l28 -1q5 -9 33 -47q45 -59 45 -81q0 -23 -14 -54q-2 -6 -7.5 -25t-5.5 -33
q0 -26 10 -66q21 -87 21 -150q0 -60 -37.5 -105t-127.5 -45q120 -88 185.5 -209.5t65.5 -268.5z" />
    <glyph glyph-name="T" unicode="T" horiz-adv-x="1350" 
d="M102 1524l-2 2l15 3l27 2q19 0 78.5 -23.5t95.5 -23.5q12 15 38.5 25t46.5 10q13 0 30 -3t46 -11q57 -13 94 -13q39 0 83 39q17 0 76 -36q24 -15 44 -15q11 0 21 2t29 9q69 24 84 24q40 -19 78 -19q40 0 107 15t104 15l20 -1q21 -25 65 -62l68 -58l-23 -78l-16 -67
q0 -6 3 -22.5t11 -50.5q14 -64 14 -117q0 -55 -47 -111t-104 -56q-59 0 -105 29q-15 9 -124 97l-9 -35l-8 -29q-1 -4 -4 -28q-6 -53 -6 -114l-4 -167q0 -40 1 -57.5t7.5 -84.5t21.5 -90l3 -2q86 -44 129 -88q61 -63 61 -135t-58 -130.5t-119 -58.5q-59 0 -104 21
q-35 17 -80 56q-61 -91 -163 -91q-101 0 -195 105t-94 168t12 95.5t33 41.5l27 -29q20 -17 51 -17q32 0 60 164q20 118 20 180q0 12 -5 96t-5 119q0 67 -5.5 110t-10.5 54l-12 10q-8 6 -20 7q-10 0 -24.5 -19t-14.5 -36t16.5 -50.5t16.5 -52.5t-42 -30q-23 -5 -98 -5
q-76 0 -144 76t-68 149q0 39 3 77.5t11 88.5q3 23 5 42.5t2 36.5q0 35 -17 72q-15 38 -45 69q0 6 18 6zM113 1510q34 -44 46 -101q-3 26 -11 42q-6 17 -21 46q65 0 78 -4l-26 10q-26 9 -43 11q-12 0 -23 -4zM159 1409l2 -40q0 -21 -7 -70l-8 -69l11 73q6 39 6 59q0 23 -4 47
zM146 1230l-4 -32v-70q0 -61 63 -132.5t134 -71.5t94.5 6t26.5 15q-2 11 -4 17t-10 21q-19 43 -19 66q0 25 21 46.5t45 21.5l18 -9l11 -7q-10 80 -21 112q-23 74 -66 74q-42 0 -66 -24t-24 -56q0 -33 11 -62t25 -52q-15 -32 -33 -46q-18 -12 -75 -12q-56 0 -97 62
q-17 25 -23.5 57t-6.5 76zM522 1101q6 -42 12 -86.5t6 -80.5q0 -41 1 -64q5 -115 5 -129q0 -109 -15 -201q-22 -142 -82 -196q56 6 88 171q21 113 21 210q0 34 -2 72q-5 96 -5 119q0 42 -4.5 79t-15.5 94zM449 344l-5 -1q-16 0 -36 14q-14 10 -28 26q-9 -8 -14 -24l11 5
l14 1l49 -27l6 2zM366 359q-8 -5 -14 -21q-4 -18 -4 -51q0 -35 30 -77q-4 8 -8 19t-9.5 31t-5.5 37v20q3 10 4 14zM378 210q35 -72 99 -131q72 -66 138 -66q65 0 103 25q31 19 69 74q44 -41 81 -61q45 -24 101 -24q57 0 111 54t54 121q0 66 -63 128q-38 37 -127 82
q-17 44 -26 112q-3 32 -5 62.5t-2 59.5q0 1 6 106q3 52 3 99l5 117q8 18 13 45l10 49l46 -42q32 -29 55 -45q73 -55 131 -55t102 53q40 49 40 101q0 53 -10 103q-4 22 -8.5 44.5t-10.5 43.5l38 135l-122 109l-29 -1q-4 0 -7 -1q3 -2 4 -3q6 -5 11 -10q11 -13 11 -32
q-7 -9 -12 -18.5t-11 -23.5l-2 6l2 -17q-3 -6 -3 -36q0 -32 32.5 -109t32.5 -120q0 -42 -40 -81.5t-88 -39.5t-76 11q-36 14 -58 50l32 65q17 40 17 68q0 30 -18 51t-63 21q-44 0 -87 -118q-35 -97 -35 -195q0 -34 3.5 -104t3.5 -98q0 -61 12 -132q3 -17 17 -86
q23 -115 61 -196q6 -13 11 -17.5t16 -6.5q9 0 20.5 4t16.5 7t29 16l19 -41q9 -24 9 -60q0 -35 -47 -64q-41 -25 -95 -25q-53 0 -102 24t-82 70q-30 -54 -84.5 -84.5t-104.5 -30.5q-47 0 -86.5 15t-60.5 43zM1157 1507h-8l-4 -2zM1145 1505l-61 -12l-45 -9q70 0 106 21z
M1039 1484l-122 11h-6q40 -16 63 -16h17h13q7 2 10 2zM911 1495l-6 3q-14 0 -25 -5l-25 -9l29 8zM855 1484l-36 -12l-30 -7q34 3 66 19zM789 1465l-8 -1zM781 1464l-35 10l-38 14l34 -19q15 -6 30 -6zM708 1488l-28 18l-20 7l-5 -3zM655 1510q-19 -15 -41 -25q-11 -4 -21 -6
t-25 -2q-23 0 -80 12q-3 1 -36 7t-48 6l157 -27q53 0 94 35zM404 1502h-6h6zM398 1502q-52 0 -95 -34l10 -1h10q28 30 75 35zM303 1468l-27 3l-27 6l23 -11l18 -5l9 2zM249 1477l-24 9l-20 7l22 -9zM1221 1145q0 41 -32.5 124.5t-32.5 112.5q0 31 13 60l13 26l-3 10
q-6 11 -26 11l-51 -16q-26 -7 -42 -7l-53 4l-90 8q-12 0 -23 -2t-29 -8q-63 -20 -80 -22q-16 0 -66 20l-62 24q-18 -12 -42 -22q-11 -4 -21 -6t-25 -2q-23 0 -83 12q-22 5 -51.5 9t-47.5 4q-41 0 -79 -38l-21 -3q-9 0 -54 18t-79 18q24 -48 24 -89q0 -33 -1.5 -47.5t-6 -46
t-6.5 -55t-2 -50.5q0 -47 32 -91q37 -49 81 -49q47 0 61 8.5t26 30.5l-18 39q-8 21 -12 38t-4 39q0 39 30 68t79 29q50 0 69 -53q16 -50 31.5 -115.5t22.5 -136t9.5 -119t2.5 -120.5q0 -60 -5.5 -114.5t-14.5 -107.5q-13 -79 -32 -128t-51 -77l-13 -13l-15 1q-4 1 -8.5 3
t-14.5 8l-33 16l-12 -5q-8 -19 -8 -60q0 -43 41 -78.5t106 -35.5q66 0 120.5 36t80.5 97q59 -112 146 -112q86 0 122 21q42 24 42 61q0 36 -19 68l-30 -15q-18 -6 -31 -6q-11 0 -23 9q-3 3 -7.5 9.5t-9.5 14.5q-39 83 -63 204q-14 76 -18 101q-9 60 -9 113q0 45 -2 85
q-6 119 -6 130q0 98 39 199q47 122 99 122q51 0 75 -26.5t24 -59.5q0 -32 -18 -71l-28 -64q6 -23 51 -37q32 -8 67 -8q37 0 72 33.5t35 71.5zM1226 1544h-14l-28 1q-19 0 -87.5 -15t-94.5 -15q-25 0 -55 9.5t-44 9.5q-15 0 -60 -17.5t-64 -17.5q-20 0 -61 25.5t-71 25.5
q-36 -39 -74 -39q-35 0 -74 9q-77 18 -115 18q-37 0 -75 -35q-104 26 -112.5 28.5t-64.5 18.5q-13 0 -21 -1t-27 -6.5t-19 -22.5q22 -30 42 -68.5t20 -72.5q0 -41 -14 -129q-3 -23 -5 -54t-2 -70q0 -76 72.5 -157t158.5 -81q85 0 114 9q45 14 45 40q0 27 -11 48
q-20 44 -22 57q0 12 7.5 23.5t16.5 15.5l9 -5l21 -227q0 -26 2.5 -77.5t2.5 -67.5q0 -84 -13 -156q-17 -99 -58 -166l-5 -3q-15 3 -32 20l-24 28q-34 -4 -55 -48q-16 -37 -16 -108q0 -72 99 -183t177 -111q77 0 122 21q45 19 76 61q39 -33 81.5 -50.5t104.5 -17.5
q63 0 127 65.5t64 142.5t-63 145q-49 52 -134 93q-15 52 -21 104q0 23 -2.5 61.5t-2.5 46.5q0 29 1 47q5 90 5 110l8 156l10 31q52 -45 90 -71q59 -38 126 -38t121 63q50 59 50 122q0 67 -7 103.5t-9.5 48t-11.5 43.5l20 76q17 61 23 70q-30 21 -76 66z" />
    <glyph glyph-name="U" unicode="U" horiz-adv-x="1446" 
d="M1439 1349l-85 138l-14 -1l10 21q12 0 16 -2l94 -153q-3 -20 -25 -58l-31 -56l-4 -4q-42 -93 -63 -202q-9 -54 -14 -102t-5 -90q0 -33 2.5 -96.5t2.5 -81.5q0 -39 2.5 -125t2.5 -117q0 -143 -124.5 -282.5t-298.5 -139.5q-170 0 -260 39t-165.5 112.5t-123.5 168.5
q-52 106 -52 197v95q0 -34 4.5 -67.5t19.5 -98.5q11 -50 25 -85t37 -70q80 -126 189 -195q120 -76 305 -76t308 136q115 130 115 267q0 61 -2.5 143.5t-2.5 88.5l-4 180q0 89 19 197q23 132 65 212zM1340 1486q-68 -146 -99 -283t-31 -249q0 -46 2 -83q7 -130 7 -140
q0 -46 2 -86q7 -140 7 -160q0 -134 -122.5 -252t-281.5 -118q-158 0 -248 30q-104 36 -160 108q-33 45 -62.5 127t-29.5 136v95q0 -112 31 -203q28 -84 80 -145q108 -128 324 -128q217 0 333 111.5t116 237.5q0 60 -2 103t-4 103q0 54 -8 179q-4 62 -4 85q0 101 30 240
t94 282l-73 -24q-38 -11 -57 -11l-36 3l-34 9l-23 -7l-31 -3q-14 0 -50 9q-77 20 -93 20q-18 0 -29 -5q21 -53 38 -101q12 -34 33 -100q12 -40 27 -98q12 -47 23 -97q-17 63 -45 146q-23 71 -54 152l-6 -7l-21 60l-22 59l30 2h26.5t29.5 -2q15 0 23 -1.5t31 -10.5l24 -6
q21 -6 31 -6q11 0 24 4q15 3 21 9q35 -20 65 -20q18 0 32.5 2t36.5 9q84 25 105 25zM1101 1470l-17 -5l-27 -2q-14 0 -49 9q-20 5 -60 14q-25 5 -31 6q-17 0 -30 -5l-26 -4q-9 0 -23 -6l-20 -13l-24 13l10 18l12 -7l16 8q18 7 48 7l86 -3l91 -23q10 0 21 4l23 12
q34 -23 66 -23q35 0 85.5 16.5t82.5 19.5l-79 -28q-54 -17 -74 -17h-23q-11 3 -15 4l-31 10zM794 1477q-97 -173 -136 -293q-46 -147 -46 -290q0 -146 22.5 -269t66.5 -212q15 -31 51 -54q18 -10 47 -16t68 -6q80 0 144 169q23 62 33.5 129.5t10.5 144.5q3 -21 3 -109
q0 -87 -51 -198q-66 -146 -178 -146q-109 0 -146 77q-45 95 -68 220.5t-23 260.5q0 142 46.5 303t134.5 290q-75 0 -136.5 -19t-84.5 -19t-55.5 18t-50.5 18l-27 -14l-26 -9q10 3 21 13l30 27q12 -14 43 -26q30 -9 58 -9q30 0 97.5 16t93.5 16q31 0 58 -13zM393 1453l-29 -5
l15 2zM363 1448l-8 -1zM354 1448q-39 8 -73.5 15t-135.5 32q76 -128 119 -274q23 -81 36.5 -155.5t13.5 -147.5q-12 131 -34 214q-10 42 -25 87t-34 88l-88 194q11 0 16 2l29 1q25 0 81 -23l56 -22l18 -4q17 -3 21 -7zM314 918q5 -49 8 -110.5t3 -127.5l-1 -69zM667 700
q0 185 63 352q54 143 174 310l47 -142q23 -78 36 -146q-16 64 -36.5 126.5t-46.5 126.5q-110 -161 -160 -295q-57 -153 -57 -300t23 -236q35 -139 130 -139q94 0 154 163q22 62 31.5 124.5t9.5 134.5q3 -21 3 -103q0 -83 -47 -189q-60 -140 -125 -140h-41h-23q-12 2 -16 2
l-20 4q-51 25 -80 159q-9 47 -14 93.5t-5 94.5zM1009 1071q21 -81 33.5 -155.5t12.5 -135.5q0 35 -8 85q-8 40 -11 61zM304 610l-10 308q5 -49 8 -110.5t3 -127.5zM294 918q-6 67 -15 121t-23 106q-21 78 -63 174l-90 199l31 4l38 2q25 0 72 -16l78 -30l17 -5l19 -4l-196 46
h-51q42 -77 74 -149.5t54 -138.5q27 -84 39 -147q16 -82 16 -162zM359 1468l3 -1zM362 1467q6 1 12 2.5t12 2.5q-8 -3 -24 -5zM386 1472q13 7 31 23l27 26q22 -24 43 -33.5t52 -9.5q32 0 75 10q101 22 114 22l35 -3q15 0 33 -9q-69 0 -97.5 -3t-78.5 -18l-43 -12l-32 -5
q-11 0 -45 18t-59 18l-27 -14zM796 1498h11l-3 -3zM1035 779q0 31 -5 64q-1 4 -14 75q-6 39 -13 78t-16 78q20 -72 34 -150t14 -145zM1335 1506l18 6l-3 -5zM824 377q-65 0 -97 135q-10 44 -15 96t-5 121q0 130 48.5 277.5t143.5 277.5q30 -83 55 -164q29 -98 46 -187
t17 -188q0 -101 -40 -215q-54 -153 -153 -153zM1380 1521q-9 3 -16.5 4t-22.5 1q-23 0 -59 -11q-88 -25 -118 -25q-31 0 -62 28l-22 -13q-14 -7 -24 -7l-32 9q-19 5 -28 7q-24 5 -48 5l-88 5q-21 -4 -29 -6t-16 -7q-11 5 -21.5 8.5t-20 6t-17.5 3.5t-27 1q-22 0 -48 -5
l-44 -11q-69 -16 -98 -16q-31 0 -53 13q-12 8 -41 37l-38 -36q-27 -24 -49 -24q-21 0 -90 30q-30 13 -59 19.5t-48 6.5l-87 -9q15 -42 43 -101l51 -99q56 -106 86 -260q13 -69 20.5 -131.5t7.5 -124.5l1 -305q23 -223 176 -376q160 -160 395 -160q233 0 367 147
q126 140 126 288q0 64 -2.5 150t-2.5 91l-4 177q0 87 19.5 203t60.5 190l5 10l34 63q14 27 24 60z" />
    <glyph glyph-name="V" unicode="V" horiz-adv-x="1612" 
d="M1266 1492l4 -2l8 10zM1278 1500l3 2l-3 -2q22 -16 35.5 -21t37.5 -5q19 0 29 1t35 7l109 22l24 2q18 0 25 2l48 -80q26 -44 32 -87q-198 -227 -323 -566q-62 -171 -94 -319q-36 -167 -36 -322v-40l1 -51l-3 -42q-3 -17 -13 -30q-64 0 -135 48l-115 82
q-57 -45 -106 -66.5t-119 -30.5l-51 64l-49 65q-43 261 -104 482q-70 264 -162 479q-53 123 -111.5 228.5t-127.5 200.5q42 12 82 12q39 0 120 -27q77 -24 95 -26q15 0 45 18l35 21q21 -18 50 -35q28 -14 50 -14q23 0 64.5 15t62.5 15q10 0 24 -1t30 -4q28 -3 35.5 -3.5
t26.5 -4.5l47 -75l44 -77q-20 -56 -36 -108t-27 -95q-14 -61 -21 -108t-7 -90q0 -82 25 -206q30 -146 66 -172l10 2q60 45 105 240q36 159 36 276q0 116 -36 225t-109 204l-1 5q6 9 25 12l44 3q24 0 89 -20.5t91 -20.5t47.5 6.5t46.5 19.5zM944 1504q69 -95 102 -209
q28 -104 28 -204q0 -101 -12 -185q-5 -38 -13 -79t-19 -78q-26 -94 -57 -152q-14 -27 -29.5 -41t-34.5 -14q-36 0 -72 169q-29 136 -29 220q0 88 28 203q22 97 62 202q-39 72 -83 137l-55 8l-49 4q-21 0 -48 -9q-63 -21 -82 -21q-20 0 -52 14.5t-43 29.5l-3 -1l-3 2l-34 -21
l-36 -15l-117 35q-63 19 -90 19q-33 0 -43 -2l-26 -4q136 -194 231 -424q76 -183 143 -442q9 -35 26 -110q12 -51 34.5 -154.5t45.5 -204.5l5 -21h5l3 -16l55 -74l35 -44q126 16 218 102q74 -61 111 -85q67 -44 130 -50q8 15 8 55l-1 52v39q0 156 35 321q31 145 95 322
q122 338 322 568q-3 27 -18 57q-10 22 -53 86l-110 -19q-75 -13 -100 -13q-32 0 -51 8.5t-41 24.5l-43 -16q-25 -7 -48 -7q-30 0 -91 20.5t-87 20.5l-35 -1zM963 1492l32 3l31 1q23 0 81 -19.5t78 -19.5q23 0 33.5 4t17 7t13.5 8l52 -18q14 -4 25.5 -6t24.5 -2q23 0 75 13.5
t80 13.5l-5 -39l-2 -21l-4 -6q-135 -184 -219 -406q-68 -181 -118 -425l-78 -454q-35 0 -65 9.5t-60 27.5q-39 23 -99 85q-69 -55 -113.5 -74.5t-68.5 -19.5l-36 1l-14 1q-47 267 -101 469q-32 119 -70.5 235t-81.5 221q-48 117 -101 221t-117 204q83 0 151.5 -23.5
t95.5 -23.5q28 0 49 12q12 7 34 27q8 -4 22 -21q21 -29 49 -29q27 0 63 9q80 20 97 20t40 -6q9 -2 17 -4t20 -7q-29 -102 -45 -200q-8 -53 -12 -105t-4 -118q0 -124 40 -272q48 -178 137 -268q87 99 135 272q42 150 42 283q0 134 -30 234t-91 206zM858 270l69 -66
q57 -48 138 -60l2 9l38 234l39 211q25 128 52 219q46 167 114 317q75 165 171 288l5 17q0 13 7 21q-39 0 -78 -14q-44 -13 -62 -13q-20 0 -41 6l-61 18l-28 -12q-15 -5 -36 -5q-22 0 -79.5 19.5t-77.5 19.5h-19t-20 -2q51 -98 75.5 -199.5t24.5 -237.5q0 -134 -42 -290
q-49 -181 -141 -277q-98 89 -152 277q-21 77 -32 147.5t-11 134.5q0 134 14 224t41 184l2 9l-26 7l-34 4q-18 0 -56 -9.5t-62 -14.5t-37 -5q-20 0 -39 12t-32 31l-40 -24q-16 -8 -42 -8q-29 0 -100 23.5t-118 23.5q97 -167 162 -311q35 -77 67 -161q29 -75 57.5 -167
t61.5 -223l53 -228l46 -218l2 -8l43 -2q22 0 66 21q21 10 116 78zM921 580q-31 50 -54 161.5t-23 179.5q0 73 31.5 222.5t61.5 194.5q-8 15 -15 30q-3 5 -33 56l-53 82q-8 3 -61 9l-71 6q-17 0 -57 -15t-65 -15t-52 20l-47 33l-36 -23l-37 -20q-72 26 -111 36
q-66 17 -102 17q-35 0 -68 -6q-17 -3 -29 -6t-26 -8q140 -190 247 -438q92 -214 162 -475q52 -201 109 -493q7 -11 12 -18q14 -20 39.5 -53t39.5 -51t18 -21q56 0 124 27t111 64q66 -56 119 -85q72 -39 139 -39q27 21 27 84q0 21 -0.5 47t-1.5 57q0 43 10 112l19 118
q45 281 144 511q54 125 121.5 235.5t156.5 214.5l2 17q0 12 -9 36t-11 29t-12 24l-32 48q-16 26 -24 44l-91 -15q-117 -21 -142 -21q-26 0 -45 11l-35 24q-4 2 -12 2l-3 -3l-38 -16q-22 -8 -47 -8q-15 0 -33 4t-55 16q-63 21 -95 21q-29 0 -54.5 -6t-31.5 -25l1 -9l2 -8
q69 -86 106 -196t37 -220q0 -55 -8 -119.5t-26 -148.5q-39 -187 -93 -232z" />
    <glyph glyph-name="W" unicode="W" horiz-adv-x="2452" 
d="M2015 -4q0 381 112 737t336 657l2 14q0 5 -18 29l-55 59l-22 -5l-19 -2l8 11l-38 -11l-34 -4l-57 3l-95 6q-8 0 -22.5 -1t-33.5 -4q-18 0 -30 -2.5t-23 -8.5l-195 40l-19 -1q-16 0 -26 -5q-3 -15 -3 -39t22 -71l39 -80q20 -41 39 -136q9 -47 14 -95.5t5 -100.5
q0 -106 -41 -255q-22 -85 -52 -152.5t-73 -128.5l-9 -12q-65 141 -96 263q-16 66 -25 131.5t-9 125.5q0 124 21.5 222.5t66.5 184.5l-54 84q-20 32 -33 49l-50 4q-31 0 -95 -22.5t-89 -22.5q-28 0 -70.5 20.5t-50.5 20.5l-15 -2q-39 -28 -74 -28t-101 19q-26 7 -41.5 12
t-51.5 17l2 -12h-5l69 -268q36 -138 36 -341t-155 -453q-66 143 -99 270q-37 148 -37 243q0 102 7 162t21 112l43 125l-113 151q-66 -22 -111 -33q-44 -9 -67 -9t-62 12.5t-53 26.5l-52 -26q-30 -11 -62 -11q-33 0 -103.5 22.5t-107.5 22.5l2 -12l-4 1l18 -36q9 -20 12 -34
q206 -298 320 -611q64 -177 97 -333q37 -177 37 -343l61 -75q21 -23 41 -41q53 8 119 37q53 24 110 58l121 -64q76 -34 132 -34l15 1l-1 24v78q0 65 25 163.5t84 208.5l32 -109q34 -120 58 -181q17 -45 28 -102l35 -39l35 -34l40 -2q34 0 107 32q28 12 55.5 26.5t54.5 32.5
q67 -44 130 -76q86 -44 140 -50zM2351 1485q-198 -309 -300 -627q-95 -293 -135 -682l-2 -17q-30 -11 -69 -11q-40 0 -107 32q-54 25 -103 59q-61 -36 -98 -52q-64 -29 -89 -29t-35.5 11t-15.5 21q-29 71 -60 183l-50 196q-17 69 -33 138q-6 24 -14 52q-68 -146 -100 -293
q-15 -73 -23 -151.5t-8 -163.5q-72 0 -137 20.5t-115 63.5q-49 -39 -95 -61q-55 -26 -86 -26l-50 3l-29 5q-22 208 -51 350q-34 176 -86 319q-55 158 -144 319l-144 241q-49 84 -59 113l98 -23q57 -12 114 -12q56 0 112 37q24 -15 53 -28q28 -11 60 -11q36 0 81 14l94 28
q-40 -172 -40 -351q0 -181 54 -378t157 -372q67 105 107 223q34 101 52 241l12 91q3 27 3 88t-40 212l-68 247q27 0 89.5 -18t91.5 -18q30 0 47.5 5.5t24.5 9t21 12.5q17 -3 51 -19q62 -26 76 -28q13 0 52 13l25 8q15 5 34.5 11t34.5 9l75 4q-65 -231 -65 -440
q0 -211 40 -359q45 -172 145 -300l29 49l21 28q50 60 83 152q26 73 42 173q11 66 21 174l6 39q0 45 -15.5 142.5t-27.5 130.5q-8 25 -37 78q-41 80 -41 133q37 17 65 17q31 0 66 -14q76 -29 95 -29q21 0 54 10t50 10q25 0 34 -1q21 -5 33 -6l66 -7q17 0 31.5 2t23.5 3z
M1244 806q18 -61 52 -198q38 -159 49 -199q29 -115 61 -195l11 -24q9 -15 36 -15q28 0 112 44q15 7 30 15.5t40 24.5q53 -37 103 -61q68 -33 100 -33h21q12 0 22 2l17 4l1 7q26 244 73 452q54 242 134 435q89 221 215 403l-35 -8l-35 -4q-7 0 -20.5 1t-31.5 4q-63 9 -85 9
q-21 0 -52.5 -10t-50.5 -10q-22 0 -57 14q-73 27 -93 29h-13t-20 -4l-26 -7q0 -34 32 -101l25 -51q15 -33 37.5 -143.5t22.5 -228.5q0 -123 -53 -275q-43 -125 -160 -318q-107 131 -160 312q-44 158 -44 309t15 260t45 230q-44 0 -83 -14q-93 -31 -111 -31q-19 0 -48 12
l-81 34q-13 -10 -39 -20q-13 -3 -25 -5t-26 -2q-28 0 -76 13l-90 27l63 -262q33 -135 33 -271q0 -70 -11 -140.5t-35 -152t-57 -153t-81 -141.5q-109 181 -169 386q-28 100 -43 188t-15 158q0 140 9.5 217.5t24.5 158.5l-77 -21q-20 -5 -39.5 -8t-35.5 -3q-29 0 -61.5 9
t-52.5 27l-61 -25q-15 -5 -32.5 -8t-35.5 -3q-33 0 -81 9l-82 18l187 -320q125 -228 193 -471q59 -216 88 -504l1 -8l29 -5h36q31 0 86 29q45 23 93 64q44 -41 109 -67q30 -12 61.5 -17t64.5 -5q0 171 37 327t115 310zM2402 1533q-24 -8 -52 -13l-52 -3l-67 3q-29 0 -68 3
t-49 3q-37 0 -90 -15q-8 0 -79 19.5t-100 19.5q-31 0 -56 -7l-35 -7l-6 -32l-1 -44q0 -30 32 -90l51 -101q10 -31 25 -125.5t15 -125.5q0 -36 -16 -132l-23 -149q-10 -61 -35.5 -123.5t-59.5 -107.5q-48 107 -75.5 230.5t-27.5 231.5q0 113 23.5 220.5t70.5 178.5
q-14 25 -54 83l-54 81q-10 4 -15.5 5t-14.5 1l-44 1q-30 0 -93 -23q-68 -22 -90 -22q-26 0 -64 20.5t-60 20.5q-21 0 -45 -15t-54 -15q-29 0 -87 18t-81 18l-35 -3l-23 -6q12 -61 47.5 -174.5t49.5 -172.5q24 -99 24 -187q0 -44 -9 -103t-29 -138q-37 -153 -84 -237
q-51 119 -78 238t-27 205q0 89 6 138.5t9.5 71t11.5 47.5q2 8 6 20t14 34q25 63 25 93l-63 83l-74 99q-30 -14 -99 -34q-65 -17 -92 -17q-28 0 -67 19l-55 23q-12 -15 -46.5 -26.5t-62.5 -11.5q-29 0 -101 22.5t-108 22.5q-37 0 -37 -20t12.5 -61t19.5 -51
q209 -306 319 -609q62 -171 95 -328q37 -178 37 -346q0 -5 14 -23t45 -53q60 -66 88 -66q27 0 107 34q57 24 114 57l122 -63q71 -30 115 -30q42 0 68 6l-3 40v72q0 52 15.5 140t48.5 158l47 -144l25 -82l21 -84l2 -5l55 -65q31 -28 78 -28t115 28q50 20 110 56
q84 -52 135 -76q92 -43 120 -43l39 1l13 1q0 332 74 628q78 319 236 584q65 93 102.5 152.5t37.5 77.5q0 17 -24 50zM2032 -19l-40 -2q-31 0 -150 66l-97 57q-71 -42 -119 -61q-68 -27 -129 -27l-17 3q-9 8 -19.5 17.5t-22.5 23.5l-36 41q-15 80 -63 223l-43 132
q-52 -98 -73 -211q-9 -52 -11.5 -104.5t-2.5 -129.5l-31 -3q-69 0 -160 46l-89 47l-5 2l-114 -55q-61 -28 -120 -38q-15 11 -29 25.5t-31 36.5l-54 65q0 166 -34.5 333.5t-98.5 343.5q-113 311 -320 611q-2 13 -15 41.5t-15 47.5q0 15 26 15q28 0 100 -22.5t102 -22.5
q33 0 62 10t51 26l68 -29q25 -11 51 -11q28 0 88 17q43 12 94 30l125 -166q0 -22 -13 -51l-32 -84q-14 -53 -20.5 -110t-6.5 -151q0 -97 35 -231q28 -112 86 -254q53 77 101 256q21 83 32 150.5t11 120.5q0 106 -43 260l-74 253q9 3 32 3q25 0 81.5 -18.5t96.5 -18.5
q39 0 74 28l13 3h14q8 0 48.5 -20.5t66.5 -20.5q28 0 92.5 22.5t93.5 22.5q15 0 30 -1t30 -4l49 -73l48 -75q-47 -84 -69 -184q-10 -48 -16 -104t-6 -114q0 -120 32 -247q26 -108 85 -247q56 59 90 159q23 68 43 193l25 185q0 44 -14 137.5t-28 131.5q-4 15 -50 99
q-31 60 -31 91q0 35 5 55l28 7q15 3 41 3q29 0 92 -20q70 -19 87 -19q23 0 48 5.5t37.5 7.5t25.5 2q10 0 29 -1t46 -4l98 -4q24 0 46.5 3t47.5 11l51 -53q32 -38 34 -54q0 -15 -39 -75l-99 -147q-158 -264 -237 -580q-75 -297 -75 -622z" />
    <glyph glyph-name="X" unicode="X" horiz-adv-x="1526" 
d="M903 1520l2 -20l31 4l28 2q14 0 49 -9q66 -18 80 -18q16 0 34 5q-31 0 -107.5 19t-93.5 19q-18 0 -23 -2zM905 1500l-4 -1l10 -35zM911 1464l7 -34l7 -27l-6 29zM925 1403l4 -43q0 -41 -11 -85t-31 -92q23 30 35 71q5 17 8 35t3 32l-3 49zM887 1183l-20 -24l-19 -20
l-20 58q-4 18 -5 22v15q0 17 15 57.5t15 64.5q0 22 -24 54q-13 18 -83 79q-6 -44 -61 -118q-51 -69 -51 -94q0 -23 66 -140l85 -147l55 97zM746 1489l4 19q-45 0 -69 -3l-37 -6l83 7zM644 1499l-130 -19q12 0 26 0.5t46 6.5zM514 1480q-19 0 -49 18l-28 12
q-24 -18 -37 -24.5t-34 -6.5h-14h-12q-8 2 -12 2l-33 4l29 -6q15 -3 42 -3q29 0 60 20q14 -9 35 -13l40 -4zM295 1485l-38 8q-19 4 -36 6t-34 2q-30 0 -59 -16l21 -23q15 20 20 24q13 11 37 11h19t23 -3t24.5 -4t22.5 -5zM149 1462l-2 -3q23 -25 38 -41q5 -6 28 -33
l105 -130l-83 105q-19 23 -37 46q-29 35 -49 56zM318 1255l108 -151l106 -153l107 -152l-56 -95l-56 -98l61 100l57 101q-17 41 -85 136q-49 68 -134 176zM527 606q-43 -67 -77 -110q-54 -70 -104 -113q-60 -51 -116 -62q56 -1 120 52q47 39 103 117q33 47 74 116zM230 321
q-23 0 -46 21q-14 14 -28 42l-9 -8q21 -31 35 -43.5t26 -14.5zM147 376l-6 7l-14 -34q7 15 20 27zM127 349q-21 -35 -21 -84q0 12 2.5 23t6 26.5t4.5 17.5q6 12 8 17zM106 262q0 -90 98 -166q92 -71 156 -71q62 0 100 15q23 10 66 37q33 -32 65.5 -48t81.5 -16t91 26
q36 21 74 71q46 -48 80 -66q45 -25 98 -25q56 0 96 26q31 19 72 67q35 -37 64 -54q36 -21 93 -21q58 0 118 50t60 114q0 63 -42 126q-38 56 -93 90q36 -33 51 -54q24 -33 24 -84q0 -50 -67 -96q-61 -41 -122 -41q-62 0 -114 31q-44 26 -85 74q-66 -83 -149 -83
q-81 0 -128 42.5t-47 80.5t12 51t31 13l-85 12l51 77q38 48 72 48q37 -46 37 -110q3 18 3 54q0 18 -9 42t-29 56q-27 45 -76 94l-95 -131q-50 -79 -50 -121t8 -45t24 -3h12q6 0 18 2l65 17q0 -101 -51 -147t-107 -46q-30 0 -50.5 4t-42.5 16q-36 19 -62 55q-43 -31 -93 -49
t-102 -18q-51 0 -85 25q-37 28 -37 79zM1384 417l-3 3zM1380 420l-16 8q-5 -35 -16 -55q-16 -28 -33 -28q-16 0 -26 5l14 -8q32 0 51 28zM1289 350l-21 14l-20 15l26 -21zM1248 379q-77 67 -158 189q-28 43 -58.5 97.5t-61.5 117.5l9 12q111 155 244 308q128 147 271 282
l-33 51l-31 48q-129 -131 -189 -196q-102 -111 -168 -198q-81 -108 -147 -231q56 -135 135 -259q92 -146 187 -221zM1430 1484l13 13l-26 -2h6zM1417 1495l-125 -9l-96 -4q14 -3 28.5 -5t30.5 -2q27 0 39 1.5t44 6.5zM1196 1482l-16 5l-22 9l-17 -8l-14 -4l59 -3zM790 351
l15 -3zM805 349l11 -5l-2 20q-2 -8 -9 -15zM818 344l14 -6q16 3 26 19l-21 -10zM858 357l6 2l1 19zM437 1510l3 1q6 -8 26 -12l35 -3l232 27q67 -55 86 -76q51 -53 51 -84q0 -29 -15 -69.5t-15 -60.5l3 -31q4 -16 11 -31q35 38 49 75q13 39 13 79q0 34 -1.5 47.5t-6.5 36.5
l-23 118l5 7q10 5 26 5h19q11 -3 15 -4l46 -12q42 -11 92 -19q48 -6 94 -6l96 3l154 12l10 -14h4l-3 -2l38 -60l34 -55q-150 -144 -276 -286q-135 -155 -246 -310l-4 -5l3 -5q18 -35 31 -59q25 -47 49 -86q56 -96 111 -163q66 -81 121 -106q25 0 37 35q4 14 5 26t1 29
q76 -24 132.5 -96.5t56.5 -149.5q0 -75 -68 -133q-64 -53 -123 -53q-60 0 -94.5 16.5t-65.5 49.5q-55 -49 -74 -61q-40 -23 -91 -23t-100 22t-80 61q-34 -43 -77.5 -66t-92.5 -23t-82 16q-24 11 -64 44q-21 -20 -65 -35q-44 -13 -106 -13q-65 0 -162 76q-102 80 -102 151
q0 72 18 111.5t56 65.5q9 -29 25.5 -52t64.5 -23t132 94q62 68 137 197l97 170l-4 5l-84 118l-81 119l-83 119q-63 88 -128 169q-79 99 -137 160q39 30 78 30q40 0 91 -12.5t87 -12.5t68 23zM816 366l1 -6l16 4l15 5q0 50 -11 72l-16 29q-20 -3 -50 -39l-37 -55q21 0 39 -3
q19 -5 39 -9l2 1l-1 10l-8 10l-38 6l23 32l23 25q8 -14 12 -27.5t4 -33.5v-5l-6 -2l-11 4q0 -13 2 -16zM814 364h-1h1zM813 375l-1 9l-7 1zM812 384l-1 11l-11 -6l5 -4zM1442 295q0 27 -18 54q-6 10 -15 20.5t-23 21.5q-10 -29 -31.5 -47.5t-54.5 -18.5q-76 36 -160 137
q-64 77 -137 204q-59 105 -96 194q59 112 142 223q75 102 165 201q70 78 184 190l-79 -12l-59 -4q-14 0 -28.5 1t-29.5 4q-29 6 -44 14l-28 -11l-34 -4q-17 0 -63.5 13.5t-69.5 13.5q-25 0 -40 -4l16 -62q3 -16 5 -37t2 -46t-6 -54t-20 -68q-18 -54 -63 -135l-72 -127
l-57 97l-74 132q-37 71 -37 95t32 71q75 108 81 140q-41 0 -106.5 -14.5t-103.5 -14.5t-79 27l-32 -18q-17 -9 -46 -9q-26 0 -75.5 9t-71.5 9q-21 0 -29.5 -4t-17.5 -16l163 -198q129 -157 212 -269q107 -142 119 -188q-56 -103 -109 -188q-86 -137 -162 -214
q-99 -102 -151 -102q-49 0 -68 16q-12 10 -27 32l-16 -42q-7 -26 -7 -56q0 -33 32 -56q28 -20 77 -20q27 0 49 4t50 16q51 21 97 55q21 -38 57 -61q38 -22 92 -22q57 0 99.5 42.5t42.5 110.5l-41 -10l-37 -3q-14 0 -19.5 1t-17.5 8t-12 62q0 53 81 167l79 105
q52 -49 89 -106q44 -70 44 -118t-11 -76.5t-31 -28.5q-17 0 -32 6l-21 7q-8 0 -12 -2q-14 -8 -14 -44q0 -33 42 -70t95 -37q52 0 94.5 23.5t75.5 70.5q40 -52 83 -81q53 -35 112 -35t115 37q61 40 61 99zM1325 478q0 -9 2 -14l1 -20q0 -12 -5.5 -34.5t-13.5 -28.5
q-45 15 -111 99q-56 69 -112 164q-16 27 -29 51q-23 43 -45 85q105 154 245 311q130 147 277 283l6 5q-16 30 -27 48q-6 10 -20 31l-52 74q-39 0 -56.5 -1t-69.5 -7q-22 0 -96 -5q-30 -2 -55 -2q-70 0 -163 25l-54 13l-36 3q-18 0 -31 -8q-14 -6 -14 -31q0 -22 15.5 -86.5
t15.5 -96.5q0 -36 -9 -69q-7 -32 -27 -59l-2 28q0 14 15 54t15 72q0 31 -69 109q-63 71 -93 71q-15 0 -39.5 -3t-65.5 -11q-23 -4 -59.5 -8.5t-49.5 -4.5q-31 0 -53.5 6t-33.5 20l-34 -21q-18 -8 -41 -8q-24 0 -77 12.5t-80 12.5q-31 0 -66 -12.5t-54 -34.5q88 -83 188 -214
q68 -88 172 -241l162 -238l-91 -161q-72 -120 -132 -189q-80 -91 -121 -91t-60 35q-15 26 -19 50q-103 -64 -103 -175q0 -109 109 -196q102 -81 172 -81q72 0 108 12t64 30q63 -54 128 -54q66 0 111.5 21t78.5 59q37 -34 82 -56q44 -18 93 -18q51 0 92 19t78 57
q29 -26 66 -43q36 -15 98 -15q63 0 134 60.5t71 147.5q0 85 -71 169t-159 100z" />
    <glyph glyph-name="Y" unicode="Y" horiz-adv-x="1542" 
d="M503 357q-8 -13 -12 -28.5t-4 -60.5t116 -146q109 -95 157 -95q49 0 84 22q26 16 61 50q74 -37 105 -49q66 -25 117 -25q52 0 94 45t42 98t-51 106q-78 78 -94 104q-50 77 -50 209q0 133 82 288q64 122 191 268l217 239q-9 35 -36 70q-21 27 -58 53q-52 0 -116.5 -12
t-91.5 -12q-28 0 -48 4t-37 12q-37 -28 -72 -28q-38 0 -92 17.5t-78 17.5q-25 0 -30 -2q-12 -21 -30 -21q-16 0 -31 9l-22 14q-67 -17 -124 -27q-25 -4 -55.5 -7t-57.5 -3q-31 0 -57.5 5t-57.5 18q-22 -11 -45 -17t-47 -6q-47 0 -119 16.5t-98 16.5l-32 -1l14 -15l-3 -1
q158 -175 234 -272q129 -165 199 -312q84 -179 84 -293t-21 -183q-27 -91 -55 -91q-26 0 -45.5 9t-26.5 16zM401 1461q22 0 32 3.5t14 5.5q11 5 27 13q26 -14 49 -22q25 -7 54 -7q35 0 119 16.5t129 16.5q-29 -60 -42.5 -112t-13.5 -109q0 -61 37 -157q31 -84 70 -146
q48 44 78 131q26 80 26 148t-18 133q-12 41 -45 123l190 -39q10 0 15 1t18 6.5t28 17.5l32 -15l39 -4q22 0 40 3t29 5q98 18 135 18l-215 -261q-130 -166 -199 -301q-88 -174 -88 -290t30 -205q39 -116 82 -116q41 0 58 6l31 13q0 -101 -29 -140t-85 -39q-53 0 -104 27
t-88 71q-27 -47 -70.5 -70.5t-105.5 -23.5q-59 0 -111 40.5t-52 104.5v37l31 -10l48 -4q31 0 58 97q18 68 18 185q0 116 -84 295q-35 73 -83.5 149t-114 159t-233.5 269h14q8 0 22 2l42 2q13 0 33.5 -3t53.5 -11q68 -13 99 -13zM926 1043q-39 0 -53 18q-11 19 -11 77
q0 60 20.5 109.5t83.5 108.5l9 -44q3 -15 3 -56q0 -33 -2 -49t-9 -52q-11 -62 -41 -112zM1407 1474q-47 0 -99 -13t-69 -13q-23 0 -40 3.5t-29 12.5q-9 -8 -28.5 -15t-41.5 -7q-20 0 -55 9l-101 25q18 -35 34.5 -94.5t16.5 -132.5q0 -75 -23 -153q-30 -104 -100 -158
q-42 64 -80 158q-20 53 -30 99.5t-10 93.5q0 91 47 181q-24 0 -55 -4t-66 -13q-74 -16 -101 -16q-32 0 -56 8l-47 18l-37 -15l-42 -4q-26 0 -89 13.5t-97 13.5q-16 0 -26 -2h-13l12 -15l223 -267q124 -160 186 -294q77 -169 77 -299q0 -129 -22 -191q-32 -90 -69 -90
q-36 0 -48 3l-15 5q0 -68 49 -107q46 -35 104 -35t101 27t65 83q31 -49 84 -81.5t109 -32.5q57 0 81 42q18 30 18 95l-19 -8q-11 -3 -58 -3q-46 0 -91 121q-33 90 -33 213q0 120 84 290q65 130 191 293zM944 1245q0 -87 -39 -165q-7 9 -7 44q0 36 9 80.5t36 77.5l1 -19v-18z
M963 1245v14v12q-2 8 -2 12l-5 39q-45 -39 -63 -98q-14 -47 -14 -93q0 -49 8 -60t29 -11q21 34 34 84.5t13 100.5zM1443 1542q-15 0 -38.5 -3t-58.5 -10q-63 -12 -92 -12q-27 0 -42 4.5t-25 8.5t-22 10q-15 -15 -33.5 -25t-41.5 -10q-25 0 -61 11q-83 24 -99 24
q-21 0 -33 -2q-16 0 -22 -6l-10 -15q-8 2 -23.5 13.5t-27.5 11.5q-9 0 -21 -9l-109 -20q-24 -4 -49.5 -7t-42.5 -3q-25 0 -36.5 1t-42.5 8t-51 20q-14 -13 -45 -22q-16 -3 -29.5 -5t-29.5 -2q-32 0 -103.5 16.5t-107.5 16.5q-37 0 -54 -6.5t-18 -20.5q0 -13 140 -168
q173 -191 261 -341q70 -118 105 -205.5t35 -147.5q0 -121 -17 -198.5t-39 -80.5l-45 23q-11 6 -27 8q-37 -46 -37 -93q0 -25 2 -41t9 -32q21 -59 135 -150.5t161 -91.5q48 0 87 18t67 46q21 -10 53 -24q23 -10 51 -20t60 -16t60 -6q59 0 111 56q26 28 39 58t13 64
q0 65 -51 121l-94 101q-50 73 -50 177q0 105 40 209q34 88 102 188q54 78 133 166l218 243q-19 65 -54 112q-44 58 -100 58zM1470 1521q42 -27 69.5 -63t36.5 -81l-216 -237q-127 -148 -192 -268q-83 -157 -83 -285q0 -127 51 -204q11 -18 94 -102q50 -52 50 -113
q0 -60 -47 -110t-103 -50q-54 0 -119 24q-15 6 -41.5 17.5t-60.5 28.5q-30 -28 -67 -50q-35 -18 -81 -18q-45 0 -154 87.5t-128 142.5q-9 24 -9 63q0 38 27 77l22 -14l16 -8q18 -9 39 -9q20 0 44 91q17 70 17 181q0 115 -89 294q-69 141 -210 315q-30 37 -94 110.5
t-148 165.5l6 6l23 4l35 1q10 0 34.5 -4t58.5 -13q77 -16 119 -16q50 0 93 26q22 -11 57 -19q17 -3 34.5 -5t38.5 -2q41 0 102 13l123 25l42 -24q18 0 28 19l19 3l26 1q16 0 72.5 -17.5t91.5 -17.5q36 0 71 31l38 -13q24 -6 48 -6t87 12q19 4 49.5 8.5t41.5 4.5q30 0 38 -2z
" />
    <glyph glyph-name="Z" unicode="Z" horiz-adv-x="1403" 
d="M157 326l-12 -7l20 -14q21 -15 36 -21l5 2l9 9l-15 -3l-22 9l5 -3l-16 13q-8 8 -10 15zM145 319l-18 12l-3 -3l-10 -41q11 17 31 32zM114 287l-10 -26q-3 -15 -3 -56q0 -39 95 -123.5t156 -84.5q63 0 117 29q41 21 89 66q77 -54 154 -80t149 -26q74 0 182.5 37.5
t182.5 37.5t157 -34v15l1 33q0 20 -11.5 54.5t-34.5 73.5l9 61q4 26 4.5 47t0.5 33q0 51 -30.5 114t-84.5 105q13 -19 23 -49q4 -14 6 -28.5t2 -36.5q0 -21 -4 -38t-16 -40q-18 -41 -56 -64q13 -21 44 -47t31 -105l-189 22q-8 1 -13 1q-32 0 -103 -22q-183 -60 -236 -60
q-54 0 -130 38q-71 34 -117 80q-33 -54 -91 -81q-51 -24 -119 -24q-65 0 -112 30q-52 34 -52 99v4zM1237 563q-17 23 -47 36t-78 13q-47 0 -93 -41.5t-46 -87.5q0 -44 12 -76t34 -58q-3 11 -24 52q-15 27 -15 74t47 85.5t106 38.5t104 -36zM1019 349l2 -17l4 9zM1021 332
l-8 -12l-5 -9l13 9v12zM1008 311q-11 -8 -31 -21q-16 -10 -29 -17q17 5 34 15.5t26 22.5zM948 273q-16 -4 -30.5 -6t-31.5 -2q-20 0 -41 3q16 -11 34 -11q20 0 37 4.5t32 11.5zM845 268q-19 13 -25 32l-4 48q0 33 14 72l23 65q43 143 160 363q107 203 203 338l54 75
q59 81 78 132l-79 83q-88 -120 -209 -317q-137 -226 -224 -413q-104 -226 -104 -310q0 -82 30 -121q29 -35 83 -47zM1269 1476l12 16l-4 5l-22 -5zM1255 1492l-11 11q-41 0 -113.5 -22.5t-113.5 -22.5q-43 0 -82 24l-35 -18l33 12q30 -19 44 -24q27 -10 59 -10q35 0 107 19z
M900 1464q-30 -8 -47 -10.5t-36 -2.5l3 -1q46 0 80 14zM817 1451q-27 0 -52.5 4t-69.5 15l-119 32q-36 -25 -90 -41q-54 -13 -90 -13q-39 0 -81 6t-72 16q27 -13 56.5 -18t47 -5.5t35.5 -0.5q23 0 47.5 3t51.5 10q50 13 94 42l123 -34q66 -17 114 -17zM243 1470l-35 16
l-29 17l37 -172q0 -41 -11 -95l-20 -107q4 -11 16 -29q-3 18 -4 27t-1 27q0 27 18.5 82.5t18.5 84.5q0 33 -10 76l-19 84zM201 1100q18 -85 94 -150.5t134 -65.5q57 0 77 8t20 33l-3 54l-5 57q0 116 72 116q69 0 88 -20l3 35q0 52 -23 75.5t-74 23.5t-94.5 -32t-43.5 -58
q0 -23 9 -68l10 -48l-55 -30q-21 -7 -60 -7q-41 0 -81 19t-68 58zM678 1132q-8 -55 -29 -111q-19 -58 -45 -114l51 108q26 67 26 114zM604 907l-61 -117l-66 -119l67 117q38 70 60 119zM477 671l-79 -131q-44 -72 -85 -128q-52 -71 -98 -117q45 19 143 173q50 80 119 203z
M124 328l1 4l21 12t15 8l16 -18l18 -22q39 0 157 184q103 161 206 366t103 259q-8 11 -64 11q-58 0 -58 -95l4 -63l3 -54q0 -27 -29 -44q-21 -12 -96 -12q-72 0 -158.5 90.5t-86.5 157.5q0 69 18.5 124.5t18.5 90.5t-11.5 87.5t-29.5 91.5l7 -3l-2 9q45 -17 106 -32
q54 -12 104 -12q26 0 48.5 3t49.5 11q47 15 88 42l128 -36q68 -18 109 -18q42 0 71.5 9t53.5 28q34 -29 79 -29q46 0 123 22t113 22l27 -25l10 2l-6 -7l89 -93q-12 -47 -61 -118l-77 -106q-95 -134 -202 -337q-112 -213 -158 -359l-24 -68q-12 -35 -12 -65q0 -31 7 -45
q11 -24 41 -24q31 0 62 17q12 5 55 36q0 11 -28 73q-13 31 -13 78q0 49 52.5 93.5t138.5 44.5q85 0 157 -100q64 -91 64 -156v-16v-13v-11q0 -36 -3 -65t-10 -51q21 -31 33.5 -73t12.5 -71q0 -15 -1 -31.5t-4 -32.5q-92 42 -168 42q-77 0 -186.5 -37.5t-181.5 -37.5
q-76 0 -151 24.5t-153 75.5q-71 -56 -114 -72.5t-103 -16.5q-61 0 -161.5 90t-100.5 157t43 104zM1166 316q40 19 61 56t21 93q0 54 -30.5 90.5t-88.5 36.5q-56 0 -96 -35.5t-40 -78.5q0 -41 15 -73q7 -13 17 -28t22 -31q-15 -53 -61 -80q-41 -22 -108 -22
q-69 0 -117.5 43.5t-48.5 138.5q0 94 99 315q83 183 216 405q110 184 211 321l-77 -21q-86 -24 -122 -24q-34 0 -63 9.5t-45 22.5q-60 -24 -114 -24q-53 0 -123 19l-115 30l-4 -2q-44 -27 -93.5 -39.5t-102.5 -12.5q-50 0 -90 9t-81 31l20 -69q4 -16 6 -30.5t2 -33.5
q0 -36 -11 -98q-9 -69 -19 -102q39 -51 62 -67q16 -10 37.5 -16t47.5 -6q52 0 90 26l-11 49q-6 27 -6 60t49 70.5t137 37.5q89 0 89 -82t-19 -146q-10 -36 -35.5 -103t-115.5 -226q-100 -180 -182 -300q-103 -153 -146 -166q-9 0 -34 16l-31 21l-9 -35l-4 -52q0 -31 47 -60
q39 -24 103 -24q66 0 117.5 28.5t82.5 89.5q37 -45 118.5 -88t132.5 -43q50 0 235 60q66 22 105 22q8 -1 12 -1l169 -20q0 46 -39 84.5t-42 54.5zM1424 58q0 85 -44 154q12 65 12 145q0 82 -70 177q-77 105 -171 105q-93 0 -152 -50.5t-59 -110.5q0 -57 18 -95l14 -24l8 -20
q-23 -17 -49 -31q-25 -11 -46 -11q-20 0 -26 11q-3 12 -3 34q0 18 1.5 26.5t6.5 25.5l27 78q46 147 158 358q105 201 200 334l80 113q42 64 62 122l2 5l-128 135l-13 2l-28 1q-23 0 -93 -22q-32 -10 -60 -16t-43 -6q-31 0 -53.5 9t-38.5 28q-21 -23 -52 -35q-30 -10 -75 -10
q-22 0 -59.5 7t-89.5 22l-92 26q-38 -28 -85 -44q-46 -13 -98 -13q-27 0 -57 4t-63 13q-51 12 -115 40q2 -12 6 -29.5t14.5 -56.5t16.5 -72.5t6 -53.5q0 -39 -18.5 -94t-18.5 -130q0 -73 91.5 -169t161.5 -96h17h13q47 0 64 5.5t36 17.5q-26 -52 -51 -97q-29 -51 -45 -79
q-80 -142 -139 -233q-74 -116 -102 -125l-18 25q-8 12 -25 14q-46 -20 -72 -57t-26 -102q0 -66 107 -161t177 -95q73 0 120 23q51 21 96 61q67 -45 150 -70t154 -25q72 0 181 37.5t160 37.5q53 0 109 -15q43 -11 98 -36q5 21 8 44t3 44zM566 919l-1 44l-6 93q0 22 20 39
t61 17q0 -27 -31 -98z" />
    <glyph glyph-name="bracketleft" unicode="[" horiz-adv-x="818" 
d="M702 -155l-88 90h-166v1442h242l2 120l-91 162v6h-419v-1888l1 -11l97 -97h424zM601 1659v-149h-235v-1577h235v-156h-418v1887h415zM199 -206h385v122h-235v1611h235v121h-385v-1854zM738 -141l-108 112h-146v1370h242l2 165l-109 194h-472v-1949l119 -118h474z
M719 -148l2 -200h-448l-107 106v1923h442l101 -180l-2 -141h-242v-1408h156z" />
    <glyph glyph-name="bracketright" unicode="]" horiz-adv-x="734" 
d="M653 1529l-79 135h-10l-419 1v-155h235v-1577h-235v-156l2 -14l89 -94h417v1860zM564 1664v-1887h-417v154h235v1581h-235v152h417zM162 -206h385v1854h-385v-121h235v-1611h-235v-122zM689 1539l-94 161h-484v-224h235v-1509h-235v-218l109 -116h469v1906zM670 1534
v-1882h-441l-99 104v192h235v1547h-235v186h454z" />
    <glyph glyph-name="asciicircum" unicode="^" horiz-adv-x="1051" 
d="M491 1653l-364 -368l221 -219l227 221l233 -231l139 144l-80 79l3 2l-376 373zM867 1279l-140 -142l-230 227l-220 -221l-143 148l358 361zM727 1161l119 120l-352 349l-336 -339l119 -124l220 221zM490 1704l-414 -420l271 -269l227 221l235 -231l189 196zM491 1677
l480 -477l-163 -168l-233 231l-227 -221l-245 243z" />
    <glyph glyph-name="underscore" unicode="_" horiz-adv-x="1350" 
 />
    <glyph glyph-name="grave" unicode="`" horiz-adv-x="1148" 
d="M473 1721q-70 0 -70 -72t157 -147l123 -54l38 -21l61 -34l30 46l-98 107q-69 76 -123 119q-70 56 -118 56zM401 1658q0 36 23 52q26 16 66 16q42 0 112 -55q54 -42 119 -116q21 -24 43 -51t46 -57l4 -6l-2 -2l12 -13l10 15l-104 113q-73 79 -131 125q-76 59 -144 59
q-69 0 -69 -54q0 -34 1.5 -47.5t6.5 -25.5q9 -17 25 -35q-18 38 -18 82zM419 1576q11 -24 31 -45t47 -37q62 -33 149 -70q36 -15 91 -37q31 -13 63 -25l37 52l-13 12l-36 -56l-56 33l-56 30l-101 45q-114 50 -156 98zM384 1658q0 43 32 66q27 19 88 19t174 -117l158 -183
l-2 -2l25 -25l-52 -75q-93 34 -162 64q-47 20 -81 36t-75 38q-50 26 -77.5 74t-27.5 105zM472 1757q-105 0 -105 -83q0 -81 30 -132.5t83 -79.5l110 -51l111 -46q37 -14 66 -26t47 -21l70 101q-15 13 -45.5 44.5t-76.5 81.5q-90 100 -145 145q-82 67 -145 67z" />
    <glyph glyph-name="a" unicode="a" horiz-adv-x="1589" 
 />
    <glyph glyph-name="b" unicode="b" horiz-adv-x="1457" 
 />
    <glyph glyph-name="c" unicode="c" horiz-adv-x="1225" 
 />
    <glyph glyph-name="d" unicode="d" horiz-adv-x="1550" 
 />
    <glyph glyph-name="e" unicode="e" horiz-adv-x="1453" 
 />
    <glyph glyph-name="f" unicode="f" horiz-adv-x="1294" 
 />
    <glyph glyph-name="g" unicode="g" horiz-adv-x="1379" 
 />
    <glyph glyph-name="h" unicode="h" horiz-adv-x="1630" 
 />
    <glyph glyph-name="i" unicode="i" horiz-adv-x="926" 
 />
    <glyph glyph-name="j" unicode="j" horiz-adv-x="1223" 
 />
    <glyph glyph-name="k" unicode="k" horiz-adv-x="1676" 
 />
    <glyph glyph-name="l" unicode="l" horiz-adv-x="1350" 
 />
    <glyph glyph-name="m" unicode="m" horiz-adv-x="1862" 
 />
    <glyph glyph-name="n" unicode="n" horiz-adv-x="1575" 
 />
    <glyph glyph-name="o" unicode="o" 
 />
    <glyph glyph-name="p" unicode="p" horiz-adv-x="1389" 
 />
    <glyph glyph-name="q" unicode="q" horiz-adv-x="1430" 
 />
    <glyph glyph-name="r" unicode="r" horiz-adv-x="1611" 
 />
    <glyph glyph-name="s" unicode="s" horiz-adv-x="1190" 
 />
    <glyph glyph-name="t" unicode="t" horiz-adv-x="1350" 
 />
    <glyph glyph-name="u" unicode="u" horiz-adv-x="1453" 
 />
    <glyph glyph-name="v" unicode="v" horiz-adv-x="1612" 
 />
    <glyph glyph-name="w" unicode="w" horiz-adv-x="2452" 
 />
    <glyph glyph-name="x" unicode="x" horiz-adv-x="1207" 
 />
    <glyph glyph-name="y" unicode="y" horiz-adv-x="390" 
 />
    <glyph glyph-name="z" unicode="z" horiz-adv-x="1207" 
 />
    <glyph glyph-name="braceleft" unicode="{" horiz-adv-x="1207" 
d="M852 1666q-27 0 -57 -5t-53 -16q-138 -63 -232 -188q-83 -112 -129 -266q-39 -132 -54 -298l-49 21q-30 10 -74 10q-45 0 -91 -42.5t-46 -90.5q0 -26 2 -42.5t8 -32t28 -45.5q52 -69 94 -98t102 -29h17q7 1 10 1q9 -94 30 -187t55 -178q47 -121 120 -230
q83 -124 183 -197q116 -84 211 -84q96 0 142 64q42 57 42 130q0 72 -47 171.5t-106 130.5l-20 9q-13 5 -21 5l-13 -2l-5 -2q-33 0 -42 -2l-46 -7q-63 128 -99.5 279.5t-36.5 278.5q0 135 11 218q15 120 52 209q44 106 118 159q19 -26 41 -65l36 -68l29 -13l47 -4q31 0 72 57
q32 46 41 103q-11 30 -17 46q-9 22 -24 57l-43 100q-28 67 -72 105t-114 38zM836 1665q86 0 149 -59t63 -133q0 -72 -34 -119q-38 -51 -92 -51q-52 0 -67 41q0 16 -6.5 30t-19.5 32l-25 4q-15 0 -41 -16q-19 -11 -38 -33q-81 -87 -128 -279q-37 -160 -37 -286
q0 -135 23 -273q27 -179 76 -294q60 -147 143 -178l34 -1q29 0 35 55q0 25 7.5 43t20.5 27q66 0 114 -59q43 -52 43 -131t-57.5 -142.5t-124.5 -63.5q-66 0 -111 16q-25 8 -43 16.5t-40 24.5q-121 84 -195 201q-29 46 -53.5 106t-44.5 131q-24 89 -54 271h-5l-5 45l-2 61
q-18 -14 -46 -23q-28 -7 -73 -7q-47 0 -87 42t-40 111q0 66 42 106t90 40q51 0 75 -8q27 -6 45 -23l1 4l3 -2q15 151 48 272q39 151 107 257q79 124 194 192q32 18 79 35.5t77 17.5zM343 768q-17 -59 -37 -81q-27 -30 -80 -30t-88 32t-35 83q0 52 35 84t89 32q53 0 83 -33
q21 -24 33 -87zM1039 -6q0 -81 -53 -139.5t-113 -58.5q-61 0 -104.5 15t-78.5 39q-131 92 -212 235q-72 126 -108 294q-16 74 -25 151.5t-9 164.5q-18 -28 -46.5 -42.5t-78.5 -14.5q-48 0 -87.5 38t-39.5 96q0 60 40.5 97.5t88.5 37.5q47 0 79.5 -16t48.5 -46q0 81 14 164
q9 55 33 144q45 166 125 278q97 133 236 198q38 19 103 19t122 -51.5t57 -120.5t-29 -110q-33 -46 -77 -46t-61 49q-8 21 -13.5 32.5t-9.5 17.5q-13 8 -35 8t-50 -17q-23 -16 -43 -38q-87 -95 -132 -284q-38 -153 -38 -294q0 -134 23 -278q30 -182 80 -299q64 -151 151 -182
q5 -2 46 -2q43 0 43 54q0 29 5 45.5t14 25.5l5 3l8 1q48 0 86 -60q35 -54 35 -108zM851 1702q-45 0 -96.5 -16.5t-92.5 -42.5q-163 -96 -260 -305q-78 -170 -102 -394q-32 12 -94 12q-61 0 -114 -50.5t-53 -140.5q0 -89 83 -175q80 -83 180 -83q16 -119 38 -208
q27 -115 67 -199q54 -119 128 -215q87 -114 185 -178q115 -74 216 -74q102 0 159 75q26 35 39 71t13 77q0 80 -46 180t-103 142q-25 18 -52.5 25.5t-55.5 7.5q-13 0 -28 -1t-30 -4q-58 132 -90 264q-15 66 -23 127t-8 117q0 119 11.5 217t39.5 183q33 102 85 145l50 -95
q28 -40 93 -40t119 69q49 64 49 132l-61 165q-42 97 -93 148q-66 64 -153 64zM1139 1322q-6 -62 -45 -118q-44 -61 -81 -61q-35 0 -53 5t-27 9.5l-13 6.5q-8 18 -18 37.5t-23 40.5l-27 44q-63 -46 -103 -152q-31 -84 -44 -190.5t-13 -226.5q0 -118 36 -262q30 -118 93 -270
l36 5l37 2q21 0 46.5 -6.5t46.5 -22.5q54 -39 97.5 -136t43.5 -170q0 -74 -47 -137q-51 -68 -148 -68t-207 73q-92 61 -178 174q-68 91 -124 210q-43 91 -69 201.5t-36 216.5l-63 -1q-49 0 -123.5 80t-74.5 161q0 82 47 126t96 44q47 0 71.5 -5t44.5 -16q0 100 27 205
q24 92 70 195q98 216 257 310q37 22 89 41q53 16 87 16q39 0 66 -8q30 -6 52 -23q47 -32 104 -153q31 -67 70 -177z" />
    <glyph glyph-name="bar" unicode="|" horiz-adv-x="390" 
d="M239 1573h-92v-1906h92v1906zM275 1609h-164v-1978h164v1978zM256 1590v-1940h-126v1940h126z" />
    <glyph glyph-name="braceright" unicode="}" horiz-adv-x="1207" 
d="M395 1228q0 18 5.5 28.5t19.5 24.5q7 -1 15 -4t19 -7.5t24 -14.5q60 -126 90 -276q27 -137 27 -283q0 -72 -7 -146t-22 -148q-33 -175 -94 -270q-30 -48 -51 -66.5t-33 -18.5q-15 0 -35 5q-3 9 -9.5 21.5t-13.5 21.5q-10 16 -30 32q1 6 -24 12.5t-55 6.5
q-32 0 -72.5 -49.5t-40.5 -108.5q0 -60 29 -111q23 -41 73 -91q28 -28 89 -70q72 -49 129 -49t138 48q68 41 129 118q47 61 96 151q60 114 95 261q22 100 29.5 159.5t7.5 115.5l2 35l33 -11q20 -5 52 -5q35 0 84.5 39.5t49.5 117.5q0 79 -76 159q-64 70 -143 70h-15.5
t-22.5 -4q-38 160 -103 297q-72 152 -168 264q-65 77 -138 127q-92 61 -174 61q-81 0 -141.5 -65.5t-60.5 -123.5q0 -56 9 -85.5t27 -55t39 -52t45 -51.5q68 -71 95 -71q28 0 53.5 11t26.5 19l-1 19zM478 1255q-14 31 -26.5 53.5t-23.5 36.5q-39 54 -88 54q-47 0 -56 -65
q-6 -64 -54 -64q-45 0 -84 66q-32 56 -32 133q0 75 51.5 136.5t136.5 61.5q86 0 177 -61q74 -50 137 -124q94 -112 148 -279q44 -135 60 -312q27 24 63 30l1 -3l51 1q23 0 38 -5q43 -13 71 -55.5t28 -97.5q0 -54 -46 -99t-103 -45t-95 26q0 -86 -9 -158t-27 -155
q-36 -163 -111 -290q-84 -140 -216 -226q-33 -20 -73.5 -30.5t-102.5 -10.5q-61 0 -118 58t-57 133t30 123q35 55 69 55q38 0 57 -5q22 -4 26 -10l-1 -17v-23q0 -13 12.5 -35.5t29.5 -22.5q19 0 34 8l26 13q74 39 125 167q39 103 60 254q15 111 15 298t-88 417l-15 37
q-10 24 -20 32zM1059 770q0 -57 -41 -96.5t-85 -39.5q-45 0 -72.5 13t-44.5 36q0 -92 -7.5 -163.5t-23.5 -156.5q-34 -172 -108 -302q-85 -149 -217 -233q-63 -38 -145 -38q-81 0 -135.5 58.5t-54.5 124.5q0 67 34.5 109.5t62.5 42.5q29 0 40 -3l21 -6q0 -21 3 -37t8 -30
q16 -37 53 -37q39 0 80 38q28 26 59 73q62 98 96 274q30 153 30 305q0 148 -34 309q-39 172 -110 302q-14 25 -25 40.5t-22 26.5q-36 36 -90 36q-56 0 -63.5 -64.5t-40.5 -64.5t-73 61q-35 54 -35 121q0 66 54.5 123.5t105.5 57.5q54 0 79.5 -6t31.5 -8t19 -9
q139 -73 228 -200q80 -115 124 -274q23 -83 34 -142q15 -83 15 -161q22 29 49.5 43t72.5 14q48 0 87.5 -39.5t39.5 -97.5zM430 1209l3 2l-2 19l1 10q14 -4 26 -18q5 -7 22 -49q43 -112 64 -232t21 -246t-25 -272q-28 -171 -76 -254q-25 -41 -44.5 -63.5t-34.5 -22.5h-7
q-22 44 -54 70q-35 29 -96 29q-59 0 -106 -69q-40 -62 -40 -156q0 -97 101 -195q83 -82 204 -130q102 0 189 48q76 42 141 124q52 64 106 163q63 116 97 263q16 69 27 140t11 136q17 -3 60 -3q44 0 103 50t59 135q0 83 -69 173q-73 94 -172 94l-23 -1q-29 110 -65 201
t-84 174q-107 190 -260 303q-48 35 -98 54q-25 10 -56.5 15t-73.5 5q-78 0 -142 -76q-59 -71 -59 -165q0 -92 51 -167q47 -64 85 -104q64 -64 106 -64q41 0 78 21t37 55zM416 1202q0 -21 -31.5 -37t-66.5 -16q-32 0 -95 63q-35 36 -79 97q-47 65 -47 153q0 89 56.5 157
t129.5 68q39 0 66 -4t55 -15q46 -17 92 -51q77 -57 141 -132t117 -170q83 -152 145 -373l2 -7q128 0 197 -88q63 -83 63 -160q0 -75 -55 -120t-88 -45q-32 0 -49 3l-28 6l-1 -12q0 -55 -7.5 -113t-31.5 -166q-34 -150 -95 -264q-46 -87 -99 -153q-64 -81 -134 -123
q-82 -50 -173 -50h-8q-98 21 -193 123q-98 106 -98 189q0 82 36 138q41 63 95 63t87 -30q24 -21 46 -67l27 -2q17 0 49 36q15 17 40 60q49 89 79 259q24 141 24 241q0 98 -15 220q-9 80 -21 140t-29 111q-39 125 -94 131q-11 -8 -14 -26q0 -19 5 -34z" />
    <glyph glyph-name="asciitilde" unicode="~" horiz-adv-x="1419" 
d="M1036 986l20 -19l-24 25q-16 -19 -20 -23q-16 -18 -30 -31q-26 -26 -57 -46q14 8 27.5 18.5t30.5 25.5zM925 892q-23 -14 -52 -25q-29 -8 -48 -8l-36 3q-16 3 -31 10l32 -12l36 -4q20 0 46.5 9t52.5 27zM758 872q-31 12 -127 70q-74 44 -133 56q52 -9 135 -60.5
t125 -65.5zM498 998l-22 2zM455 1000q-41 0 -82 -9q-39 -6 -71 -22q32 15 71 23q14 2 39.5 5t42.5 3zM302 969q-43 -20 -98 -75q-25 -25 -81 -93l168 -150l2 4l-161 150q40 55 76 92q50 51 94 72zM293 655l87 -80q56 73 77 90q48 42 101 42t122 -38l116 -69q68 -38 127 -38
q60 0 126 27q54 21 117 72q40 31 107 97l-217 209l131 -138q-87 -89 -165 -133q-95 -54 -174 -54q-78 0 -150 36l-116 65q-66 36 -115 36q-48 0 -98 -38q-36 -27 -76 -86zM820 678q-47 0 -115 36l-114 65q-66 36 -120 36q-53 0 -104 -32q-44 -28 -82 -78l-112 99
q77 94 128 123q65 37 141 37q77 0 140 -36l120 -71q69 -37 121 -37q55 0 114 37q48 30 96 81l103 -108q-84 -77 -143 -109q-81 -43 -173 -43zM1037 1036q-64 -65 -98 -91q-67 -50 -117 -50q-51 0 -112 35l-117 70q-65 36 -162 36q-96 0 -185 -59q-72 -48 -162 -177l301 -279
q32 54 75 97q55 53 100 53q23 0 50.5 -9t61.5 -29l115 -69q70 -38 138 -38q69 0 146 34q66 27 132 85l121 114zM1036 1009l261 -251q-69 -67 -114 -105q-65 -53 -124 -78q-71 -30 -136 -30t-132 38l-114 69q-67 38 -118 38q-50 0 -101 -48q-16 -16 -76 -92l-273 253
q87 120 153 162q83 52 172 52q91 0 156 -37l111 -68q65 -36 121 -36q57 0 117 45z" />
    <glyph glyph-name="quotesinglbase" unicode="&#x201a;" horiz-adv-x="1544" 
 />
    <glyph glyph-name="florin" unicode="&#x192;" horiz-adv-x="1446" 
 />
    <glyph glyph-name="quotedblbase" unicode="&#x201e;" horiz-adv-x="1403" 
 />
    <glyph glyph-name="ellipsis" unicode="&#x2026;" horiz-adv-x="1903" 
d="M264 469q-71 0 -120 -46t-49 -126q0 -81 80 -168.5t152 -87.5t129 45t57 125q0 78 -74 168t-175 90zM899 469q-71 0 -120 -46t-49 -126q0 -81 80 -168.5t152 -87.5t129 45t57 125q0 78 -74 168t-175 90zM1534 469q-71 0 -120 -46t-49 -126q0 -81 80 -168.5t152 -87.5
t129 45t57 125q0 78 -74 168t-175 90zM1534 170q-56 0 -94 38t-38 92q0 53 39 93t92 40q52 0 92 -40t40 -92q0 -51 -39 -91t-92 -40zM1684 301q0 -60 -46 -105t-106 -45q-61 0 -105 44.5t-44 105.5t45 106t105 45q59 0 105 -45.5t46 -105.5zM1539 504q-91 0 -150.5 -54.5
t-59.5 -152.5q0 -96 90.5 -194t178.5 -98t154.5 56t66.5 150q0 92 -81 191q-84 102 -199 102zM1800 186q0 -63 -63 -114q-59 -48 -139 -48q-79 0 -164.5 93.5t-85.5 181.5q0 86 55 136t149 50q95 0 174 -98q74 -91 74 -201zM899 170q-56 0 -94 38t-38 92q0 53 39 93t92 40
q52 0 92 -40t40 -92q0 -51 -39 -91t-92 -40zM1049 301q0 -60 -46 -105t-106 -45q-61 0 -105 44.5t-44 105.5t45 106t105 45q59 0 105 -45.5t46 -105.5zM904 504q-91 0 -150.5 -54.5t-59.5 -152.5q0 -96 90.5 -194t178.5 -98t154.5 56t66.5 150q0 92 -81 191
q-84 102 -199 102zM1165 186q0 -63 -63 -114q-59 -48 -139 -48q-79 0 -164.5 93.5t-85.5 181.5q0 86 55 136t149 50q95 0 174 -98q74 -91 74 -201zM264 170q-56 0 -94 38t-38 92q0 53 39 93t92 40q52 0 92 -40t40 -92q0 -51 -39 -91t-92 -40zM414 301q0 -60 -46 -105
t-106 -45q-61 0 -105 44.5t-44 105.5t45 106t105 45q59 0 105 -45.5t46 -105.5zM269 504q-91 0 -150.5 -54.5t-59.5 -152.5q0 -96 90.5 -194t178.5 -98t154.5 56t66.5 150q0 92 -81 191q-84 102 -199 102zM530 186q0 -63 -63 -114q-59 -48 -139 -48q-79 0 -164.5 93.5
t-85.5 181.5q0 86 55 136t149 50q95 0 174 -98q74 -91 74 -201z" />
    <glyph glyph-name="daggerdbl" unicode="&#x2021;" horiz-adv-x="1739" 
 />
    <glyph glyph-name="circumflex" unicode="&#x2c6;" horiz-adv-x="1358" 
 />
    <glyph glyph-name="Scaron" unicode="&#x160;" horiz-adv-x="1190" 
 />
    <glyph glyph-name="OE" unicode="&#x152;" horiz-adv-x="2210" 
 />
    <glyph glyph-name="quoteleft" unicode="&#x2018;" horiz-adv-x="394" 
d="M370 1160q-3 9 -52 86q-17 28 -22 61q26 17 37.5 36.5t11.5 63.5t-53.5 106t-109.5 62q-55 0 -86 -37q-29 -37 -29 -92q0 -54 25 -104q21 -43 63 -84l5 -2q42 -41 98 -68q27 -13 55.5 -20.5t56.5 -7.5zM221 1263l-43 22q-31 32 -53 72q-10 20 -16 42t-6 44q0 42 18 69
t53 27q34 0 60 -20.5t26 -50.5q0 -28 -39 -60q-39 -30 -39 -49q0 -17 15 -50zM279 1470q0 -37 -39 -71t-39 -44q2 -13 19 -49l27 -52l-14 -7q-8 -3 -34 -3t-70.5 73.5t-44.5 125.5q0 53 24.5 84t66.5 31t73 -26.5t31 -61.5zM335 1291q23 17 35 45q5 12 8 31t3 46
q0 52 -62 123t-131 71q-68 0 -107.5 -50t-39.5 -148q0 -95 106 -191q52 -46 96.5 -70t78.5 -24q67 0 76.5 6.5t9.5 29.5q0 21 -30 63q-36 51 -43 68zM389 1147q-4 -4 -66 -4t-162.5 89t-100.5 178t33 133.5t94 44.5q60 0 117.5 -66.5t57.5 -112.5q0 -44 -11 -70t-37 -40
q0 -16 50 -89q20 -31 25 -63z" />
    <glyph glyph-name="quoteright" unicode="&#x2019;" horiz-adv-x="308" 
d="M158 1600q-17 0 -27 -2l-27 -5q-25 -14 -45 -40q-10 -14 -14.5 -26t-4.5 -27q0 -25 24 -55l50 -59l-6 -11l-8 -13l-12 -41q-9 -35 -9 -43l-15 -19q6 -15 12 -26.5t14 -25.5q5 -9 11.5 -20t17.5 -23q75 25 131 96q27 35 41 69.5t14 70.5q0 69 -43 133q-46 67 -104 67z
M118 1290l15 56q8 10 12.5 21t4.5 27t-37 51.5t-37 53.5t11.5 32.5t29.5 26.5l24 4l35 2q23 0 42 -41q15 -32 15 -73q0 -40 -38 -95t-77 -65zM252 1445q-21 -79 -50 -117q-41 -53 -106 -60q0 13 10 50l25 68q-1 17 -37.5 52.5t-36.5 68.5q0 34 34 57q29 19 57 19
q13 0 23.5 -2t18.5 -5q16 -7 23 -17q24 -16 31 -47q4 -13 6 -31t2 -36zM151 1636q-49 0 -92 -38.5t-43 -101.5q0 -62 62 -109q0 -17 -4 -35t-13 -35q-16 -32 -40 -50l38 -77q27 -53 50 -67q90 12 163 106q69 89 69 175t-56 159t-134 73zM322 1409q0 -88 -60 -163t-148 -102
q-18 20 -40 57l-30 61q27 29 40 60.5t13 73.5q-28 22 -47 51q-15 27 -15 66q0 38 37.5 71t92.5 33q56 0 108 -70q49 -66 49 -138z" />
    </font>
</defs>
</svg>
